<?xml version="1.0" encoding="utf-8"?>
<!-- Generator: Adobe Illustrator 22.0.1, SVG Export Plug-In . SVG Version: 6.00 Build 0)  -->
<svg version="1.1" id="排版" xmlns="http://www.w3.org/2000/svg" xmlns:xlink="http://www.w3.org/1999/xlink" x="0px" y="0px"
	 viewBox="0 0 39.287 63.757" enable-background="new 0 0 39.287 63.757" xml:space="preserve">
<g>
	<g>
		<path fill="#686869" d="M8.352,15.252c-0.55,2.406-1.021,6.007,0.745,8.026c1.071,1.222,2.837,1.576,4.349,1.893
			c0.633,0.131,1.706,0.153,2.26,0.534c1.082,0.749-0.051,2.675-0.563,3.62c-0.549,1.017-0.496,1.563,0.494,2.374
			c1.09,0.894,2.658,1.124,4.026,1.092c1.297-0.03,2.912-0.274,3.916-1.175c0.797-0.717,0.338-1.173,0.088-2.094
			c-0.318-1.174-0.741-2.76,0.425-3.598c0.832-0.597,1.81-0.821,2.575-1.59c0.785-0.79,1.397-1.831,1.545-2.947
			c-0.145,0.145-0.29,0.289-0.433,0.434c1.724,0.114,3.266-1.01,2.806-2.9c-0.371-1.522-1.722-1.693-2.795-0.69
			c0.247,0.102,0.492,0.202,0.739,0.306c0.105-0.95,0.212-1.902,0.316-2.852c0.062-0.553-0.805-0.55-0.867,0
			c-0.104,0.95-0.211,1.901-0.315,2.852c-0.045,0.397,0.488,0.538,0.739,0.306c0.519-0.485,1.144-0.206,1.351,0.427
			c0.394,1.216-1.01,1.748-1.975,1.684c-0.255-0.017-0.404,0.215-0.434,0.433c-0.069,0.527-0.395,1.186-0.723,1.662
			c-0.859,1.241-2,1.382-3.155,2.201c-1.142,0.813-1.091,2.212-0.868,3.483c0.106,0.608,0.573,1.427,0.544,2.01
			c-0.019,0.416,0.42-0.166-0.271,0.331c-0.318,0.229-0.7,0.383-1.065,0.507c-1.129,0.384-2.435,0.45-3.607,0.251
			c-0.681-0.114-2.583-0.609-2.69-1.403c-0.05-0.361,0.834-1.56,1.001-1.95c0.298-0.7,0.835-1.843,0.569-2.639
			c-0.351-1.051-1.908-1.196-2.816-1.383c-2.458-0.513-4.881-0.945-5.364-3.83c-0.282-1.672-0.09-3.501,0.286-5.142
			C9.312,14.94,8.477,14.709,8.352,15.252L8.352,15.252z"/>
	</g>
	<g>
		<path fill="#686869" d="M14.819,29.849c-4.24,0.921-8.048,2.168-10.406,6.066c-2.356,3.899-4.352,8.729-4.415,13.326
			c-0.002,0.265,0.282,0.513,0.549,0.416c2.605-0.933,5.468-1.244,8.225-1.222c0.557,0.005,0.558-0.862,0-0.866
			c-2.825-0.023-5.786,0.296-8.455,1.253c0.184,0.139,0.365,0.279,0.549,0.419c0.058-4.312,1.911-8.64,3.989-12.358
			c2.253-4.03,5.927-5.271,10.194-6.199C15.593,30.565,15.362,29.731,14.819,29.849L14.819,29.849z"/>
	</g>
	<g>
		<path fill="#686869" d="M11.222,31.189c-1.225,5.941-2.41,11.9-2.566,17.983c-0.015,0.558,0.852,0.557,0.866,0
			c0.153-6.008,1.326-11.887,2.536-17.753C12.171,30.877,11.335,30.643,11.222,31.189L11.222,31.189z"/>
	</g>
	<g>
		<path fill="#686869" d="M13.176,31c-0.138,1.997-0.276,3.993-0.415,5.99c-0.051,0.732-0.511,2.083,0.326,2.518
			c0.781,0.405,2.602-0.135,3.466-0.183c1.841-0.102,3.682-0.126,5.524-0.078c0.557,0.014,0.557-0.852,0-0.866
			c-1.315-0.034-2.627-0.031-3.942,0.01c-1.169,0.038-2.855,0.47-4.003,0.251c-0.816-0.156-0.63,0.613-0.579-0.594
			c0.031-0.706,0.098-1.41,0.146-2.115c0.113-1.644,0.228-3.288,0.341-4.933C14.079,30.445,13.214,30.447,13.176,31L13.176,31z"/>
	</g>
	<g>
		<path fill="#686869" d="M24.13,37.395c-3.638,1.696-7.251,3.472-9.998,6.476c-0.341,0.373,0.082,0.895,0.525,0.682
			c3.98-1.93,8.062-3.608,12.247-5.041c0.329-0.113,0.455-0.612,0.104-0.792c-0.81-0.413-1.576-0.866-2.33-1.373
			c-0.464-0.312-0.898,0.437-0.438,0.748c0.754,0.507,1.521,0.959,2.33,1.374c0.035-0.266,0.07-0.529,0.103-0.793
			c-4.254,1.457-8.406,3.168-12.453,5.128c0.174,0.227,0.35,0.454,0.524,0.68c2.699-2.952,6.253-4.678,9.824-6.341
			C25.071,37.908,24.631,37.161,24.13,37.395L24.13,37.395z"/>
	</g>
	<g>
		<path fill="#686869" d="M13.84,44.475c0.503,1.505,1.022,3.005,1.551,4.501c0.186,0.522,1.023,0.298,0.835-0.231
			c-0.53-1.495-1.046-2.995-1.551-4.501C14.5,43.718,13.664,43.945,13.84,44.475L13.84,44.475z"/>
	</g>
	<g>
		<path fill="#686869" d="M26.359,39.139c1.016,4.353,2.176,8.666,3.482,12.939c0.163,0.533,0.999,0.305,0.835-0.229
			c-1.306-4.276-2.467-8.588-3.482-12.939C27.067,38.367,26.231,38.597,26.359,39.139L26.359,39.139z"/>
	</g>
	<g>
		<path fill="#686869" d="M25.553,30.827c-0.436,2.363-0.679,4.738-0.726,7.142c-0.012,0.558,0.854,0.558,0.865,0
			c0.046-2.325,0.273-4.623,0.695-6.91C26.489,30.513,25.654,30.278,25.553,30.827L25.553,30.827z"/>
	</g>
	<g>
		<path fill="#686869" d="M28.728,31.255c-0.69,6.814,1.385,13.512,2.104,20.232c0.061,0.549,0.926,0.554,0.867,0
			c-0.721-6.72-2.795-13.421-2.104-20.232C29.65,30.702,28.784,30.705,28.728,31.255L28.728,31.255z"/>
	</g>
	<g>
		<path fill="#686869" d="M23.367,31.064c0.379,0.212,0.972,0.073,1.379,0.066c1.368-0.02,2.739,0.044,4.077,0.349
			c3.101,0.708,4.943,2.425,6.287,5.194c1.632,3.368,2.642,7.14,3.342,10.81c0.242-0.139,0.482-0.28,0.725-0.421
			c-1.671-1.884-5.419-0.971-7.392-0.428c-0.537,0.148-0.31,0.983,0.23,0.836c1.65-0.454,5.119-1.408,6.549,0.204
			c0.309,0.35,0.798-0.03,0.723-0.421c-0.749-3.928-1.842-7.995-3.698-11.552c-1.156-2.21-2.658-3.74-5.04-4.62
			c-1.393-0.513-2.888-0.738-4.367-0.804c-0.526-0.024-1.052-0.019-1.578-0.009c-0.206,0.005-0.915-0.015-0.8,0.048
			C23.317,30.045,22.879,30.792,23.367,31.064L23.367,31.064z"/>
	</g>
	<g>
		<path fill="#686869" d="M31.295,45.046c0.22,1.825,0.313,3.663,0.488,5.491c0.054,0.551,0.92,0.556,0.867,0
			c-0.177-1.828-0.269-3.666-0.49-5.491C32.096,44.501,31.228,44.494,31.295,45.046L31.295,45.046z"/>
	</g>
	<g>
		<path fill="#686869" d="M1.041,49.324c-0.076,4.385,2.766,9.278,7.631,8.872c5.441-0.452,10.134-4.135,14.029-7.669
			c0.413-0.376-0.2-0.988-0.613-0.612c-3.216,2.918-6.858,5.818-11.123,6.992c-2.412,0.664-4.774,0.784-6.635-1.13
			c-1.686-1.731-2.465-4.068-2.424-6.453C1.916,48.766,1.05,48.766,1.041,49.324L1.041,49.324z"/>
	</g>
	<g>
		<path fill="#686869" d="M8.048,48.264c0.318,0.707,0.897,2.681,1.705,2.981c0.549,0.205,1.29-0.274,1.798-0.455
			c2.273-0.808,4.586-1.505,6.839-2.371c0.201-0.078,0.292-0.209,0.318-0.418c0.102-0.771,0.239-1.582,0.487-2.322
			c0.073-0.224,0.506-1.588,1.003-1.281c0.159,0.098-0.082,1.051-0.124,1.271c-0.073,0.389,0.413,0.773,0.724,0.421
			c0.527-0.599,1.101-1.141,1.656-1.713c0.372-0.382,0.114-0.305,0.118-0.327c-0.071,0.29-0.225,0.574-0.351,0.845
			c-0.159,0.337-0.336,0.664-0.518,0.987c-0.233,0.413,0.351,0.911,0.68,0.524c0.231-0.272,0.474-0.537,0.734-0.781
			c0.5-0.463,1.112-1.191,0.48-0.187c-0.434,0.691-0.972,1.328-1.511,1.939c-0.367,0.416,0.243,1.032,0.613,0.613
			c0.246-0.276,1.228-1.533,1.567-1.477c0.176,0.03-1.512,1.579-1.775,1.746c-0.392,0.251-0.148,0.973,0.333,0.792
			c0.142-0.052,0.338-0.169,0.486-0.154c0.507,0.048,0.526-0.082,0.253,0.305c-0.204,0.286-0.98,0.48-1.286,0.598
			c-0.515,0.199-0.291,1.036,0.231,0.834c0.719-0.275,2.521-0.831,2.555-1.82c0.043-1.263-1.799-0.85-2.469-0.598
			c0.112,0.263,0.223,0.527,0.334,0.792c0.727-0.465,3.344-2.199,2.243-3.324c-0.907-0.93-2.573,1.115-3.086,1.692
			c0.204,0.204,0.409,0.408,0.613,0.613c0.587-0.667,2.52-2.491,2.096-3.502c-0.597-1.425-2.607,0.813-3.025,1.306
			c0.228,0.175,0.453,0.349,0.68,0.524c0.313-0.554,1.746-2.717,0.692-3.17c-0.923-0.398-2.467,1.774-2.956,2.329
			c0.242,0.14,0.483,0.28,0.725,0.42c0.148-0.792,0.506-2.475-0.704-2.62c-1.362-0.164-1.917,2.324-2.111,3.22
			c-0.069,0.329-0.048,0.871-0.206,1.162c-0.266,0.483,0.356-0.108-0.4,0.177c-1.034,0.389-2.088,0.728-3.135,1.082
			c-1.083,0.366-2.167,0.725-3.242,1.111c-0.247,0.086-0.494,0.177-0.738,0.269c-0.32,0.244-0.491,0.134-0.51-0.332
			c-0.489-0.51-0.784-1.503-1.071-2.14C8.567,47.319,7.821,47.76,8.048,48.264L8.048,48.264z"/>
	</g>
	<g>
		<path fill="#686869" d="M32.735,47.051c0.2,2.329-1.248,4.514-3.394,5.406c-1.309,0.543-2.653,0.673-3.952,0.053
			c-0.414-0.199-0.473-0.523-1.011-0.521c-2.206,0.014-0.521,2.381,0.245,2.974c0.174-0.228,0.349-0.454,0.524-0.681
			c-0.757-0.331-3.074-1.536-3.728-0.522c-0.7,1.087,1.671,2.195,2.339,2.536c0.113-0.263,0.223-0.527,0.334-0.792
			c-0.698-0.094-2.883-0.624-3.095,0.44c-0.028,0.142-0.009,0.318,0.112,0.42c0.661,0.554,1.633,0.678,2.437,0.927
			c0.037-0.284,0.075-0.568,0.114-0.851c-0.723,0.097-2.688,0.244-2.661,1.302c0.032,1.206,2.268,0.926,2.978,0.832
			c-0.074-0.268-0.146-0.538-0.22-0.806c-0.514,0.379-1.315,1.28-0.721,1.948c0.556,0.623,1.413-0.071,1.892-0.439
			c0.174-0.133,1.228-0.874,0.654-0.702c0.252-0.075,0.677,0.028,0.941,0.032c1.379,0.02,2.766-0.054,4.133-0.242
			c2.987-0.413,5.881-1.401,7.242-4.299c0.948-2.018,1.241-4.479,1.085-6.698c-0.039-0.553-0.904-0.557-0.867,0
			c0.106,1.5-0.024,3.062-0.38,4.519c-0.726,2.971-2.555,4.604-5.484,5.309c-2.074,0.5-4.089,0.39-6.183,0.534
			c-0.348,0.024-0.504-0.046-0.816,0.106c-0.203,0.098-0.417,0.396-0.586,0.539c-0.338,0.286-1.22,0.691-0.474,0.141
			c0.297-0.22,0.26-0.871-0.218-0.808c-0.484,0.063-1.347,0.263-1.778,0.055c-0.519-0.249,0.318-0.226,0.67-0.31
			c0.26-0.064,0.526-0.111,0.79-0.146c0.461-0.062,0.617-0.696,0.115-0.851c-0.295-0.091-0.605-0.222-0.911-0.271
			c-0.163-0.028-0.952-0.061-0.429,0.034c0.459,0.086,0.959,0.058,1.427,0.121c0.44,0.061,0.814-0.546,0.333-0.792
			c-0.286-0.146-2.003-1.094-1.898-1.268c0.143-0.232,2.14,0.631,2.411,0.749c0.404,0.176,0.949-0.351,0.525-0.68
			c-0.34-0.263-0.878-0.546-0.613-0.962c0.245-0.38,0.521,0.166,0.949,0.323c1.175,0.433,3.005,0.022,4.112-0.441
			c2.442-1.023,4.145-3.566,3.917-6.219C33.552,46.501,32.686,46.496,32.735,47.051L32.735,47.051z"/>
	</g>
	<g>
		<path fill="#686869" d="M7.213,57.859c-0.358,1.304-0.559,2.627-0.612,3.977c-0.022,0.558,0.844,0.557,0.867,0
			c0.048-1.274,0.243-2.517,0.58-3.747C8.195,57.55,7.361,57.322,7.213,57.859L7.213,57.859z"/>
	</g>
	<g>
		<path fill="#686869" d="M5.823,55.333c0.216,0.258,0.485,0.473,0.782,0.631c0.494,0.26,0.932-0.487,0.439-0.749
			c-0.242-0.126-0.433-0.286-0.608-0.495c-0.151-0.18-0.459-0.155-0.613,0C5.645,54.897,5.673,55.152,5.823,55.333L5.823,55.333z"/>
	</g>
	<g>
		<path fill="#686869" d="M32.237,57.84c0.279,1.852,0.432,3.789,0.903,5.602c0.141,0.54,0.976,0.312,0.836-0.229
			c-0.472-1.813-0.625-3.752-0.903-5.604C32.99,57.06,32.153,57.294,32.237,57.84L32.237,57.84z"/>
	</g>
	<g>
		<path fill="#686869" d="M13.101,62.82c0.346-1.783,0.651-3.574,0.913-5.372c-0.139,0.107-0.279,0.212-0.418,0.317
			c1.775-0.091,3.547-0.25,5.313-0.458c0.547-0.065,0.554-0.932,0-0.867c-1.765,0.21-3.537,0.369-5.313,0.46
			c-0.171,0.008-0.389,0.126-0.417,0.316c-0.264,1.8-0.568,3.591-0.915,5.374C12.161,63.135,12.995,63.369,13.101,62.82
			L13.101,62.82z"/>
	</g>
	<g>
		<path fill="#686869" d="M26.038,58.304c0.365,1.573,0.074,3.201,0.412,4.781c0.115,0.546,0.951,0.315,0.834-0.229
			c-0.336-1.58-0.044-3.203-0.412-4.782C26.746,57.531,25.912,57.761,26.038,58.304L26.038,58.304z"/>
	</g>
	<g>
		<path fill="#686869" d="M17.725,54.279c0.411,0.923,0.821,1.849,1.23,2.774c0.309,0.694,0.565,1.412,1.095,1.97
			c0.126,0.131,0.371,0.17,0.526,0.067c0.365-0.241,0.726-0.436,1.137-0.591c0.518-0.195,0.294-1.032-0.228-0.835
			c-0.481,0.18-0.919,0.396-1.348,0.679c0.175,0.023,0.349,0.044,0.525,0.067c-0.542-0.57-0.79-1.415-1.104-2.12
			c-0.362-0.817-0.725-1.633-1.087-2.449C18.247,53.331,17.501,53.772,17.725,54.279L17.725,54.279z"/>
	</g>
	<g>
		<path fill="#686869" d="M15.341,44.047c0.34,1.413,0.778,2.789,1.315,4.139c0.204,0.511,1.042,0.289,0.835-0.231
			c-0.538-1.35-0.975-2.726-1.316-4.138C16.045,43.275,15.211,43.505,15.341,44.047L15.341,44.047z"/>
	</g>
	<g>
		<path fill="#686869" d="M18.881,53.286c0.558,1.706,1.21,3.374,1.95,5.01c0.228,0.507,0.976,0.068,0.747-0.437
			c-0.708-1.568-1.326-3.167-1.862-4.803C19.543,52.529,18.708,52.754,18.881,53.286L18.881,53.286z"/>
	</g>
	<g>
		<path fill="#686869" d="M8.472,17.288c-1.341-0.31-2.394,0.589-2.351,1.963c0.044,1.36,1.153,2.123,2.447,1.92
			c0.549-0.085,0.315-0.92-0.229-0.836c0.172-0.026-0.095,0.005-0.152,0.005c-0.136-0.003-0.268-0.006-0.402-0.038
			c-0.534-0.12-0.775-0.515-0.797-1.052c-0.034-0.832,0.512-1.3,1.253-1.128C8.783,18.249,9.016,17.413,8.472,17.288L8.472,17.288z"
			/>
	</g>
	<g>
		<path fill="#686869" d="M7.963,17.705c-0.197-1.596-0.295-3.212-0.297-4.819c-0.003-1.263,0.025-2.573,0.319-3.806
			c0.247-1.026,1.527-3.622,2.697-2.279c0.2,0.229,0.676,0.126,0.725-0.191c0.193-1.274,0.812-2.553,1.646-3.527
			c2.438-2.843,6.571-2.47,9.824-1.495c3.208,0.962,6.045,3.136,6.82,6.528c0.721,3.148,0.272,6.91-0.256,10.077
			c-0.09,0.546,0.745,0.781,0.836,0.23c0.581-3.483,1.143-7.669,0.109-11.099c-1.025-3.403-3.982-5.584-7.279-6.572
			c-3.299-0.989-7.389-1.354-10.115,1.152c-1.23,1.133-2.167,2.808-2.42,4.475c0.241-0.063,0.483-0.127,0.723-0.191
			C9.322,3.923,7.326,7.802,7.043,9.413c-0.477,2.697-0.28,5.585,0.055,8.292C7.165,18.251,8.033,18.259,7.963,17.705L7.963,17.705z
			"/>
	</g>
	<g>
		<path fill="#686869" d="M8.355,16.376c1.036-0.781,1.126-2.377,1.164-3.544c-0.282,0.039-0.566,0.078-0.851,0.115
			c0.147,0.79,0.961,4.888,2.275,2.976c0.669-0.977,0.809-2.627,1.059-3.753c0.243-1.11,0.467-2.224,0.671-3.341
			c-0.278,0-0.557,0-0.835,0c0.566,1.491,1.684,4.833,3.569,5.065c2.112,0.262,2.132-3.229,2.035-4.547
			c-0.269,0.074-0.538,0.146-0.808,0.218c0.876,1.552,1.96,4.036,3.521,5.008c1.825,1.135,1.83-1.947,1.722-3.008
			c-0.269,0.073-0.538,0.146-0.806,0.218c0.527,0.874,1.592,3.16,2.722,3.348c1.295,0.213,1.032-1.888,0.935-2.616
			c-0.283,0.039-0.566,0.078-0.851,0.117c0.399,1.076,1.072,3.379,2.327,3.742c1.409,0.407,1.678-1.647,1.693-2.591
			c-0.29,0-0.577,0-0.867,0c0.041,1.163,0.253,2.339,0.874,3.337c0.294,0.472,1.043,0.038,0.749-0.438
			c-0.54-0.867-0.722-1.889-0.757-2.899c-0.02-0.556-0.859-0.56-0.867,0c-0.018,1.121-0.507,2.174-1.336,0.773
			c-0.398-0.678-0.709-1.419-0.982-2.155c-0.154-0.418-0.919-0.405-0.851,0.115c0.095,0.727,0.365,2.024-0.517,1.09
			c-0.604-0.637-1.074-1.508-1.528-2.258c-0.207-0.342-0.853-0.23-0.807,0.218c0.045,0.456,0.233,1.594-0.032,1.997
			c-0.413,0.629-0.331,0.192-0.76-0.132c-0.345-0.259-0.62-0.783-0.869-1.139c-0.711-1.016-1.358-2.084-1.967-3.163
			c-0.204-0.359-0.841-0.219-0.808,0.219c0.08,1.058-0.142,4.949-1.849,3.082c-0.949-1.036-1.56-2.534-2.053-3.831
			c-0.135-0.357-0.75-0.463-0.835,0c-0.305,1.665-0.638,3.332-1.054,4.972c-0.119,0.465-0.241,0.93-0.39,1.386
			c-0.226,0.688-0.064,0.702-0.251,0.178c-0.283-0.786-0.485-1.594-0.638-2.416c-0.092-0.496-0.834-0.356-0.852,0.114
			c-0.024,0.738-0.02,2.257-0.735,2.795C7.477,15.958,7.909,16.711,8.355,16.376L8.355,16.376z"/>
	</g>
	<path fill="#686869" d="M13.84,17.903c0,0.525-0.427,0.949-0.95,0.949c-0.526,0-0.953-0.425-0.953-0.949
		c0-0.525,0.427-0.952,0.953-0.952C13.414,16.951,13.84,17.378,13.84,17.903z"/>
	<path fill="#686869" d="M24.771,18.377c0,0.525-0.427,0.95-0.95,0.95c-0.526,0-0.951-0.425-0.951-0.95
		c0-0.524,0.425-0.951,0.951-0.951C24.344,17.427,24.771,17.853,24.771,18.377z"/>
	<g>
		<path fill="#686869" d="M12.006,16.702c0.435-0.418,1.076-0.497,1.602-0.2c0.487,0.273,0.923-0.474,0.438-0.748
			c-0.866-0.49-1.936-0.351-2.653,0.336C10.99,16.476,11.602,17.088,12.006,16.702L12.006,16.702z"/>
	</g>
	<g>
		<path fill="#686869" d="M23.207,16.879c0.497-0.338,1.399-0.552,1.644,0.207c0.171,0.527,1.008,0.301,0.836-0.231
			c-0.419-1.292-1.913-1.406-2.917-0.725C22.311,16.442,22.744,17.193,23.207,16.879L23.207,16.879z"/>
	</g>
	<g>
		<path fill="#686869" d="M16.139,19.549c-0.146,1.507,0.106,3.677,2.092,3.67c1.728-0.006,2.461-1.506,2.713-2.988
			c0.091-0.545-0.743-0.78-0.836-0.231c-0.166,0.982-0.431,2.072-1.555,2.318c-1.685,0.368-1.651-1.709-1.549-2.769
			C17.059,18.993,16.194,18.997,16.139,19.549L16.139,19.549z"/>
	</g>
	<g>
		<path fill="#686869" d="M26.59,5.675c0.388,0.271,0.656,0.663,0.787,1.115c0.107,0.372,0.69,0.213,0.583-0.16
			c-0.177-0.61-0.547-1.112-1.065-1.474C26.575,4.932,26.274,5.454,26.59,5.675L26.59,5.675z"/>
	</g>
	<g>
		<path fill="#686869" d="M27.863,8.529c0.11,0.421,0.22,0.843,0.33,1.265c0.098,0.375,0.679,0.215,0.582-0.161
			c-0.11-0.421-0.222-0.842-0.33-1.264C28.346,7.993,27.765,8.152,27.863,8.529L27.863,8.529z"/>
	</g>
	<g>
		<path fill="#686869" d="M25.982,7.392c0.199,0.358,0.378,0.726,0.542,1.102c0.064,0.152,0.282,0.181,0.41,0.109
			c0.156-0.089,0.172-0.264,0.107-0.412c-0.162-0.377-0.341-0.744-0.539-1.104C26.314,6.748,25.794,7.051,25.982,7.392L25.982,7.392
			z"/>
	</g>
</g>
</svg>
