<?xml version="1.0" encoding="utf-8"?>
<!-- Generator: Adobe Illustrator 22.0.1, SVG Export Plug-In . SVG Version: 6.00 Build 0)  -->
<svg version="1.1" id="排版" xmlns="http://www.w3.org/2000/svg" xmlns:xlink="http://www.w3.org/1999/xlink" x="0px" y="0px"
	 viewBox="0 0 126.677 113.432" enable-background="new 0 0 126.677 113.432" xml:space="preserve">
<g>
	<g>
		<g>
			<g>
				<path fill="#8DB12B" d="M30.422,43.054c0,2.954-2.395,5.347-5.348,5.347s-5.347-2.394-5.347-5.347
					c0-2.953,2.394-5.347,5.347-5.347C28.028,37.706,30.422,40.101,30.422,43.054z"/>
				<path fill="#8DB12B" d="M24.101,46.968c0,0-2.389,14.995,0.147,21.609c0,0,1.323,4.962,6.394,6.615c0,0,2.096,0.442,3.033-0.496
					c0,0,1.017-1.152-0.104-2.718c0,0-0.151-0.165-0.321-0.26c-0.082-0.045-0.243-0.086-0.356-0.162
					c-1.795-1.196-7.323-6.168-7.507-26.463L24.101,46.968z"/>
				<path fill="#8DB12B" d="M39.022,53.858c1.516-0.331,2.846-0.351,3.445,0.248c0,0,1.599,1.626-1.378,3.418
					c0,0-2.784,1.984-8.765-1.544c0,0-4.282-2.669-5.393-4.684c0,0-0.306-0.546,0.337-0.566c0,0,0.246-0.004,0.619,0.169
					c0,0,4.29,2.781,9.203,3.001C37.089,53.901,38.452,53.983,39.022,53.858z"/>
				<path fill="#8DB12B" d="M13.967,64.664c0,0-4.649-4.337,3.629-10.97c0,0,4.41-3.639,4.851-2.903c0,0,0.147,0.34-1.341,2.324
					c0,0-4.713,5.844-4.741,8.187c-0.027,2.343,0.317,3.161-0.689,3.859C14.987,65.637,13.967,64.664,13.967,64.664z"/>
				<g>
					<g>
						<g>
							<defs>
								<path id="SVGID_1_" d="M24.101,46.968c0,0-2.389,14.995,0.147,21.609c0,0,1.323,4.962,6.394,6.615
									c0,0,2.096,0.442,3.033-0.496c0,0,1.017-1.152-0.104-2.718c0,0-0.151-0.165-0.321-0.26
									c-0.082-0.045-0.243-0.086-0.356-0.162c-1.795-1.196-7.323-6.168-7.507-26.463L24.101,46.968z"/>
							</defs>
							<clipPath id="SVGID_2_">
								<use xlink:href="#SVGID_1_"  overflow="visible"/>
							</clipPath>
							<rect x="19.691" y="65.711" clip-path="url(#SVGID_2_)" fill="#27883B" width="20.434" height="14.994"/>
						</g>
					</g>
				</g>
			</g>
			<g>
				<path fill="#268BBF" d="M74.082,10.584c0,5.846-4.739,10.584-10.584,10.584c-5.846,0-10.585-4.739-10.585-10.584
					C52.913,4.738,57.652,0,63.498,0C69.343,0,74.082,4.739,74.082,10.584z"/>
				<path fill="#268BBF" d="M65.262,19.846c0,0,2.647,12.348,3.528,25.579c0,0-0.414,17.585-5.982,23.649
					c0,0-2.398,3.583-0.193,6.34c0,0,1.764,2.646,7.939-0.882c0,0,9.096-4.245,7.332-18.357c0,0-2.922-29.272-11.742-39.856
					L65.262,19.846z"/>
				<path fill="#268BBF" d="M63.461,27.306c0,0,0.441-0.809,1.102-0.331c0,0,0.147-0.257-0.147,1.727c0,0-1.58,15.913-10.621,22.455
					c0,0-7.13,4.631-10.952-0.367c0,0-1.47-2.426,2.646-4.263C45.49,46.527,54.163,43.219,63.461,27.306z"/>
				<path fill="#268BBF" d="M72.465,24.881c0,0-1.048-0.809,1.562-0.405c0,0,14.314,2.426,21.15,13.157c0,0,3.16,5.439-0.735,9.996
					c0,0-3.014,2.94-4.63-0.735c0,0-1.837-7.35-5.88-11.466C83.931,35.428,76.655,27.71,72.465,24.881z"/>
				<g>
					<g>
						<g>
							<defs>
								<path id="SVGID_3_" d="M65.262,19.846c0,0,2.647,12.348,3.528,25.579c0,0-0.414,17.585-5.982,23.649
									c0,0-2.398,3.583-0.193,6.34c0,0,1.764,2.646,7.939-0.882c0,0,9.096-4.245,7.332-18.357c0,0-2.922-29.272-11.742-39.856
									L65.262,19.846z"/>
							</defs>
							<clipPath id="SVGID_4_">
								<use xlink:href="#SVGID_3_"  overflow="visible"/>
							</clipPath>
							<rect x="58.059" y="65.711" clip-path="url(#SVGID_4_)" fill="#2079B1" width="20.434" height="14.994"/>
						</g>
					</g>
				</g>
			</g>
		</g>
		<text transform="matrix(1 0 0 1 -3.051758e-05 93.2523)" fill="#268BBF" font-family="'TimesNewRomanPSMT'" font-size="12px">Mango International</text>
		<text transform="matrix(1 0 0 1 20 109.7523)" fill="#8DB12B" font-family="'TimesNewRomanPSMT'" font-size="12px">Infant Daycare Center</text>
	</g>
</g>
</svg>
