<?xml version="1.0" encoding="utf-8"?>
<!-- Generator: Adobe Illustrator 22.0.1, SVG Export Plug-In . SVG Version: 6.00 Build 0)  -->
<svg version="1.1" id="排版" xmlns="http://www.w3.org/2000/svg" xmlns:xlink="http://www.w3.org/1999/xlink" x="0px" y="0px"
	 viewBox="0 0 189.5 169" style="enable-background:new 0 0 189.5 169;" xml:space="preserve">
<style type="text/css">
	.st0{fill:#D2F9F6;}
	.st1{fill:#FFF3DE;}
	.st2{fill:none;}
	.st3{fill:#FFEBC2;}
	.st4{fill:#FFC789;}
	.st5{fill:#FCB465;}
	.st6{fill:#FFD8D8;}
	.st7{fill:#FFFFFF;}
	.st8{fill:#C8E3E4;}
	.st9{fill:#A3DBDC;}
	.st10{fill:#49C0C4;}
	.st11{fill:#D6FFB4;}
	.st12{fill:#C7FF8F;}
	.st13{fill:#80AF44;}
	.st14{fill:#FFAFAF;}
	.st15{fill:#FF8686;}
	.st16{fill:#AFFF64;}
	.st17{fill:#80B797;}
	.st18{fill:none;stroke:#FFFFFF;stroke-miterlimit:10;}
	.st19{fill:#5B5B5B;}
	.st20{fill:none;stroke:#686868;stroke-miterlimit:10;}
	.st21{fill:none;stroke:#5B5B5B;stroke-width:1.0299;stroke-miterlimit:10;}
	.st22{fill:#3E3A39;}
	.st23{fill:#BAFFFF;}
	.st24{fill:#8DB12B;}
	.st25{clip-path:url(#SVGID_2_);fill:#27883B;}
	.st26{fill:#268BBF;}
	.st27{clip-path:url(#SVGID_4_);fill:#2079B1;}
	.st28{opacity:0.4;fill:#FFFDF0;}
	.st29{opacity:0.2;fill:#FFFDF0;}
	.st30{fill:#FFFFDC;}
	.st31{fill:none;stroke:#000000;stroke-width:2;stroke-miterlimit:10;}
	.st32{fill:none;stroke:#3E3A39;stroke-miterlimit:10;}
	.st33{fill:none;stroke:#3E3A39;stroke-width:0.9901;stroke-miterlimit:10;}
	.st34{fill:#F7EED2;}
	.st35{fill:#231815;}
	.st36{fill:#DCF4D3;}
	.st37{fill:none;stroke:#3E3A39;stroke-width:0.9647;stroke-miterlimit:10;}
	.st38{fill:none;stroke:#FFFCD2;stroke-width:1.8511;stroke-miterlimit:10;}
	.st39{fill:#5CE0DE;}
	.st40{fill:none;stroke:#FFFFFF;stroke-width:1.4151;stroke-miterlimit:10;}
	.st41{clip-path:url(#SVGID_40_);fill:#27883B;}
	.st42{clip-path:url(#SVGID_42_);fill:#2079B1;}
	.st43{fill:#686869;}
	.st44{fill:#686868;}
	.st45{clip-path:url(#SVGID_44_);fill:#27883B;}
	.st46{clip-path:url(#SVGID_46_);fill:#2079B1;}
	.st47{fill:#FFEAD9;}
	.st48{fill:#D7FFFC;}
	.st49{fill:#E1FFF0;}
	.st50{fill:#FFE3E8;}
	.st51{fill:#E1EDFF;}
	.st52{fill:#99D603;}
	.st53{fill:#49AAD6;}
	.st54{fill:#68C100;}
	.st55{fill:#22B71A;}
	.st56{fill:#FFAC92;}
	.st57{opacity:0.6;fill:url(#SVGID_47_);}
	.st58{fill:#1D8BBC;}
	.st59{opacity:0.6;fill:url(#SVGID_48_);}
	.st60{clip-path:url(#SVGID_50_);fill:#27883B;}
	.st61{clip-path:url(#SVGID_52_);fill:#2079B1;}
	.st62{opacity:0.6;fill:url(#SVGID_53_);}
	.st63{opacity:0.6;fill:url(#SVGID_54_);}
	.st64{clip-path:url(#SVGID_56_);fill:#27883B;}
	.st65{clip-path:url(#SVGID_58_);fill:#2079B1;}
	.st66{opacity:0.6;fill:url(#SVGID_59_);}
	.st67{opacity:0.6;fill:url(#SVGID_60_);}
	.st68{clip-path:url(#SVGID_62_);fill:#27883B;}
	.st69{clip-path:url(#SVGID_64_);fill:#2079B1;}
	.st70{fill:none;stroke:#5B5B5B;stroke-width:1.2999;stroke-miterlimit:10;}
	.st71{opacity:0.6;fill:#FFFFFF;}
	.st72{clip-path:url(#SVGID_72_);fill:#27883B;}
	.st73{clip-path:url(#SVGID_74_);fill:#2079B1;}
	.st74{fill:#E4E3E4;}
	.st75{fill:#62E8E2;}
	.st76{fill:#FFEBD9;}
	.st77{fill:#FCD7A2;}
	.st78{fill:#FFC364;}
	.st79{clip-path:url(#SVGID_76_);fill:#27883B;}
	.st80{clip-path:url(#SVGID_78_);fill:#2079B1;}
	.st81{clip-path:url(#SVGID_80_);fill:#27883B;}
	.st82{clip-path:url(#SVGID_82_);fill:#2079B1;}
	.st83{clip-path:url(#SVGID_84_);}
	.st84{clip-path:url(#SVGID_86_);fill:#27883B;}
	.st85{clip-path:url(#SVGID_88_);fill:#2079B1;}
	.st86{clip-path:url(#SVGID_90_);fill:#27883B;}
	.st87{clip-path:url(#SVGID_92_);fill:#2079B1;}
	.st88{clip-path:url(#SVGID_94_);fill:#27883B;}
	.st89{clip-path:url(#SVGID_96_);fill:#2079B1;}
</style>
<path class="st8" d="M71.1,5.3c28.7-10.4,65-5.1,85.7,12.1c24.4,20.2,35.9,45,32.7,78.1c-1.4,14.7-9.4,32.3-20.5,43.3
	c-12.4,12.4-21.4,19-37.1,24.2c-14.4,4.8-17.7,4.8-32.7,6.3c-18.6,1.9-41.6-0.2-56.3-7.6C21.7,151.2,6,120.1,1.5,96
	c-3.7-19.8-1.1-44.4,15.1-60.5c13.9-13.9,30.5-21.5,50.6-29C67.2,6.6,68,6.4,71.1,5.3z"/>
<path class="st9" d="M74.5,16.7c24.5-8.9,55.7-4.3,73.4,10.4c20.9,17.3,30.8,38.6,28,66.9c-1.2,12.6-8.1,27.6-17.6,37.1
	c-10.7,10.7-18.3,16.2-31.8,20.8c-12.3,4.1-15.1,4.1-28,5.4c-15.9,1.6-35.6-0.1-48.3-6.5c-18-9.1-31.5-35.7-35.4-56.3
	c-3.2-17-0.9-38,12.9-51.8c11.9-11.9,26.2-18.4,43.4-24.8C71.2,17.9,71.9,17.7,74.5,16.7z"/>
<path class="st10" d="M76.3,22.6c22.4-8.2,50.9-4,67.1,9.5c19.1,15.8,28.1,35.3,25.6,61.1c-1.1,11.5-7.4,25.3-16,33.9
	c-9.7,9.7-16.7,14.8-29.1,19c-11.2,3.8-13.8,3.7-25.6,4.9c-14.5,1.5-32.5-0.1-44.1-5.9c-16.5-8.3-28.8-32.6-32.3-51.4
	c-2.9-15.5-0.8-34.7,11.8-47.3c10.9-10.9,23.9-16.8,39.6-22.7C73.2,23.6,73.9,23.5,76.3,22.6z"/>
</svg>
