<?xml version="1.0" encoding="utf-8"?>
<!-- Generator: Adobe Illustrator 22.0.1, SVG Export Plug-In . SVG Version: 6.00 Build 0)  -->
<svg version="1.1" id="排版" xmlns="http://www.w3.org/2000/svg" xmlns:xlink="http://www.w3.org/1999/xlink" x="0px" y="0px"
	 viewBox="0 0 196 171.9" style="enable-background:new 0 0 196 171.9;" xml:space="preserve">
<style type="text/css">
	.st0{fill:#D2F9F6;}
	.st1{fill:#FFF3DE;}
	.st2{fill:none;}
	.st3{fill:#FFEBC2;}
	.st4{fill:#FFC789;}
	.st5{fill:#FCB465;}
	.st6{fill:#FFD8D8;}
	.st7{fill:#FFFFFF;}
	.st8{fill:#C8E3E4;}
	.st9{fill:#A3DBDC;}
	.st10{fill:#49C0C4;}
	.st11{fill:#D6FFB4;}
	.st12{fill:#C7FF8F;}
	.st13{fill:#80AF44;}
	.st14{fill:#FFAFAF;}
	.st15{fill:#FF8686;}
	.st16{fill:#AFFF64;}
	.st17{fill:#80B797;}
	.st18{fill:none;stroke:#FFFFFF;stroke-miterlimit:10;}
	.st19{fill:#5B5B5B;}
	.st20{fill:none;stroke:#686868;stroke-miterlimit:10;}
	.st21{fill:none;stroke:#5B5B5B;stroke-width:1.0299;stroke-miterlimit:10;}
	.st22{fill:#3E3A39;}
	.st23{fill:#BAFFFF;}
	.st24{fill:#8DB12B;}
	.st25{clip-path:url(#SVGID_2_);fill:#27883B;}
	.st26{fill:#268BBF;}
	.st27{clip-path:url(#SVGID_4_);fill:#2079B1;}
	.st28{opacity:0.4;fill:#FFFDF0;}
	.st29{opacity:0.2;fill:#FFFDF0;}
	.st30{fill:#FFFFDC;}
	.st31{fill:none;stroke:#000000;stroke-width:2;stroke-miterlimit:10;}
	.st32{fill:none;stroke:#3E3A39;stroke-miterlimit:10;}
	.st33{fill:none;stroke:#3E3A39;stroke-width:0.9901;stroke-miterlimit:10;}
	.st34{fill:#F7EED2;}
	.st35{fill:#231815;}
	.st36{fill:#DCF4D3;}
	.st37{fill:none;stroke:#3E3A39;stroke-width:0.9647;stroke-miterlimit:10;}
	.st38{fill:none;stroke:#FFFCD2;stroke-width:1.8511;stroke-miterlimit:10;}
	.st39{fill:#5CE0DE;}
	.st40{fill:none;stroke:#FFFFFF;stroke-width:1.4151;stroke-miterlimit:10;}
	.st41{clip-path:url(#SVGID_40_);fill:#27883B;}
	.st42{clip-path:url(#SVGID_42_);fill:#2079B1;}
	.st43{fill:#686869;}
	.st44{fill:#686868;}
	.st45{clip-path:url(#SVGID_44_);fill:#27883B;}
	.st46{clip-path:url(#SVGID_46_);fill:#2079B1;}
	.st47{fill:#FFEAD9;}
	.st48{fill:#D7FFFC;}
	.st49{fill:#E1FFF0;}
	.st50{fill:#FFE3E8;}
	.st51{fill:#E1EDFF;}
	.st52{fill:#99D603;}
	.st53{fill:#49AAD6;}
	.st54{fill:#68C100;}
	.st55{fill:#22B71A;}
	.st56{fill:#FFAC92;}
	.st57{opacity:0.6;fill:url(#SVGID_47_);}
	.st58{fill:#1D8BBC;}
	.st59{opacity:0.6;fill:url(#SVGID_48_);}
	.st60{clip-path:url(#SVGID_50_);fill:#27883B;}
	.st61{clip-path:url(#SVGID_52_);fill:#2079B1;}
	.st62{opacity:0.6;fill:url(#SVGID_53_);}
	.st63{opacity:0.6;fill:url(#SVGID_54_);}
	.st64{clip-path:url(#SVGID_56_);fill:#27883B;}
	.st65{clip-path:url(#SVGID_58_);fill:#2079B1;}
	.st66{opacity:0.6;fill:url(#SVGID_59_);}
	.st67{opacity:0.6;fill:url(#SVGID_60_);}
	.st68{clip-path:url(#SVGID_62_);fill:#27883B;}
	.st69{clip-path:url(#SVGID_64_);fill:#2079B1;}
	.st70{fill:none;stroke:#5B5B5B;stroke-width:1.2999;stroke-miterlimit:10;}
	.st71{opacity:0.6;fill:#FFFFFF;}
	.st72{clip-path:url(#SVGID_72_);fill:#27883B;}
	.st73{clip-path:url(#SVGID_74_);fill:#2079B1;}
	.st74{fill:#E4E3E4;}
	.st75{fill:#62E8E2;}
	.st76{fill:#FFEBD9;}
	.st77{fill:#FCD7A2;}
	.st78{fill:#FFC364;}
	.st79{clip-path:url(#SVGID_76_);fill:#27883B;}
	.st80{clip-path:url(#SVGID_78_);fill:#2079B1;}
	.st81{clip-path:url(#SVGID_80_);fill:#27883B;}
	.st82{clip-path:url(#SVGID_82_);fill:#2079B1;}
	.st83{clip-path:url(#SVGID_84_);}
	.st84{clip-path:url(#SVGID_86_);fill:#27883B;}
	.st85{clip-path:url(#SVGID_88_);fill:#2079B1;}
	.st86{clip-path:url(#SVGID_90_);fill:#27883B;}
	.st87{clip-path:url(#SVGID_92_);fill:#2079B1;}
	.st88{clip-path:url(#SVGID_94_);fill:#27883B;}
	.st89{clip-path:url(#SVGID_96_);fill:#2079B1;}
</style>
<path class="st3" d="M72.9,6.6c29.4-10.4,66.7-5.1,88,12.1c25,20.2,36.9,45,33.6,78.1c-1.5,14.7-9.7,32.3-21,43.3
	c-12.8,12.4-21.9,19-38.1,24.2c-14.7,4.8-18.1,4.8-33.6,6.3c-19.1,1.9-42.6-0.2-57.8-7.6C22.3,152.5,6.1,121.4,1.5,97.3
	C-2.3,77.5,0.4,52.9,17,36.9c14.3-13.9,31.3-21.5,52-29C68.9,7.9,69.8,7.7,72.9,6.6z"/>
<path class="st4" d="M76.5,18c25.2-8.9,57.1-4.3,75.4,10.4c21.4,17.3,31.6,38.6,28.7,66.9c-1.3,12.6-8.3,27.6-18,37.1
	c-10.9,10.7-18.8,16.2-32.7,20.8c-12.6,4.1-15.5,4.1-28.8,5.4c-16.3,1.6-36.5-0.1-49.5-6.5c-18.5-9.1-32.4-35.7-36.3-56.3
	c-3.3-17-0.9-38,13.3-51.8C40.8,32.1,55.4,25.5,73,19.1C73,19.1,73.8,18.9,76.5,18z"/>
<path class="st5" d="M78.3,23.9c23-8.2,52.2-4,68.9,9.5c19.6,15.8,28.9,35.3,26.3,61.1c-1.2,11.5-7.6,25.3-16.5,33.9
	c-10,9.7-17.2,14.8-29.8,19c-11.5,3.8-14.2,3.7-26.3,4.9c-14.9,1.5-33.4-0.1-45.3-5.9c-16.9-8.3-29.6-32.6-33.2-51.4
	c-3-15.5-0.9-34.7,12.1-47.3C45.6,36.7,59,30.8,75.1,24.9C75.1,24.9,75.8,24.7,78.3,23.9z"/>
</svg>
