<?xml version="1.0" encoding="utf-8"?>
<!-- Generator: Adobe Illustrator 22.0.1, SVG Export Plug-In . SVG Version: 6.00 Build 0)  -->
<svg version="1.1" id="排版" xmlns="http://www.w3.org/2000/svg" xmlns:xlink="http://www.w3.org/1999/xlink" x="0px" y="0px"
	 viewBox="0 0 39.287 63.757" enable-background="new 0 0 39.287 63.757" xml:space="preserve">
<g>
	<path fill="#FFFFFF" d="M24.16,17.092c0.201-0.05,0.239-0.332,0.057-0.432c-0.494-0.274-1.112-0.361-1.518-0.75
		c-0.374-0.359-0.54-1.035-0.854-0.939c-0.501,0.152-0.295,0.775-0.09,1.019c0.51,0.604,1.196,0.977,1.979,1.101
		C23.861,17.11,24.012,17.13,24.16,17.092z"/>
	<path fill="#FFFFFF" d="M29.655,18.391c-0.34,0.571,0.994,0.89,1.957,0.825c0.348-0.022,1.705-0.29,1.311-0.656
		c-0.353-0.099-1.172,0.08-1.708,0.084C30.407,18.653,29.738,18.251,29.655,18.391z"/>
	<path fill="#FFFFFF" d="M34.165,25.882c0.295-0.404,0.593-0.507,1.027-0.441c1.315,0.203,2.282-0.374,3.042-1.383
		c1.179-1.559,0.694-3.177-1.055-3.788c0.246-2.096,0.479-4.161-0.076-6.229c-0.582-2.169-2.214-3.518-3.827-4.852
		c1.189-2.381,0.189-4.441-1.822-5.15c-1.183-0.419-2.315-0.015-2.812,0.979c-0.245,0.487-0.262,0.947,0.089,1.377
		c0.352,0.432,1.052,0.609,1.562,0.435c0.399-0.136,0.689-0.346,0.659-0.817c-0.032-0.482-0.247-1.047-0.733-0.893
		c-0.295,0.094-0.005,0.464,0.118,0.694c0.083,0.147,0.024,0.33-0.12,0.414c-0.562,0.315-0.872,0.088-1.146-0.196
		c-0.395-0.416-0.099-0.857,0.1-1.149c0.205-0.299,0.664-0.403,1.048-0.431c1.171-0.088,2.036,0.462,2.614,1.39
		c0.612,0.985,0.482,2.022-0.104,3.008c-3.009-1.847-6.251-2.089-9.533-1.332c-2.594,0.596-4.672,2.041-5.646,4.72
		c-0.196,0.543-0.361,1.122-0.713,1.606c-1.383-0.851-2.568-0.509-3.175,1.002c-0.519,1.295-0.519,3.241,1.25,4.544
		c0.386,0.283,0.498,0.567,0.53,1.068c0.113,1.754,1.042,3.305,1.345,3.941c-0.781,0.09-1.525-0.047-2.26,0.125
		c-1.747,0.408-3.204,1.373-4.632,2.392c-1.028,0.731-1.984,1.565-3.06,2.23c-1.048,0.649-2.165,0.982-3.443,0.722
		c-0.31-0.063-0.697-0.173-1.013-0.199c-0.457-0.035-0.882-0.046-1.206,0.411c-0.267,0.377,0.049,0.705,0.316,0.966
		c0.11,0.107,0.1,0.3-0.04,0.361c-0.832,0.358-1.073,0.455-1.041,1.461c0.037,1.147,0.52,2.084,1.532,2.633
		c0.867,0.47,1.62-0.165,3.6-0.37c1.625-0.169,2.984-0.66,4.645-0.66c-0.54,0.848-0.58,1.324-1.315,1.7
		c-1.272,0.651-2.501,1.37-3.578,2.322c-1.004,0.887-1.743,1.923-2.165,3.229c-0.607,1.883-0.662,3.645,0.385,5.421
		c0.778,1.324,1.578,2.63,2.433,3.908c0.514,0.769,0.733,1.57,0.417,2.486c-0.16,0.464-0.226,0.954-0.188,1.454
		c0.063,0.87,0.871,1.791,1.848,2.086c0.837,0.252,1.421,0.033,2.067-0.788c0.563-0.717,0.921-1.551,1.36-2.339
		c1.29-2.304,1.61-4.682,0.556-7.203c0.765-0.008,1.42,0.065,2.049,0.521c1.515,1.106,3.232,1.548,5.108,1.318
		c0.207,0.332,0.223,0.715,0.362,1.078c-1.879,1.31-3.351,2.94-4.285,5.025c-0.556,1.235-0.803,2.488-0.314,3.811
		c0.479,1.291,1.837,1.771,2.988,1.04c0.422-0.269,0.791-0.596,1.068-1.012c0.349-0.522,0.837-0.831,1.401-1.092
		c1.508-0.703,3.083-1.257,4.586-1.964c3.006-1.418,4.782-3.681,4.672-7.162c-0.045-1.465-0.335-2.878-0.776-4.267
		c-0.074-0.232-0.226-0.492-0.176-0.7c0.201-0.841,0.169-1.712,0.347-2.64c0.679,0.938,1.286,1.843,1.963,2.691
		c0.36,0.455,0.69,0.903,0.904,1.447c0.35,0.888,0.203,2.057,0.861,2.765c1.038,1.119,3.269,0.444,4.111-0.212
		c0.765-0.596,0.138-1.518,0.012-2.323c0.659,0.119,1.298-0.188,1.337-0.78c0.043-0.617-0.316-0.958-0.781-1.241
		c-0.399-0.242-0.786-0.503-1.203-0.705c-0.498-0.24-0.706-0.638-0.796-1.15c-0.336-1.91-0.682-3.816-1.025-5.723
		c-0.47-2.603-1.586-4.865-3.538-6.679C32.246,28.14,33.287,27.089,34.165,25.882z M37.71,21.483
		c0.347,0.455,0.454,0.962,0.221,1.535c-0.501,1.226-1.591,1.926-3.06,1.859c0.579-1.143,1.112-2.21,1.66-3.268
		C36.835,21.025,37.313,20.965,37.71,21.483z M15.688,18.085c-0.078,0.295-0.044,0.6-0.205,0.971c-1.255-0.7-1.475-1.8-1.431-3.029
		c0.022-0.628,0.229-1.174,0.662-1.625c0.479-0.496,1.252-0.531,1.67-0.044c0.352,0.407,0.139,0.903,0.007,1.317
		C16.136,16.475,15.897,17.275,15.688,18.085z M13.1,46.062c-0.473-0.065-0.891-0.21-1.331-0.18
		c-0.423,0.029-0.483-0.39-0.717-0.598c-0.193-0.171-0.341-0.513-0.665-0.307c-0.316,0.2-0.102,0.478-0.019,0.728
		c0.349,1.025,1.006,1.911,1.142,3.047c0.158,1.327-0.003,2.57-0.468,3.793c-0.408,1.073-0.879,2.12-1.464,3.113
		c-0.306,0.516-0.639,0.967-1.363,0.773c-0.699-0.193-1.32-0.821-1.383-1.464c-0.033-0.355-0.019-0.707,0.103-1.054
		c0.474-1.337,0.226-2.579-0.513-3.755c-0.888-1.414-1.786-2.821-2.607-4.278c-0.49-0.868-0.518-1.692-0.336-2.645
		c0.408-2.12,1.686-3.583,3.362-4.777c0.714-0.51,1.471-0.958,2.182-1.47c0.278-0.204,0.472-0.153,0.734-0.003
		c0.689,0.388,1.21,0.949,1.648,1.587c0.896,1.311,1.388,2.768,1.553,4.349C13.071,43.958,13.176,44.991,13.1,46.062z M10.02,35.968
		c0.063-0.601,0.735-0.655,0.975-0.642c2.433,0.195,4.781,0.712,7.052,1.636c3.275,1.332,6.532,2.698,9.54,4.581
		c0.658,0.412,0.655,0.417,0.681,1.009c-0.616-0.321-1.205-0.514-1.852-0.446c-0.377,0.04-0.668-0.114-0.989-0.303
		c-3.123-1.842-6.253-3.672-9.694-4.881C14.109,36.354,11.863,36.007,10.02,35.968z M18.231,47.847
		c-1.433-0.165-2.768-0.619-4.003-1.368c-0.234-0.142-0.463-0.239-0.39-0.616c0.287-1.489-0.024-2.957-0.263-4.413
		c-0.315-1.915-1.162-3.572-2.82-4.966c1.903,0,3.549,0.421,5.147,1.02c3.203,1.197,6.515,3.107,9.487,4.782
		c-0.072,0.094-0.513,0.046-0.555,0.057c-2.491,0.719-3.895,2.612-5.098,4.723C19.308,47.82,19.093,47.948,18.231,47.847z
		 M26.294,53.665c-1.074,0.942-2.386,1.421-3.676,1.937c-0.994,0.399-1.917,0.919-2.846,1.439c-0.485,0.267-0.882,0.628-1.205,1.094
		c-0.229,0.334-0.525,0.64-0.848,0.888c-0.844,0.655-2.007,0.199-2.163-0.852c-0.167-1.138,0.104-2.117,0.604-3.076
		c0.889-1.698,1.939-2.944,3.309-4.27c0.218-0.21,0.902-0.442,1.111-0.485c0.192-0.517-0.23-0.885-0.416-1.295
		c-0.303-0.675-0.183-1.208,0.237-1.791c0.623-0.867,1.178-1.781,1.918-2.563c1.199-1.266,2.72-1.773,4.403-1.924
		c0.371-0.033,0.712,0.09,1.036,0.212c0.409,0.153,0.178,0.582,0.255,0.88c0.43,1.647,0.699,3.317,0.662,5.032
		C28.631,50.867,27.737,52.393,26.294,53.665z M31.037,29.999c1.273,1.442,2.154,3.09,2.548,4.979
		c0.403,1.924,1.28,6.476,1.409,6.831c0.198,0.542,0.423,0.983,1.058,1.185c0.407,0.13,0.708,0.389,1.085,0.608
		c0.212,0.124,0.724,0.444,0.571,0.75c-0.089,0.176-0.38,0.469-0.92,0.218c-0.191-0.089-0.395,0.145-0.339,0.352
		c0.063,0.245,0.146,0.469,0.241,0.742c0.256,0.741,0.204,1.372-0.531,1.621c-1.216,0.412-2.694,0.58-3.133-0.378
		c-0.518-1.127-0.717-2.663-1.419-3.694c-0.706-1.037-1.421-2.248-2.195-3.232c-0.194-0.248-0.287-0.559-0.273-0.873
		c0.093-2.402-0.124-4.776-0.642-7.123c-0.043-0.196,0.003-0.375,0.078-0.562c0.095-0.234,0.196-0.742-0.167-0.681
		c-0.653,0.113-0.507,1.624-0.359,2.476c0.467,2.664,0.588,5.338,0.267,8.164c-2.609-2.03-5.502-3.298-8.436-4.48
		c-2.937-1.186-5.904-2.261-9.291-2.064c1.541-2.424,3.182-4.505,5.163-6.303c0.454-0.411,0.825-0.869,0.925-1.503
		c0.028-0.186,0.036-0.334-0.133-0.424c-0.198-0.109-0.319,0.048-0.376,0.198c-0.238,0.62-0.765,0.987-1.213,1.426
		c-1.502,1.464-2.788,3.112-3.886,4.887c-0.413,0.665-0.934,0.876-1.6,0.881c-1.173,0.011-5.274,0.499-5.926,0.821
		c-1.253,0.62-2.409-0.496-2.483-1.893c-0.015-0.293,0.006-0.631,0.176-0.881c0.153-0.23,0.451-0.232,0.66-0.38
		c0.158-0.111,0.247-0.306,0.228-0.5c-0.03-0.299-0.868-0.682-0.317-0.997c0.165-0.096,0.402-0.06,0.582-0.026
		c0.4,0.07,0.783,0.216,1.188,0.271c0.909,0.124,1.899,0.207,2.763-0.166c2.401-1.035,4.259-2.982,6.5-4.299
		c1.076-0.633,3.629-1.753,4.782-0.718c2.555,2.298,5.601,3.484,8.961,4.013c0.861,0.137,1.697,0.106,2.517-0.048
		C29.972,29.036,30.528,29.422,31.037,29.999z M28.526,28.556c-3.768,0.288-7.192-0.8-9.977-3.263
		c-1.816-1.61-2.929-4.047-2.231-6.828c0.548-2.191,1.455-4.298,2.066-6.467c0.231-0.817,0.786-1.39,1.419-1.949
		c1.501-1.33,3.259-1.977,5.267-2.177c2.434-0.246,4.678,0.163,6.787,1.378c0.094,0.054,0.171,0.137,0.313,0.255
		c-1.334,0.938-2.74,0.826-3.911-0.004c-0.503-0.358-0.346,0.372,0.474,0.872c0.839,0.512,1.669,0.674,2.595,0.302
		c0.502-0.203,0.993-0.432,1.443-0.792c1.882,1.334,3.54,2.803,3.879,5.253c0.217,1.586,0.367,3.249-0.183,4.717
		c-0.977,2.604-2.188,5.182-4.329,7.157C31.095,27.976,29.89,28.452,28.526,28.556z"/>
	<path fill="#FFFFFF" d="M25.217,21.654c-0.584,0.062-1.041,0.537-0.992,1.031c0.046,0.478,0.857,1.057,1.428,1.02
		c0.502-0.035,0.907-0.56,0.869-1.124C26.486,22.083,25.795,21.592,25.217,21.654z M25.515,23.173
		c-0.298-0.059-0.67-0.121-0.74-0.478c-0.046-0.23,0.109-0.364,0.271-0.46c0.098-0.058,0.214-0.068,0.318-0.03
		c0.268,0.1,0.534,0.243,0.539,0.604C25.907,23.065,25.746,23.222,25.515,23.173z"/>
	<path fill="#FFFFFF" d="M27.034,18.832c-0.5-0.309-1.254-0.348-1.568-0.004c-0.093,0.102-0.176,0.212-0.083,0.352
		c0.083,0.127,0.181,0.153,0.334,0.083c0.416-0.186,0.564-0.346,1.109-0.102c0.347,0.155,0.249,0.941,0.602,0.967
		C27.968,20.169,27.642,19.207,27.034,18.832z"/>
</g>
</svg>
