<?xml version="1.0" encoding="utf-8"?>
<!-- Generator: Adobe Illustrator 22.0.1, SVG Export Plug-In . SVG Version: 6.00 Build 0)  -->
<svg version="1.1" id="排版" xmlns="http://www.w3.org/2000/svg" xmlns:xlink="http://www.w3.org/1999/xlink" x="0px" y="0px"
	 viewBox="0 0 1923.8 950.7" style="enable-background:new 0 0 1923.8 950.7;" xml:space="preserve">
<style type="text/css">
	.st0{fill:#FFFFFF;}
	.st1{fill:#D2F9F6;}
	.st2{fill:#FFF3DE;}
	.st3{fill:none;}
	.st4{fill:#FFEBC2;}
	.st5{fill:#FFC789;}
	.st6{fill:#FCB465;}
	.st7{fill:#FFD8D8;}
	.st8{fill:#C8E3E4;}
	.st9{fill:#A3DBDC;}
	.st10{fill:#49C0C4;}
	.st11{fill:#D6FFB4;}
	.st12{fill:#C7FF8F;}
	.st13{fill:#80AF44;}
	.st14{fill:#FFAFAF;}
	.st15{fill:#FF8686;}
	.st16{fill:#AFFF64;}
	.st17{fill:#80B797;}
	.st18{fill:none;stroke:#FFFFFF;stroke-miterlimit:10;}
	.st19{fill:#5B5B5B;}
	.st20{fill:none;stroke:#686868;stroke-miterlimit:10;}
	.st21{fill:none;stroke:#5B5B5B;stroke-width:1.0299;stroke-miterlimit:10;}
	.st22{fill:#3E3A39;}
	.st23{fill:#BAFFFF;}
	.st24{fill:#8DB12B;}
	.st25{clip-path:url(#SVGID_2_);fill:#27883B;}
	.st26{fill:#268BBF;}
	.st27{clip-path:url(#SVGID_4_);fill:#2079B1;}
	.st28{opacity:0.4;fill:#FFFDF0;}
	.st29{opacity:0.2;fill:#FFFDF0;}
	.st30{fill:#FFFFDC;}
	.st31{fill:none;stroke:#000000;stroke-width:2;stroke-miterlimit:10;}
	.st32{fill:none;stroke:#3E3A39;stroke-miterlimit:10;}
	.st33{fill:none;stroke:#3E3A39;stroke-width:0.9901;stroke-miterlimit:10;}
	.st34{fill:#F7EED2;}
	.st35{fill:#231815;}
	.st36{fill:#DCF4D3;}
	.st37{fill:none;stroke:#3E3A39;stroke-width:0.9647;stroke-miterlimit:10;}
	.st38{fill:none;stroke:#FFFCD2;stroke-width:1.8511;stroke-miterlimit:10;}
	.st39{fill:#5CE0DE;}
	.st40{fill:none;stroke:#FFFFFF;stroke-width:1.4151;stroke-miterlimit:10;}
	.st41{clip-path:url(#SVGID_40_);fill:#27883B;}
	.st42{clip-path:url(#SVGID_42_);fill:#2079B1;}
	.st43{fill:#686869;}
	.st44{fill:#686868;}
	.st45{clip-path:url(#SVGID_44_);fill:#27883B;}
	.st46{clip-path:url(#SVGID_46_);fill:#2079B1;}
	.st47{fill:#FFEAD9;}
	.st48{fill:#D7FFFC;}
	.st49{fill:#E1FFF0;}
	.st50{fill:#FFE3E8;}
	.st51{fill:#E1EDFF;}
	.st52{fill:#99D603;}
	.st53{fill:#49AAD6;}
	.st54{fill:#68C100;}
	.st55{fill:#22B71A;}
	.st56{fill:#FFAC92;}
	.st57{opacity:0.6;fill:url(#SVGID_47_);}
	.st58{fill:#1D8BBC;}
	.st59{opacity:0.6;fill:url(#SVGID_48_);}
	.st60{clip-path:url(#SVGID_50_);fill:#27883B;}
	.st61{clip-path:url(#SVGID_52_);fill:#2079B1;}
	.st62{opacity:0.6;fill:url(#SVGID_53_);}
	.st63{opacity:0.6;fill:url(#SVGID_54_);}
	.st64{clip-path:url(#SVGID_56_);fill:#27883B;}
	.st65{clip-path:url(#SVGID_58_);fill:#2079B1;}
	.st66{opacity:0.6;fill:url(#SVGID_59_);}
	.st67{opacity:0.6;fill:url(#SVGID_60_);}
	.st68{clip-path:url(#SVGID_62_);fill:#27883B;}
	.st69{clip-path:url(#SVGID_64_);fill:#2079B1;}
	.st70{fill:none;stroke:#5B5B5B;stroke-width:1.2999;stroke-miterlimit:10;}
	.st71{opacity:0.6;fill:#FFFFFF;}
	.st72{clip-path:url(#SVGID_74_);fill:#27883B;}
	.st73{clip-path:url(#SVGID_76_);fill:#2079B1;}
	.st74{fill:#E4E3E4;}
	.st75{fill:#62E8E2;}
	.st76{fill:#FFEBD9;}
	.st77{fill:#FCD7A2;}
	.st78{fill:#FFC364;}
	.st79{clip-path:url(#SVGID_78_);fill:#27883B;}
	.st80{clip-path:url(#SVGID_80_);fill:#2079B1;}
	.st81{clip-path:url(#SVGID_82_);fill:#27883B;}
	.st82{clip-path:url(#SVGID_84_);fill:#2079B1;}
	.st83{clip-path:url(#SVGID_86_);}
	.st84{clip-path:url(#SVGID_88_);fill:#27883B;}
	.st85{clip-path:url(#SVGID_90_);fill:#2079B1;}
	.st86{clip-path:url(#SVGID_92_);fill:#27883B;}
	.st87{clip-path:url(#SVGID_94_);fill:#2079B1;}
	.st88{clip-path:url(#SVGID_96_);fill:#27883B;}
	.st89{clip-path:url(#SVGID_98_);fill:#2079B1;}
</style>
<rect x="0.4" y="1.3" class="st0" width="1923.4" height="949.4"/>
<path class="st10" d="M478.4,74.1C546.1,40,622.3,23,698.2,12.9c162.7-21.6,329.2-13.1,486.1,25c17.9,4.3,35.8,9.1,51.7,17.5
	c13.9,7.3,25.9,17.1,37.5,27.1c122,105,215.6,236.6,271,381.3c10.1,26.3,19,53.5,18.6,81.5c-0.4,34.3-14.4,67.5-25.6,100.6
	c-19.4,57.4-32.8,120.3-79.6,163.5c-22.2,20.5-50.5,35-79.6,46.2c-64.6,24.9-134.3,35.2-203.2,45.4c-60.8,8.9-121.7,17.9-182.5,26.8
	c-28.2,4.2-56.7,8.3-85.1,7.9c-27.1-0.4-53.9-4.8-81-5c-69.6-0.5-139.9,27.1-207.8,14.8c-44.6-8.1-82.6-32.5-119.1-56.4
	c-37.8-24.7-75.6-49.4-113.4-74c-14.4-9.4-29-19-39-32.2c-9.4-12.4-14.1-27.3-18.2-42c-21.7-79-27.4-162-16.6-243.7
	c11.8-89.8,27.1-169.3,20.6-259C327.9,168.6,416,105.5,478.4,74.1z"/>
</svg>
