<svg xmlns="http://www.w3.org/2000/svg" viewBox="0 0 2250.1 307.43"><defs><style>.cls-1{fill:#46c134;}</style></defs><title>grass-07資產 3</title><g id="圖層_2" data-name="圖層 2"><g id="排版"><path class="cls-1" d="M2250.1,92.61C2214.56,72.9,2071.29,52,2028,49.78c-43.51-2.19-84.65,12.48-126,20.24-61.47,11.55-99.21,2.87-154.84-23.8-55.93-26.82-112.7-32.55-171.31-7.78-71.23,30.1-129.28,61.57-208.68,37.93-58.83-17.53-111.69-47.16-172.61-61-177.52-40.26-309.8,129.88-488.88,80.85C656.94,82.9,609.8,69.93,563,50.53c-42.3-17.52-89.38-41.88-134.3-48-53.19-7.27-125.41,2-175.94,17.25-31.06,9.36-60,20-88.37,34.53C138.7,67.4,22,91.8,0,104.28V307.43H2250Z"/></g></g></svg>