<svg xmlns="http://www.w3.org/2000/svg" viewBox="0 0 2406 367.87"><defs><style>.cls-1{fill:#2eb70d;}</style></defs><title>grass-04資產 1</title><g id="圖層_2" data-name="圖層 2"><g id="排版"><path class="cls-1" d="M2391.12,82.36c-66.43-71-233.08-21.88-311.37,3-33.74,10.73-66.29,29-102.66,21.28-34.24-7.29-65.48-25.63-96-40.89-73.85-36.9-142.75-52.73-225.24-30C1597.17,52,1544.16,100.84,1481,74.7,1425.21,51.63,1391.66,1,1325.84.91c-104.37-.15-171.69,75.53-269.43,95.76-87.8,18.18-199.72-12.82-281.89-41.06C726.91,39.25,673.58,12.73,624,4.34,571.11-4.61,497.67,1,447.13,14.78,315.38,50.79,125,117.43,0,170.1V367.87H2406Z"/></g></g></svg>