<?xml version="1.0" encoding="utf-8"?>
<!-- Generator: Adobe Illustrator 22.0.1, SVG Export Plug-In . SVG Version: 6.00 Build 0)  -->
<svg version="1.1" id="排版" xmlns="http://www.w3.org/2000/svg" xmlns:xlink="http://www.w3.org/1999/xlink" x="0px" y="0px"
	 viewBox="0 0 1920 2251.3" style="enable-background:new 0 0 1920 2251.3;" xml:space="preserve">
<style type="text/css">
	.st0{fill:#D2F9F6;}
	.st1{fill:#FFF3DE;}
	.st2{fill:none;}
	.st3{fill:#FFEBC2;}
	.st4{fill:#FFC789;}
	.st5{fill:#FCB465;}
	.st6{fill:#FFD8D8;}
	.st7{fill:#AFFF64;}
	.st8{fill:#3E3A39;}
	.st9{fill:#BAFFFF;}
	.st10{fill:#FFFFDC;}
	.st11{fill:none;stroke:#000000;stroke-width:2;stroke-miterlimit:10;}
	.st12{fill:none;stroke:#3E3A39;stroke-miterlimit:10;}
	.st13{fill:none;stroke:#3E3A39;stroke-width:0.9901;stroke-miterlimit:10;}
	.st14{fill:#F7EED2;}
	.st15{fill:#231815;}
	.st16{fill:#FFFFFF;}
	.st17{fill:#DCF4D3;}
	.st18{fill:none;stroke:#3E3A39;stroke-width:0.9647;stroke-miterlimit:10;}
	.st19{fill:#49C0C4;}
	.st20{fill:none;stroke:#FFFCD2;stroke-width:1.8511;stroke-miterlimit:10;}
	.st21{fill:#5CE0DE;}
	.st22{fill:none;stroke:#FFFFFF;stroke-width:1.4151;stroke-miterlimit:10;}
	.st23{fill:#8DB12B;}
	.st24{clip-path:url(#SVGID_34_);fill:#27883B;}
	.st25{fill:#268BBF;}
	.st26{clip-path:url(#SVGID_36_);fill:#2079B1;}
	.st27{fill:#686869;}
	.st28{fill:#686868;}
	.st29{clip-path:url(#SVGID_38_);fill:#27883B;}
	.st30{clip-path:url(#SVGID_40_);fill:#2079B1;}
	.st31{fill:#FFEAD9;}
	.st32{fill:#D7FFFC;}
	.st33{fill:#E1FFF0;}
	.st34{fill:#FFE3E8;}
	.st35{fill:#E1EDFF;}
	.st36{fill:#FFAC92;}
	.st37{fill:#D1FFFF;}
	.st38{fill:#FFFFE2;}
	.st39{fill:#2EB70D;}
	.st40{fill:#49AAD6;}
	.st41{fill:#81E044;}
	.st42{fill:#46C134;}
	.st43{opacity:0.6;fill:url(#SVGID_41_);}
	.st44{fill:#1D8BBC;}
	.st45{opacity:0.6;fill:url(#SVGID_42_);}
	.st46{clip-path:url(#SVGID_44_);fill:#27883B;}
	.st47{clip-path:url(#SVGID_46_);fill:#2079B1;}
	.st48{fill:none;stroke:#FFFFFF;stroke-miterlimit:10;}
	.st49{opacity:0.6;fill:url(#SVGID_47_);}
	.st50{opacity:0.6;fill:url(#SVGID_48_);}
	.st51{clip-path:url(#SVGID_50_);fill:#27883B;}
	.st52{clip-path:url(#SVGID_52_);fill:#2079B1;}
	.st53{opacity:0.6;fill:url(#SVGID_53_);}
	.st54{opacity:0.6;fill:url(#SVGID_54_);}
	.st55{clip-path:url(#SVGID_56_);fill:#27883B;}
	.st56{clip-path:url(#SVGID_58_);fill:#2079B1;}
	.st57{opacity:0.6;fill:url(#SVGID_59_);}
	.st58{opacity:0.6;fill:url(#SVGID_60_);}
	.st59{clip-path:url(#SVGID_62_);fill:#27883B;}
	.st60{clip-path:url(#SVGID_64_);fill:#2079B1;}
	.st61{fill:none;stroke:#5B5B5B;stroke-width:1.2999;stroke-miterlimit:10;}
	.st62{fill:#5B5B5B;}
	.st63{opacity:0.6;fill:#FFFFFF;}
	.st64{fill:none;stroke:#686868;stroke-miterlimit:10;}
	.st65{fill:#FF8686;}
	.st66{clip-path:url(#SVGID_72_);fill:#27883B;}
	.st67{clip-path:url(#SVGID_74_);fill:#2079B1;}
	.st68{fill:#E4E3E4;}
	.st69{fill:#62E8E2;}
	.st70{fill:#FFAFAF;}
	.st71{fill:#FF9F57;}
	.st72{fill:#C8EA7D;}
	.st73{fill:#A5D650;}
	.st74{fill:#80AF44;}
	.st75{fill:#C8E3E4;}
	.st76{fill:#A3DBDC;}
	.st77{clip-path:url(#SVGID_76_);fill:#27883B;}
	.st78{clip-path:url(#SVGID_78_);fill:#2079B1;}
	.st79{clip-path:url(#SVGID_80_);fill:#27883B;}
	.st80{clip-path:url(#SVGID_82_);fill:#2079B1;}
</style>
<g>
	<path class="st10" d="M1552.6,1767c0,0-21.5-3.9-41.5,11.8c-19.9,15.8-5.6,42.2,12.8,46.7c-14.4,12.4-1.6,32.7,28.7,35.5
		c30.3,2.8,37.5-11.3,37.5-11.3s8,18.6,44.7,16.9c36.7-1.7,33.5-18.6,33.5-18.6s15.2,6.2,36.7-4.5c21.5-10.7,7.2-31.5,7.2-31.5
		s26.9-16.9,4.7-38.3c-22.2-21.4-52.5-10.1-52.5-10.1s-19.1-23.1-63-20.3C1557.4,1746.2,1552.6,1767,1552.6,1767z"/>
</g>
<g>
	<path class="st10" d="M257.3,750.6c0,0-25.8-4.3-49.6,13c-23.9,17.3-6.7,46.3,15.3,51.3c-17.2,13.6-1.9,35.8,34.4,38.9
		c36.3,3.1,44.8-12.4,44.8-12.4s9.5,20.4,53.4,18.5c43.9-1.9,40.1-20.4,40.1-20.4s18.1,6.8,43.9-4.9c25.8-11.7,8.6-34.6,8.6-34.6
		s32.2-18.5,5.6-42c-26.6-23.5-62.9-11.1-62.9-11.1s-22.9-25.3-75.4-22.2C263.1,727.7,257.3,750.6,257.3,750.6z"/>
</g>
<g>
	<path class="st10" d="M1415.5,1199.1c0,0-18.2-3.6-35,10.8c-16.8,14.4-4.7,38.7,10.8,42.8c-12.1,11.3-1.3,29.9,24.2,32.5
		c25.6,2.6,31.7-10.3,31.7-10.3s6.7,17,37.7,15.5c31-1.5,28.3-17,28.3-17s12.8,5.7,31-4.1c18.2-9.8,6.1-28.9,6.1-28.9
		s22.7-15.5,4-35c-18.8-19.6-44.4-9.3-44.4-9.3s-16.2-21.1-53.2-18.6C1419.6,1180,1415.5,1199.1,1415.5,1199.1z"/>
</g>
<g>
	<path class="st10" d="M454.2,1456.3c0,0-19-3.9-36.5,11.8c-17.6,15.8-4.9,42.2,11.2,46.7c-12.6,12.4-1.4,32.7,25.3,35.5
		c26.7,2.8,33-11.3,33-11.3s7,18.6,39.3,16.9c32.3-1.7,29.5-18.6,29.5-18.6s13.3,6.2,32.3-4.5c19-10.7,6.3-31.5,6.3-31.5
		s23.7-16.9,4.1-38.3c-19.6-21.4-46.3-10.1-46.3-10.1s-16.9-23.1-55.5-20.3S454.2,1456.3,454.2,1456.3z"/>
</g>
<g>
	<path class="st10" d="M1464.1,218.8c0,0-25.8-4.3-49.6,13c-23.9,17.3-6.7,46.3,15.3,51.3c-17.2,13.6-1.9,35.8,34.4,38.9
		s44.8-12.4,44.8-12.4s9.5,20.4,53.4,18.5c43.9-1.9,40.1-20.4,40.1-20.4s18.1,6.8,43.9-4.9c25.8-11.7,8.6-34.6,8.6-34.6
		s32.2-18.5,5.6-42c-26.6-23.5-62.9-11.1-62.9-11.1s-22.9-25.3-75.4-22.2C1469.8,195.9,1464.1,218.8,1464.1,218.8z"/>
</g>
</svg>
