<?xml version="1.0" encoding="utf-8"?>
<!-- Generator: Adobe Illustrator 22.0.1, SVG Export Plug-In . SVG Version: 6.00 Build 0)  -->
<svg version="1.1" id="排版" xmlns="http://www.w3.org/2000/svg" xmlns:xlink="http://www.w3.org/1999/xlink" x="0px" y="0px"
	 viewBox="0 0 1920 2000" style="enable-background:new 0 0 1920 2000;" xml:space="preserve">
<style type="text/css">
	.st0{fill:#D2F9F6;}
	.st1{fill:#FFF3DE;}
	.st2{fill:none;}
	.st3{fill:#FFEBC2;}
	.st4{fill:#FFC789;}
	.st5{fill:#FCB465;}
	.st6{fill:#FFD8D8;}
	.st7{fill:#AFFF64;}
	.st8{fill:#3E3A39;}
	.st9{fill:#BAFFFF;}
	.st10{fill:#FFFFDC;}
	.st11{fill:none;stroke:#000000;stroke-width:2;stroke-miterlimit:10;}
	.st12{fill:none;stroke:#3E3A39;stroke-miterlimit:10;}
	.st13{fill:none;stroke:#3E3A39;stroke-width:0.9901;stroke-miterlimit:10;}
	.st14{fill:#F7EED2;}
	.st15{fill:#231815;}
	.st16{fill:#FFFFFF;}
	.st17{fill:#DCF4D3;}
	.st18{fill:none;stroke:#3E3A39;stroke-width:0.9647;stroke-miterlimit:10;}
	.st19{fill:#49C0C4;}
	.st20{fill:none;stroke:#FFFCD2;stroke-width:1.8511;stroke-miterlimit:10;}
	.st21{fill:#5CE0DE;}
	.st22{fill:none;stroke:#FFFFFF;stroke-width:1.4151;stroke-miterlimit:10;}
	.st23{fill:#8DB12B;}
	.st24{clip-path:url(#SVGID_34_);fill:#27883B;}
	.st25{fill:#268BBF;}
	.st26{clip-path:url(#SVGID_36_);fill:#2079B1;}
	.st27{fill:#686869;}
	.st28{fill:#686868;}
	.st29{clip-path:url(#SVGID_38_);fill:#27883B;}
	.st30{clip-path:url(#SVGID_40_);fill:#2079B1;}
	.st31{fill:#FFEAD9;}
	.st32{fill:#D7FFFC;}
	.st33{fill:#E1FFF0;}
	.st34{fill:#FFE3E8;}
	.st35{fill:#E1EDFF;}
	.st36{fill:#FFAC92;}
	.st37{fill:#D1FFFF;}
	.st38{fill:#FFFFE2;}
	.st39{fill:#2EB70D;}
	.st40{fill:#49AAD6;}
	.st41{fill:#81E044;}
	.st42{fill:#46C134;}
	.st43{opacity:0.6;fill:url(#SVGID_41_);}
	.st44{fill:#1D8BBC;}
	.st45{opacity:0.6;fill:url(#SVGID_42_);}
	.st46{clip-path:url(#SVGID_44_);fill:#27883B;}
	.st47{clip-path:url(#SVGID_46_);fill:#2079B1;}
	.st48{fill:none;stroke:#FFFFFF;stroke-miterlimit:10;}
	.st49{opacity:0.6;fill:url(#SVGID_47_);}
	.st50{opacity:0.6;fill:url(#SVGID_48_);}
	.st51{clip-path:url(#SVGID_50_);fill:#27883B;}
	.st52{clip-path:url(#SVGID_52_);fill:#2079B1;}
	.st53{opacity:0.6;fill:url(#SVGID_53_);}
	.st54{opacity:0.6;fill:url(#SVGID_54_);}
	.st55{clip-path:url(#SVGID_56_);fill:#27883B;}
	.st56{clip-path:url(#SVGID_58_);fill:#2079B1;}
	.st57{opacity:0.6;fill:url(#SVGID_59_);}
	.st58{opacity:0.6;fill:url(#SVGID_60_);}
	.st59{clip-path:url(#SVGID_62_);fill:#27883B;}
	.st60{clip-path:url(#SVGID_64_);fill:#2079B1;}
	.st61{fill:none;stroke:#5B5B5B;stroke-width:1.2999;stroke-miterlimit:10;}
	.st62{fill:#5B5B5B;}
	.st63{opacity:0.6;fill:#FFFFFF;}
	.st64{fill:none;stroke:#686868;stroke-miterlimit:10;}
	.st65{fill:#FF8686;}
	.st66{clip-path:url(#SVGID_72_);fill:#27883B;}
	.st67{clip-path:url(#SVGID_74_);fill:#2079B1;}
	.st68{fill:#E4E3E4;}
	.st69{fill:#62E8E2;}
	.st70{fill:#FFAFAF;}
	.st71{fill:#FF9F57;}
	.st72{fill:#C8EA7D;}
	.st73{fill:#A5D650;}
	.st74{fill:#80AF44;}
	.st75{fill:#C8E3E4;}
	.st76{fill:#A3DBDC;}
	.st77{clip-path:url(#SVGID_76_);fill:#27883B;}
	.st78{clip-path:url(#SVGID_78_);fill:#2079B1;}
	.st79{clip-path:url(#SVGID_80_);fill:#27883B;}
	.st80{clip-path:url(#SVGID_82_);fill:#2079B1;}
</style>
<g>
	<path class="st10" d="M418.9,1622.4c0,0-19.9-3.3-38.3,10c-18.4,13.4-5.2,35.8,11.8,39.6c-13.3,10.5-1.5,27.7,26.5,30
		c28,2.4,34.6-9.5,34.6-9.5s7.4,15.7,41.2,14.3c33.9-1.4,30.9-15.7,30.9-15.7s14,5.2,33.9-3.8c19.9-9.1,6.6-26.7,6.6-26.7
		s24.9-14.3,4.3-32.4c-20.5-18.1-48.5-8.6-48.5-8.6s-17.7-19.6-58.2-17.2C423.3,1604.8,418.9,1622.4,418.9,1622.4z"/>
</g>
<g>
	<path class="st10" d="M327.3,923.3c0,0-25.8-4.3-49.6,13c-23.9,17.3-6.7,46.3,15.3,51.3c-17.2,13.6-1.9,35.8,34.4,38.9
		c36.3,3.1,44.8-12.4,44.8-12.4s9.5,20.4,53.4,18.5c43.9-1.9,40.1-20.4,40.1-20.4s18.1,6.8,43.9-4.9c25.8-11.7,8.6-34.6,8.6-34.6
		s32.2-18.5,5.6-42c-26.6-23.5-62.9-11.1-62.9-11.1s-22.9-25.3-75.4-22.2C333,900.5,327.3,923.3,327.3,923.3z"/>
</g>
<g>
	<path class="st10" d="M1400.1,1050.9c0,0-25.8-4.3-49.6,13c-23.9,17.3-6.7,46.3,15.3,51.3c-17.2,13.6-1.9,35.8,34.4,38.9
		c36.3,3.1,44.8-12.4,44.8-12.4s9.5,20.4,53.4,18.5c43.9-1.9,40.1-20.4,40.1-20.4s18.1,6.8,43.9-4.9c25.8-11.7,8.6-34.6,8.6-34.6
		s32.2-18.5,5.6-42c-26.6-23.5-62.9-11.1-62.9-11.1s-22.9-25.3-75.4-22.2C1405.8,1028,1400.1,1050.9,1400.1,1050.9z"/>
</g>
<g>
	<path class="st10" d="M466.5,452.9c0,0-22.2-3.7-42.8,11.2c-20.6,14.9-5.8,40,13.2,44.3c-14.8,11.7-1.6,30.9,29.6,33.6
		c31.3,2.7,38.7-10.7,38.7-10.7s8.2,17.6,46.1,16c37.9-1.6,34.6-17.6,34.6-17.6s15.6,5.9,37.9-4.3c22.2-10.1,7.4-29.9,7.4-29.9
		s27.8-16,4.8-36.3c-23-20.3-54.3-9.6-54.3-9.6s-19.8-21.9-65.1-19.2C471.5,433.2,466.5,452.9,466.5,452.9z"/>
</g>
</svg>
