<?xml version="1.0" encoding="utf-8"?>
<!-- Generator: Adobe Illustrator 22.0.1, SVG Export Plug-In . SVG Version: 6.00 Build 0)  -->
<svg version="1.1" id="排版" xmlns="http://www.w3.org/2000/svg" xmlns:xlink="http://www.w3.org/1999/xlink" x="0px" y="0px"
	 viewBox="0 0 39.287 63.757" enable-background="new 0 0 39.287 63.757" xml:space="preserve">
<g>
	<path fill="#686869" d="M35.192,24.467c-1.156-0.303-2.267,0.628-3.022,1.379c-0.36,0.358-0.962,0.918-1.332,1.509
		c-0.816-0.811-1.724-1.548-2.707-2.18c-7.32-4.695-18.614-0.786-15.844,8.802c-0.141,0.029-0.274,0.111-0.382,0.273
		c-4.276,6.532-14.39,13.552-6.4,21.385c2.748,2.696,8.576,5.155,12.311,3.002c5.531-3.194,5.767-10.635,10.994-14.156
		c0.282-0.19,0.373-0.479,0.351-0.752c7.677-2.872,7.003-10.156,2.671-15.296c0.064-0.072,0.122-0.149,0.18-0.224
		c0.539,0.638,1.118,1.307,1.813,1.701c-0.053,0.064-0.107,0.134-0.158,0.193c-0.477,0.534,0.236,1.364,0.762,0.836
		c0.964-0.971,1.745-2.162,2.205-3.45C37.053,26.306,36.464,24.806,35.192,24.467z M28.19,42.565
		c-0.43,0.124-0.574,0.524-0.512,0.869c-2.506,1.788-3.907,4.265-5.328,7.012c-0.81,1.571-1.628,3.101-2.614,4.572
		c-3.066,4.57-8.575,2.652-12.138,0.321c-9.645-6.317,2.252-14.376,5.342-20.386c0.305,0.026,0.62-0.186,0.527-0.586
		c-0.883-3.746-0.348-7.244,3.375-9.039c3.068-1.478,7.018-0.769,9.942,0.683C33.51,29.354,37.656,39.848,28.19,42.565z
		 M34.3,29.288c-0.374-0.324-0.796-0.589-1.163-0.926c-0.242-0.225-0.479-0.459-0.716-0.694c0.004-0.005,0.009-0.01,0.013-0.015
		c0.108-0.135,0.223-0.268,0.342-0.399c0.166,0.215,0.387,0.392,0.596,0.556c0.316,0.248,0.647,0.473,0.984,0.692
		c0.1,0.063,0.207,0.133,0.318,0.201C34.558,28.902,34.433,29.099,34.3,29.288z M35.212,27.522c-0.05,0.164-0.112,0.331-0.186,0.496
		c-0.039-0.018-0.081-0.036-0.124-0.055c-0.345-0.143-0.678-0.313-1.005-0.49c-0.241-0.131-0.473-0.285-0.713-0.42
		c-0.04-0.023-0.098-0.046-0.152-0.074c0.398-0.409,0.84-0.783,1.346-1.032C35.387,25.448,35.374,26.954,35.212,27.522z"/>
	<path fill="#686869" d="M24.254,27.274c-5.354-2.65-7.464,1.717-9.519,5.796c-0.239,0.467,0.105,0.92,0.49,0.987
		c0,0.03-0.006,0.06-0.001,0.096c0.041,0.273,0.131,0.524,0.275,0.759c0.276,0.441,0.757,0.741,1.248,0.884
		c0.209,0.063,0.494,0.004,0.626-0.194c3.245,2.566,11.145,6.992,13.566,1.968C33.201,32.881,27.825,29.042,24.254,27.274z
		 M27.652,38.533c-2.829,0.554-6.296-1.565-8.628-2.886c-0.342-0.194-2.457-1.922-2.989-1.597c-0.084-0.128-0.155-0.275-0.176-0.372
		c0.767-1.331,1.324-2.769,2.121-4.085c1.63-2.706,4.604-1.77,6.867-0.517c1.898,1.047,3.661,2.504,4.797,4.368
		C30.815,35.365,29.855,38.106,27.652,38.533z"/>
	<path fill="#686869" d="M16.045,37.728c-0.47-0.471-1.157-0.866-1.843-0.758c-0.855,0.137-1.436,0.793-1.899,1.475
		c-0.176,0.26-0.081,0.517,0.109,0.672c-0.047,0.073-0.066,0.165-0.009,0.319c0.033,0.086,0.104,0.111,0.177,0.11
		c0.026,0.062,0.064,0.121,0.107,0.176c0.13,0.174,0.278,0.325,0.434,0.477c0.384,0.388,0.783,0.764,1.226,1.087
		c0.186,0.137,0.438,0.087,0.607-0.05c0.55-0.449,0.955-1.083,1.298-1.697c0.142-0.25,0.268-0.514,0.352-0.789
		C16.735,38.327,16.304,37.989,16.045,37.728z M14.56,40.193c-0.462-0.38-0.916-0.85-1.444-1.078
		c0.03-0.028,0.063-0.049,0.091-0.087c0.286-0.426,0.655-0.954,1.225-0.972c0.411-0.014,0.767,0.318,1.049,0.635
		C15.276,39.22,14.943,39.76,14.56,40.193z"/>
	<path fill="#686869" d="M20.479,40.036c-0.749-0.465-1.512-1.003-2.362-1.267c-0.181-0.056-0.428-0.028-0.563,0.121
		c-0.691,0.764-1.199,1.675-1.527,2.65c-0.061,0.179-0.023,0.418,0.119,0.555c0.169,0.158,0.302,0.214,0.532,0.17
		c0.046-0.009,0.081-0.04,0.12-0.061c0.07,0.279,0.406,0.479,0.607,0.656c0.364,0.314,0.719,0.642,1.108,0.926
		c0.238,0.174,0.577,0.071,0.731-0.157c0.642-0.932,1.333-1.922,1.498-3.076C20.768,40.357,20.642,40.137,20.479,40.036z
		 M18.659,42.56c-0.453-0.391-1.028-0.894-1.492-0.858c0.229-0.61,0.539-1.201,0.946-1.709c0.484,0.203,0.947,0.486,1.39,0.78
		C19.331,41.385,19,41.997,18.659,42.56z"/>
	<path fill="#686869" d="M25.061,42.41c-0.34-0.661-1.281-1.151-1.883-1.541c-0.158-0.101-0.402-0.132-0.57-0.026
		c-0.955,0.598-1.942,1.423-2.55,2.388c-0.216,0.348-0.026,0.669,0.26,0.788c0.004,0.008,0.005,0.015,0.013,0.02
		c1.053,1.159,2.646,1.996,3.885,0.613C24.61,44.213,25.373,43.008,25.061,42.41z M23.003,44.234
		c-0.673,0.41-1.394-0.028-1.938-0.479c0.506-0.651,1.122-1.25,1.805-1.721c0.371,0.243,0.724,0.509,1.041,0.815
		C23.742,43.391,23.499,43.932,23.003,44.234z"/>
	<path fill="#686869" d="M13.442,42.23c-0.569-0.652-1.373-1.167-2.198-1.422c-0.253-0.076-0.498,0.021-0.652,0.23
		c-0.577,0.81-1.484,1.32-2.061,2.136c-0.258,0.358-0.004,0.72,0.324,0.814c-0.01,0.068,0,0.14,0.059,0.199
		c0.682,0.665,1.682,1.33,2.67,1.038c1.061-0.318,1.64-1.475,1.979-2.437C13.63,42.597,13.574,42.381,13.442,42.23z M11.383,44.14
		c-0.729,0.461-1.39,0.187-2.025-0.27c0.035-0.027,0.07-0.054,0.103-0.094c0.485-0.678,1.196-1.152,1.763-1.765
		c0.418,0.179,0.813,0.438,1.143,0.748C12.163,43.299,11.885,43.822,11.383,44.14z"/>
	<path fill="#686869" d="M10.018,47.207c-0.433-1.268-1.783-1.774-3.012-1.87c-0.31-0.026-0.523,0.222-0.564,0.506
		c-0.154,0.991-0.941,1.754-1.064,2.765c-0.054,0.42,0.432,0.625,0.748,0.48c0.669,0.679,1.516,1.192,2.352,1.619
		c0.275,0.137,0.529,0.085,0.72-0.154C9.931,49.626,10.413,48.377,10.018,47.207z M8.544,49.649
		c-0.77-0.259-1.467-0.587-2.099-1.086c0.23-0.726,0.647-1.369,0.9-2.086c0.699,0.133,1.418,0.399,1.669,1.125
		C9.258,48.305,8.92,49.036,8.544,49.649z"/>
	<path fill="#686869" d="M16.967,44.284c-0.529-0.376-1.164-0.801-1.807-0.948c-0.259-0.06-0.505,0.002-0.658,0.232
		c-0.446,0.657-1.622,1.584-1.532,2.43c0.001,0.008,0.01,0.017,0.012,0.026c-0.087,0.121-0.114,0.295,0.006,0.423
		c0.845,0.909,1.849,1.479,2.87,2.16c0.216,0.144,0.508,0.111,0.702-0.06c0.455-0.405,0.763-0.962,1.043-1.494
		c0.216-0.413,0.678-1.116,0.572-1.61C18.07,44.951,17.342,44.545,16.967,44.284z M15.984,47.453
		c-0.761-0.245-1.519-0.714-2.169-1.208c0.204-0.141,0.345-0.352,0.513-0.562c0.287-0.358,0.572-0.721,0.842-1.092
		c0.616,0.288,1.248,0.684,1.737,1.146C16.698,46.338,16.388,46.975,15.984,47.453z"/>
	<path fill="#686869" d="M14.507,48.878c-0.406-0.62-0.897-1.071-1.565-1.388c-0.159-0.073-0.416-0.01-0.534,0.115
		c-0.438,0.475-0.785,1.005-1.119,1.554c-0.261,0.435-0.62,0.909-0.617,1.434c0,0.314,0.306,0.535,0.603,0.39l0.002,0
		c0.272,0.737,1.025,1.377,1.62,1.839c0.215,0.168,0.513,0.049,0.659-0.141c0.541-0.714,1.32-1.434,1.59-2.319
		C15.298,49.859,14.758,49.266,14.507,48.878z M13.9,50.435c-0.275,0.444-0.58,0.872-0.868,1.308
		c-0.301-0.227-0.591-0.468-0.873-0.725c-0.119-0.108-0.315-0.246-0.479-0.385c0.113-0.149,0.204-0.321,0.309-0.503
		c0.273-0.487,0.574-0.975,0.92-1.421c0.378,0.28,0.65,0.676,0.899,1.079c0.044,0.068,0.206,0.579,0.29,0.31
		C14.061,50.214,13.964,50.333,13.9,50.435z"/>
	<path fill="#686869" d="M20.306,45.032c-0.174-0.078-0.446-0.007-0.575,0.123c-0.818,0.854-1.693,1.799-2.106,2.924
		c-0.178,0.493,0.417,0.884,0.801,0.694c0.629,0.44,1.395,0.721,1.885,1.278c0.207,0.235,0.553,0.226,0.783,0.035
		c0.786-0.652,1.605-1.603,1.431-2.708C22.335,46.188,21.326,45.502,20.306,45.032z M20.577,49.064
		c-0.617-0.162-1.254-0.393-1.811-0.715c0.409-0.751,0.916-1.417,1.494-2.047c0.487,0.258,0.964,0.599,1.119,1.142
		C21.563,48.065,21.034,48.652,20.577,49.064z"/>
	<path fill="#686869" d="M18.957,51.325c-0.642-0.418-1.291-0.837-2.032-1.059c-0.249-0.076-0.517,0.013-0.659,0.233
		c-0.519,0.781-1.24,1.506-1.53,2.419c-0.222,0.691,0.839,1.038,1.065,0.35c0.212-0.644,0.703-1.2,1.133-1.753
		c0.357,0.154,0.703,0.335,1.034,0.546c-0.084,0.267-0.16,0.534-0.252,0.801c-0.073,0.223-0.158,0.443-0.241,0.664
		c-0.021,0.047-0.036,0.098-0.056,0.148c-0.415-0.152-0.793-0.452-1.165-0.674c-0.152-0.087-0.413,0.038-0.342,0.236
		c0.257,0.734,0.952,1.279,1.702,1.46c0.211,0.052,0.421-0.002,0.548-0.193c0.506-0.755,0.787-1.634,1.027-2.517
		C19.256,51.735,19.182,51.474,18.957,51.325z"/>
</g>
</svg>
