<svg xmlns="http://www.w3.org/2000/svg" viewBox="0 0 105 250"><defs><style>.cls-1,.cls-2{fill:#3e3a39;}.cls-2{font-size:27.29px;font-family:MicrosoftJhengHeiRegular, Microsoft JhengHei;letter-spacing:0.03em;}.cls-3{letter-spacing:0.08em;}</style></defs><title>backtotop</title><g id="圖層_2" data-name="圖層 2"><g id="排版"><path class="cls-1" d="M52.53,112c-21.7.89-39.76-18.38-45.94-38.24C0,52.42,5.54,25.66,24.33,12.6c14-9.76,32.91-11.13,48.53-4.71,19.55,8,29.71,27.53,28.26,48.7C99.36,82.29,78.7,109.4,52.53,112c-2.47.24-2.49,4.22,0,4,47.87-4.69,73.84-79.39,30.11-107.4A56.19,56.19,0,0,0,27.54,6C6.48,17-2.78,42.44.72,65.54c3.81,25.14,25,51.49,51.81,50.39C55,115.83,55,111.86,52.53,112Z"/><path class="cls-1" d="M45,113.56a44.47,44.47,0,0,0-4.59,12A2,2,0,0,0,42.82,128a45.84,45.84,0,0,1,12-.11c1.29.16,2.17-1.38,1.88-2.51q-1.38-5.26-3-10.45c-.78-2.41-4.54-1.38-3.76,1.06,1.12,3.45,2.13,6.93,3.06,10.45l1.87-2.52a49.45,49.45,0,0,0-13,.25l2.4,2.45a40.75,40.75,0,0,1,4.2-11c1.24-2.23-2.12-4.23-3.36-2Z"/><path class="cls-1" d="M44,249.6c-.87-.46-.37-2.42-.13-2.67s1.92-4.25,1.92-4.25c3.64-7.48,7.4-14.89,9.79-22.85,5.08-17,.31-33.48-6-49.26-6-15-6.19-27.62-2.06-43.2h0c.65-2.47,4.41-1.41,3.75,1.06C49,137,47.15,145.88,48.61,154.77c1.19,7.2,4.51,13.76,7.08,20.51,4.41,11.62,7.13,24.26,5.52,36.75-1.53,11.79-7.43,21.86-12.43,32.34q-1,2.17-2,4.37S45.66,250.86,44,249.6Z"/><text class="cls-2" transform="translate(23.46 81.58)">T<tspan class="cls-3" x="16.05" y="0">OP</tspan></text><text class="cls-2" transform="translate(32.69 50.08)">T<tspan class="cls-3" x="16.05" y="0">O</tspan></text></g></g></svg>