<svg id="排版" xmlns="http://www.w3.org/2000/svg" viewBox="0 0 576.23 618.32"><defs><style>.cls-1{fill:#5b5b5b;}.cls-2{fill:#686868;}.cls-3{fill:none;stroke:#686868;stroke-miterlimit:10;}</style></defs><title>parallax_text</title><path class="cls-1" d="M394.8,272.61c-1.53-.78-3.36.2-4.64,1a12.82,12.82,0,0,0-2.31,1.73,24,24,0,0,0-3.13-3.91c-8.83-8.88-25.79-6.76-24.78,7.67a.84.84,0,0,0-.62.27c-7.93,8-24.17,14.84-15.35,28.37,3,4.65,10.45,9.91,16.31,8,8.69-2.85,11.25-13.32,19.61-16.73a1.13,1.13,0,0,0,.71-1c11.59-1.74,12.83-12.27,8.31-20.87a2.78,2.78,0,0,0,.32-.26,10.37,10.37,0,0,0,2,3c-.1.07-.19.16-.28.23-.83.61-.08,2,.81,1.41a13.6,13.6,0,0,0,4.12-4.22A3.4,3.4,0,0,0,394.8,272.61Zm-15.2,23.53a1.06,1.06,0,0,0-1,1.07c-4,1.78-6.74,4.86-9.55,8.33a66.08,66.08,0,0,1-5,5.69c-5.66,5.54-12.78,1.15-17.06-3.24-11.6-11.88,7.45-19.69,13.57-27.27a.67.67,0,0,0,.91-.67c-.11-5.58,1.68-10.38,7.42-11.79,4.73-1.16,10,1,13.69,4C391,279,393.64,295.16,379.6,296.14Zm12.51-17c-.43-.57-.94-1.07-1.35-1.66-.27-.4-.53-.8-.79-1.2l0,0c.19-.16.39-.31.6-.46a4.88,4.88,0,0,0,.66,1c.37.44.77.86,1.17,1.28l.39.38C392.59,278.7,392.35,278.94,392.11,279.17Zm1.8-2.23a5,5,0,0,1-.4.65l-.16-.11c-.44-.31-.85-.65-1.26-1s-.57-.55-.87-.82l-.19-.15a7.13,7.13,0,0,1,2.19-1.05C394.78,274.06,394.31,276.19,393.91,276.94Z"/><path class="cls-1" d="M378.67,273.27c-6.69-5.38-10.95.17-15,5.32a1,1,0,0,0,.39,1.55.7.7,0,0,0,0,.14,2.7,2.7,0,0,0,.16,1.16,3.1,3.1,0,0,0,1.48,1.63.8.8,0,0,0,.93-.09c3.77,4.63,13.48,13.3,18.37,6.91C389.5,283.93,383.13,276.86,378.67,273.27Zm1.38,17c-4.12-.07-8.33-4.13-11.2-6.71-.42-.38-2.86-3.47-3.7-3.17a2.21,2.21,0,0,1-.13-.58c1.47-1.66,2.68-3.53,4.18-5.15,3.09-3.34,7-1.11,9.76,1.35a18.49,18.49,0,0,1,5.4,7.65C385.42,286.73,383.26,290.32,380.05,290.26Z"/><path class="cls-1" d="M364.07,285.6a3.26,3.26,0,0,0-2.35-1.64,4.24,4.24,0,0,0-3.1,1.52.7.7,0,0,0-.05,1,.51.51,0,0,0-.11.45.25.25,0,0,0,.22.21.94.94,0,0,0,.1.28,5.84,5.84,0,0,0,.46.81,14.56,14.56,0,0,0,1.39,1.91.7.7,0,0,0,.86.11,8.1,8.1,0,0,0,2.32-2,5.2,5.2,0,0,0,.73-1C364.85,286.65,364.35,286,364.07,285.6Zm-2.82,3a10.14,10.14,0,0,0-1.69-2,1.19,1.19,0,0,0,.15-.09c.53-.52,1.2-1.16,2-1,.58.11,1,.68,1.28,1.22A7.46,7.46,0,0,1,361.25,288.64Z"/><path class="cls-1" d="M369.57,290.21a15.51,15.51,0,0,0-2.92-2.51.8.8,0,0,0-.82,0A10.74,10.74,0,0,0,362.9,291a.82.82,0,0,0,0,.83.77.77,0,0,0,.69.4.59.59,0,0,0,.19-.05c0,.41.42.8.65,1.11.42.56.81,1.13,1.27,1.65a.75.75,0,0,0,1.07,0,10.9,10.9,0,0,0,3-3.91A.85.85,0,0,0,369.57,290.21Zm-3.3,3c-.51-.69-1.17-1.58-1.82-1.67a9,9,0,0,1,1.83-2.14A12.39,12.39,0,0,1,368,291,10.93,10.93,0,0,1,366.27,293.24Z"/><path class="cls-1" d="M375.27,295c-.28-1-1.45-2-2.17-2.76a.81.81,0,0,0-.79-.21,11.66,11.66,0,0,0-4.28,2.61.76.76,0,0,0,.13,1.2,0,0,0,0,0,0,0c1.12,2,3.1,3.63,5.24,2.05C374.1,297.39,375.52,295.91,375.27,295Zm-3.43,2c-1.06.38-1.93-.46-2.56-1.27a11.65,11.65,0,0,1,3-1.89,10.62,10.62,0,0,1,1.21,1.47A3.35,3.35,0,0,1,371.84,296.93Z"/><path class="cls-1" d="M359.08,291.19a7.13,7.13,0,0,0-2.65-2.69.83.83,0,0,0-1,.13c-1.05,1-2.47,1.42-3.52,2.4a.76.76,0,0,0,.21,1.26.36.36,0,0,0,0,.3c.76,1.15,1.95,2.39,3.42,2.28s2.74-1.6,3.5-2.86A.83.83,0,0,0,359.08,291.19Zm-3.45,2.08c-1.16.43-2-.16-2.75-1a.75.75,0,0,0,.17-.1,30.26,30.26,0,0,1,3-2,5.78,5.78,0,0,1,1.38,1.41A3.84,3.84,0,0,1,355.63,293.27Z"/><path class="cls-1" d="M352.8,297.2c-.22-1.93-2-3.05-3.65-3.56a.78.78,0,0,0-.94.54c-.51,1.36-1.84,2.2-2.32,3.6a.75.75,0,0,0,.91.91,13.14,13.14,0,0,0,2.8,3,.77.77,0,0,0,1,0A5.29,5.29,0,0,0,352.8,297.2Zm-2.79,3A10,10,0,0,1,347.4,298c.54-1,1.32-1.74,1.89-2.68a2.81,2.81,0,0,1,2,2.1A3.61,3.61,0,0,1,350,300.22Z"/><path class="cls-1" d="M363.39,295.17a7.84,7.84,0,0,0-2.24-1.9.83.83,0,0,0-1,.13c-.82.8-2.74,1.76-2.87,3v0a.48.48,0,0,0-.12.6,21.48,21.48,0,0,0,3.37,3.94.83.83,0,0,0,1,.13,7.74,7.74,0,0,0,1.9-1.8c.43-.52,1.28-1.38,1.28-2.11S363.84,295.65,363.39,295.17Zm-2.32,4.19A10.91,10.91,0,0,1,358.4,297a3.72,3.72,0,0,0,.88-.64c.51-.42,1-.85,1.51-1.29a9.64,9.64,0,0,1,2.08,2.15A7.81,7.81,0,0,1,361.07,299.36Z"/><path class="cls-1" d="M358.58,300.93a5.42,5.42,0,0,0-1.77-2.44.75.75,0,0,0-.78,0,13.79,13.79,0,0,0-2,1.86,4.35,4.35,0,0,0-1.3,1.85.6.6,0,0,0,.73.73h0a7.09,7.09,0,0,0,1.72,3.1.67.67,0,0,0,1,0c1-.85,2.28-1.63,2.92-2.8C359.39,302.56,358.81,301.56,358.58,300.93Zm-1.31,2c-.53.54-1.08,1.06-1.61,1.59-.36-.42-.69-.85-1-1.3-.13-.19-.36-.44-.55-.69a5,5,0,0,0,.58-.62,18.61,18.61,0,0,1,1.71-1.73,5.34,5.34,0,0,1,.94,1.8c0,.11.11.88.31.53A2.93,2.93,0,0,1,357.27,303Z"/><path class="cls-1" d="M367.84,297.24a.84.84,0,0,0-.84,0,12.82,12.82,0,0,0-3.82,3.51.84.84,0,0,0,.91,1.22,14.43,14.43,0,0,1,2.25,2.39.79.79,0,0,0,1.08.28c1.3-.68,2.73-1.78,2.81-3.4S369.12,298.22,367.84,297.24ZM367,303a10.72,10.72,0,0,1-2.32-1.56,15.3,15.3,0,0,1,2.7-2.45,3,3,0,0,1,1.23,2C368.68,301.92,367.77,302.59,367,303Z"/><path class="cls-1" d="M364.07,305.75a11.93,11.93,0,0,0-2.53-2.12.82.82,0,0,0-1,.14,14.59,14.59,0,0,0-2.86,3,.8.8,0,0,0,1.38.82,9.11,9.11,0,0,1,2.11-2.14,10.11,10.11,0,0,1,1.28,1.09c-.19.35-.38.7-.59,1.05s-.35.58-.53.87c0,.06-.08.13-.13.19a11,11,0,0,1-1.42-1.3c-.19-.17-.59-.08-.55.23a3.48,3.48,0,0,0,1.94,2.58.68.68,0,0,0,.82-.1,12.11,12.11,0,0,0,2.19-3.26A.86.86,0,0,0,364.07,305.75Z"/><path class="cls-2" d="M171.69,282.69h-2.13v28.95h-1.69v-6.85l-7.52,2.74-.72-1.62c1-.34,1.77-.62,2.34-.83V282.69H160v-1.62h11.66Zm-3.82,5.64v-5.64h-4.13v5.64Zm0,7.54v-5.8h-4.13v5.8Zm0,7.09V297.6h-4.13v6.87C164.86,304.08,166.23,303.58,167.87,303Zm12.47-7.46-1.52.79c-.16-.56-.32-1-.47-1.44-1.91.52-4.36,1-7.35,1.52l-.49-1.34a32,32,0,0,0,5.22-6.26c-1.32.28-2.71.52-4.15.72l-.51-1.3a26.64,26.64,0,0,0,4.19-8.21l1.58.62a30.17,30.17,0,0,1-3.75,7.06q2.63-.42,3.75-.72l1.77-3.14,1.59.79a53.21,53.21,0,0,1-7,9.84,42.74,42.74,0,0,0,4.57-1.05,13.35,13.35,0,0,0-.76-1.51l1.45-.76A20.73,20.73,0,0,1,180.34,295.5Zm-.72,6.23c0,2.91-.52,5.12-1.55,6.61a9.62,9.62,0,0,1-4.8,3.44l-1-1.51c3.2-.91,5-2.77,5.36-5.56H172V298h1.76v5h4.11v-5.83h1.73ZM191,295.47l-1.47.72c-.13-.5-.25-.91-.35-1.23q-4.29.93-7.79,1.37l-.51-1.51a28.7,28.7,0,0,0,5-6c-1.88.36-3.42.63-4.64.79l-.51-1.4a27.39,27.39,0,0,0,4.69-8.25l1.65.55a29.23,29.23,0,0,1-4.22,7.27c1.55-.24,2.91-.51,4.08-.79a18.55,18.55,0,0,0,1.8-3.21l1.58.58a34.94,34.94,0,0,1-7,10.09,45.2,45.2,0,0,0,5.26-1.06,11.67,11.67,0,0,0-.83-1.86l1.45-.62A14.49,14.49,0,0,1,191,295.47Zm-1.19,10.19h-5.61v6h-1.76V297.16h1.76V304H188v-6h1.72Z"/><path class="cls-2" d="M215.61,300.55l-1.69.93a13.16,13.16,0,0,0-.72-2.06,67.52,67.52,0,0,1-9.51,2.24L203,300a33.13,33.13,0,0,0,6.8-8.06c-2.84.38-4.75.61-5.71.68l-.44-1.65a30,30,0,0,0,6-11.13l1.78.65a35.64,35.64,0,0,1-5.33,10.07q.94,0,4.89-.63c.56-1,1.32-2.45,2.27-4.39l1.79.68q-4.59,9.06-8.81,13.13a41.84,41.84,0,0,0,6.33-1.58,16.73,16.73,0,0,0-1.07-2.37l1.54-.9A43.78,43.78,0,0,1,215.61,300.55Zm-8.6,2.51a38,38,0,0,1-2.3,8.58l-1.7-.95a36.29,36.29,0,0,0,2.23-8.17Zm4.33,7.53-1.85.36a51.48,51.48,0,0,0-.75-8l1.79-.44A64.91,64.91,0,0,1,211.34,310.59Zm4.67-2.27-1.74.89a43.82,43.82,0,0,0-1.65-6.32l1.58-.69A34.74,34.74,0,0,1,216,308.32Zm18.39-12-1.14,1.62a28.87,28.87,0,0,1-8.55-4.57,38.7,38.7,0,0,1-7.73,4.43l-1.3-1.55a31.73,31.73,0,0,0,7.65-4,26.27,26.27,0,0,1-3.84-5.19,41.15,41.15,0,0,1-2.9,3.38l-1.33-1.14a26.26,26.26,0,0,0,6-9.16l1.69.44a18,18,0,0,1-1.23,2.84h9.95v1.76a39.78,39.78,0,0,1-5.52,7A29.54,29.54,0,0,0,234.4,296.29ZM231,311.55h-1.88v-1.83h-9.45v1.83h-1.85V298.74H231ZM229,308v-7.42h-9.35V308Zm.37-22.84h-8.61l-.14.34a20.05,20.05,0,0,0,4.13,5.46A33.23,33.23,0,0,0,229.37,285.13Z"/><path class="cls-2" d="M277.53,304.19a27.94,27.94,0,0,1-1.36,4.52c-.61,1.53-1.16,2.43-1.66,2.7a3.16,3.16,0,0,1-1.53.41c-.93,0-2-.7-3.08-2.1a19.28,19.28,0,0,1-2.81-4.93,30,30,0,0,1-7.56,4.46l-1.3-1.58a26.19,26.19,0,0,0,8.17-4.75,56.93,56.93,0,0,1-1.51-11.2h-8.56v6.33a40.67,40.67,0,0,0,6.87-1.68v2q-3.43,1-6.87,1.65v9.21a2.16,2.16,0,0,1-.69,1.61,2.73,2.73,0,0,1-2,.7h-4.75l-.54-1.94c1.5.07,3.2.11,5.11.11.65,0,1-.3,1-.9v-8.35c-3.09.6-5.7,1-7.81,1.32l-.47-1.9a74.26,74.26,0,0,0,8.28-1.3v-6.84H246v-1.86h8.49v-5.62c-3.75.59-6.14.93-7.15,1l-.69-1.79a69.92,69.92,0,0,0,15.56-3.06l.56,1.68a61.12,61.12,0,0,1-6.4,1.73v6.06h8.49c0-1,0-2.21,0-3.5q0-3.53.1-6.38h1.88q-.13,2.52-.14,5.86c0,1.44,0,2.78.07,4h10.72v1.86H266.81a48.12,48.12,0,0,0,1.14,9.51,29.35,29.35,0,0,0,4.94-7.48l1.62,1a40,40,0,0,1-5.91,8.61,15.92,15.92,0,0,0,2.33,4.6q1.47,2,2.13,2a.8.8,0,0,0,.67-.44,17.22,17.22,0,0,0,1-2.37,21.28,21.28,0,0,0,1.1-4Zm-1.86-17-1.55,1.11a24.65,24.65,0,0,0-4.66-5.78l1.44-1.16A26.25,26.25,0,0,1,275.67,287.22Z"/><path class="cls-2" d="M297.37,280.28a37.13,37.13,0,0,1-1.25,4.31l-.91,2.56v24.33h-1.9V291.65a43,43,0,0,1-3.22,5.4L289,295.19a47.73,47.73,0,0,0,6.59-15.28Zm10.72,15.51h-7v15.76h-1.91V281h9Zm-1.9-8.46v-4.54H301v4.54Zm0,6.59v-4.78H301v4.78ZM319.59,309c0,1.83-1.19,2.74-3.55,2.74l-3.38,0-.76-2c1.63.1,3.17.15,4.63.15a1.2,1.2,0,0,0,1.18-1.18v-12.9h-7.32V281h9.2Zm-1.88-21.64v-4.54h-5.4v4.54Zm0,6.66v-4.85h-5.4V294Z"/><path class="cls-2" d="M212.13,347.58l2.08.27a5.42,5.42,0,0,1-1.74,3.36,5.07,5.07,0,0,1-3.44,1.21,5.34,5.34,0,0,1-4.11-1.67,6.75,6.75,0,0,1-1.55-4.79,8.7,8.7,0,0,1,.66-3.52,4.67,4.67,0,0,1,2-2.27,6,6,0,0,1,3-.76,5.12,5.12,0,0,1,3.31,1,4.72,4.72,0,0,1,1.66,2.91l-2,.32a3.46,3.46,0,0,0-1-1.89,2.71,2.71,0,0,0-1.8-.63,3.28,3.28,0,0,0-2.59,1.14,5.45,5.45,0,0,0-1,3.62,5.6,5.6,0,0,0,1,3.64,3.14,3.14,0,0,0,2.51,1.14,3,3,0,0,0,2.08-.77A3.77,3.77,0,0,0,212.13,347.58Z"/><path class="cls-2" d="M216.43,345.92a6.41,6.41,0,0,1,1.92-5.12,5.74,5.74,0,0,1,3.91-1.39,5.6,5.6,0,0,1,4.2,1.68,6.44,6.44,0,0,1,1.63,4.65,8.11,8.11,0,0,1-.73,3.78,5.13,5.13,0,0,1-2.09,2.14,6.09,6.09,0,0,1-3,.76,5.6,5.6,0,0,1-4.22-1.67A6.68,6.68,0,0,1,216.43,345.92Zm2.16,0a5.3,5.3,0,0,0,1,3.58,3.34,3.34,0,0,0,2.62,1.19,3.3,3.3,0,0,0,2.61-1.2,5.4,5.4,0,0,0,1-3.64,5.14,5.14,0,0,0-1-3.5,3.48,3.48,0,0,0-5.23,0A5.26,5.26,0,0,0,218.59,345.92Z"/><path class="cls-2" d="M231.76,352.14V339.69h1.9v1.77a4.48,4.48,0,0,1,4-2,5.2,5.2,0,0,1,2.07.41,3.27,3.27,0,0,1,1.41,1.06,4,4,0,0,1,.65,1.56,11.76,11.76,0,0,1,.12,2.05v7.65h-2.11v-7.57a5.85,5.85,0,0,0-.24-1.93,2.11,2.11,0,0,0-.88-1,2.82,2.82,0,0,0-1.47-.38,3.4,3.4,0,0,0-2.32.86c-.66.57-1,1.65-1,3.24v6.8Z"/><path class="cls-2" d="M250.91,350.25l.31,1.87a8.24,8.24,0,0,1-1.6.18,3.64,3.64,0,0,1-1.78-.36A2,2,0,0,1,247,351a7.63,7.63,0,0,1-.26-2.49v-7.17h-1.55v-1.64h1.55v-3.08l2.1-1.26v4.34h2.12v1.64h-2.12v7.28a3.83,3.83,0,0,0,.11,1.16.89.89,0,0,0,.36.41,1.43,1.43,0,0,0,.72.15A6,6,0,0,0,250.91,350.25Z"/><path class="cls-2" d="M262.29,350.6A7.67,7.67,0,0,1,260,352a6.6,6.6,0,0,1-2.33.41,4.51,4.51,0,0,1-3.15-1,3.32,3.32,0,0,1-1.1-2.56,3.47,3.47,0,0,1,.41-1.67A3.36,3.36,0,0,1,255,346a5.15,5.15,0,0,1,1.52-.7,15.08,15.08,0,0,1,1.88-.31,20,20,0,0,0,3.76-.73c0-.29,0-.47,0-.55a2.34,2.34,0,0,0-.6-1.82,3.56,3.56,0,0,0-2.4-.71,3.74,3.74,0,0,0-2.2.52,3.22,3.22,0,0,0-1.05,1.85l-2.06-.28a5.09,5.09,0,0,1,.93-2.14,4.07,4.07,0,0,1,1.86-1.26,8.35,8.35,0,0,1,2.82-.44,7.42,7.42,0,0,1,2.59.38,3.37,3.37,0,0,1,1.47.94,3.42,3.42,0,0,1,.66,1.44,12,12,0,0,1,.1,1.94v2.81a29.5,29.5,0,0,0,.14,3.73,4.67,4.67,0,0,0,.53,1.49h-2.2A4.63,4.63,0,0,1,262.29,350.6Zm-.17-4.71a15.23,15.23,0,0,1-3.45.8,8.77,8.77,0,0,0-1.84.42,1.89,1.89,0,0,0-.83.69,1.83,1.83,0,0,0-.29,1,1.8,1.8,0,0,0,.64,1.41,2.77,2.77,0,0,0,1.87.56,4.37,4.37,0,0,0,2.16-.53,3.34,3.34,0,0,0,1.4-1.46,5.05,5.05,0,0,0,.34-2.11Z"/><path class="cls-2" d="M276.84,347.58l2.08.27a5.42,5.42,0,0,1-1.74,3.36,5.07,5.07,0,0,1-3.44,1.21,5.34,5.34,0,0,1-4.11-1.67,6.75,6.75,0,0,1-1.55-4.79,8.7,8.7,0,0,1,.66-3.52,4.67,4.67,0,0,1,2-2.27,6,6,0,0,1,3-.76,5.1,5.1,0,0,1,3.31,1,4.72,4.72,0,0,1,1.66,2.91l-2.05.32a3.4,3.4,0,0,0-1-1.89,2.71,2.71,0,0,0-1.8-.63,3.28,3.28,0,0,0-2.59,1.14,5.45,5.45,0,0,0-1,3.62,5.54,5.54,0,0,0,1,3.64,3.11,3.11,0,0,0,2.5,1.14,3,3,0,0,0,2.08-.77A3.77,3.77,0,0,0,276.84,347.58Z"/><path class="cls-2" d="M286.53,350.25l.3,1.87a8.06,8.06,0,0,1-1.59.18,3.61,3.61,0,0,1-1.78-.36,2,2,0,0,1-.89-.95,7.35,7.35,0,0,1-.26-2.49v-7.17h-1.55v-1.64h1.55v-3.08l2.1-1.26v4.34h2.12v1.64h-2.12v7.28a3.51,3.51,0,0,0,.11,1.16.84.84,0,0,0,.36.41,1.43,1.43,0,0,0,.72.15A6.1,6.1,0,0,0,286.53,350.25Z"/><path class="cls-2" d="M305.81,352.14v-1.83a4.54,4.54,0,0,1-3.95,2.11,5,5,0,0,1-2.05-.42,3.42,3.42,0,0,1-1.42-1.06,3.92,3.92,0,0,1-.65-1.57,10.26,10.26,0,0,1-.13-2v-7.72h2.11v6.91a11.8,11.8,0,0,0,.13,2.22,2.18,2.18,0,0,0,.84,1.31,2.59,2.59,0,0,0,1.6.47,3.52,3.52,0,0,0,1.78-.48,2.74,2.74,0,0,0,1.17-1.33,6.61,6.61,0,0,0,.35-2.43v-6.67h2.11v12.45Z"/><path class="cls-2" d="M311.36,348.42l2.09-.32a2.88,2.88,0,0,0,1,1.92,3.42,3.42,0,0,0,2.24.67,3.28,3.28,0,0,0,2.16-.6,1.77,1.77,0,0,0,.7-1.38,1.29,1.29,0,0,0-.62-1.13,9.19,9.19,0,0,0-2.16-.71,19,19,0,0,1-3.22-1,3.07,3.07,0,0,1-1.35-1.18,3.14,3.14,0,0,1-.47-1.67,3.22,3.22,0,0,1,.38-1.54,3.47,3.47,0,0,1,1-1.18,4.53,4.53,0,0,1,1.34-.62,6.72,6.72,0,0,1,1.82-.25,7.27,7.27,0,0,1,2.58.42A3.59,3.59,0,0,1,320.5,341a4.43,4.43,0,0,1,.73,1.93l-2.06.28a2.29,2.29,0,0,0-.82-1.5,3,3,0,0,0-1.9-.54,3.48,3.48,0,0,0-2.08.48,1.4,1.4,0,0,0-.62,1.12,1.17,1.17,0,0,0,.26.74,1.74,1.74,0,0,0,.81.56q.31.12,1.86.54a27,27,0,0,1,3.12,1,3.15,3.15,0,0,1,1.39,1.11,3,3,0,0,1,.51,1.8,3.54,3.54,0,0,1-.62,2,4,4,0,0,1-1.77,1.44,6.49,6.49,0,0,1-2.63.51,5.87,5.87,0,0,1-3.7-1A4.72,4.72,0,0,1,311.36,348.42Z"/><line class="cls-3" x1="202.43" y1="323.45" x2="371.18" y2="323.45"/></svg>