<?xml version="1.0" encoding="utf-8"?>
<!-- Generator: Adobe Illustrator 22.0.1, SVG Export Plug-In . SVG Version: 6.00 Build 0)  -->
<svg version="1.1" id="排版" xmlns="http://www.w3.org/2000/svg" xmlns:xlink="http://www.w3.org/1999/xlink" x="0px" y="0px"
	 viewBox="0 0 139.973 114.998" enable-background="new 0 0 139.973 114.998" xml:space="preserve">
<g>
	<g>
		<g>
			<path fill="#5B5B5B" d="M15.1,27.516c-0.995,4.34-1.847,10.837,1.346,14.477c1.935,2.206,5.126,2.844,7.859,3.415
				c1.146,0.238,3.085,0.277,4.085,0.965c1.955,1.349-0.092,4.823-1.015,6.527c-0.993,1.834-0.898,2.82,0.892,4.282
				c1.972,1.613,4.804,2.029,7.28,1.972c2.341-0.054,5.263-0.495,7.076-2.121c1.442-1.293,0.613-2.115,0.162-3.776
				c-0.575-2.118-1.339-4.979,0.769-6.49c1.504-1.077,3.27-1.481,4.654-2.869c1.418-1.424,2.524-3.302,2.793-5.314
				c-0.261,0.26-0.523,0.52-0.783,0.781c3.117,0.206,5.905-1.821,5.073-5.23c-0.671-2.749-3.113-3.055-5.053-1.248
				c0.446,0.185,0.891,0.367,1.336,0.552c0.191-1.713,0.382-3.429,0.572-5.143c0.112-0.997-1.455-0.991-1.565,0
				c-0.191,1.715-0.382,3.43-0.572,5.143c-0.08,0.717,0.885,0.972,1.336,0.553c0.939-0.875,2.07-0.37,2.443,0.772
				c0.714,2.192-1.826,3.155-3.57,3.038c-0.461-0.03-0.73,0.387-0.782,0.782c-0.127,0.95-0.713,2.14-1.307,2.997
				c-1.552,2.238-3.617,2.492-5.701,3.971c-2.065,1.467-1.974,3.99-1.571,6.283c0.192,1.096,1.035,2.573,0.984,3.626
				c-0.037,0.75,0.757-0.301-0.491,0.596c-0.573,0.413-1.265,0.689-1.925,0.913c-2.041,0.692-4.4,0.812-6.519,0.453
				c-1.23-0.206-4.668-1.1-4.862-2.532c-0.09-0.651,1.51-2.813,1.809-3.515c0.538-1.265,1.508-3.325,1.027-4.762
				c-0.634-1.897-3.446-2.157-5.089-2.497c-4.443-0.923-8.822-1.704-9.696-6.906c-0.507-3.016-0.162-6.316,0.517-9.278
				C16.833,26.951,15.325,26.535,15.1,27.516L15.1,27.516z"/>
		</g>
		<g>
			<path fill="#5B5B5B" d="M26.786,53.847c-7.663,1.664-14.546,3.91-18.806,10.943c-4.261,7.035-7.869,15.746-7.981,24.039
				c-0.006,0.478,0.51,0.926,0.992,0.753c4.707-1.684,9.883-2.246,14.865-2.206c1.007,0.009,1.008-1.554,0-1.563
				c-5.105-0.041-10.457,0.535-15.281,2.263c0.33,0.251,0.66,0.501,0.991,0.753c0.105-7.777,3.454-15.584,7.211-22.292
				c4.073-7.271,10.713-9.508,18.427-11.183C28.187,55.14,27.77,53.634,26.786,53.847L26.786,53.847z"/>
		</g>
		<g>
			<path fill="#5B5B5B" d="M20.287,56.265c-2.215,10.719-4.356,21.466-4.639,32.441c-0.025,1.006,1.54,1.005,1.566,0
				c0.278-10.836,2.395-21.443,4.583-32.025C22,55.7,20.491,55.28,20.287,56.265L20.287,56.265z"/>
		</g>
		<g>
			<path fill="#5B5B5B" d="M23.817,55.925c-0.25,3.601-0.499,7.202-0.749,10.804c-0.09,1.321-0.923,3.758,0.591,4.54
				c1.411,0.731,4.701-0.242,6.265-0.328c3.326-0.183,6.655-0.226,9.985-0.141c1.007,0.025,1.006-1.537,0-1.563
				c-2.377-0.061-4.75-0.056-7.126,0.02c-2.113,0.066-5.16,0.846-7.233,0.452c-1.476-0.281-1.141,1.104-1.047-1.073
				c0.055-1.271,0.177-2.544,0.265-3.813c0.205-2.965,0.411-5.932,0.617-8.897C25.452,54.922,23.886,54.926,23.817,55.925
				L23.817,55.925z"/>
		</g>
		<g>
			<path fill="#5B5B5B" d="M43.617,67.459c-6.575,3.06-13.109,6.264-18.072,11.684c-0.615,0.672,0.15,1.613,0.947,1.228
				c7.195-3.478,14.575-6.509,22.138-9.094c0.594-0.203,0.824-1.102,0.188-1.428c-1.463-0.746-2.848-1.562-4.21-2.477
				c-0.839-0.563-1.623,0.79-0.791,1.349c1.363,0.915,2.749,1.73,4.211,2.478c0.062-0.478,0.124-0.953,0.186-1.429
				c-7.691,2.629-15.194,5.715-22.51,9.251c0.316,0.409,0.633,0.818,0.949,1.227c4.877-5.326,11.302-8.438,17.756-11.439
				C45.32,68.385,44.525,67.037,43.617,67.459L43.617,67.459z"/>
		</g>
		<g>
			<path fill="#5B5B5B" d="M25.019,80.231c0.91,2.715,1.844,5.421,2.803,8.119c0.335,0.94,1.848,0.536,1.51-0.416
				c-0.959-2.698-1.894-5.404-2.803-8.118C26.211,78.868,24.698,79.274,25.019,80.231L25.019,80.231z"/>
		</g>
		<g>
			<path fill="#5B5B5B" d="M47.645,70.607c1.836,7.852,3.934,15.633,6.294,23.342c0.294,0.96,1.805,0.551,1.51-0.415
				c-2.361-7.71-4.459-15.491-6.295-23.341C48.925,69.214,47.416,69.628,47.645,70.607L47.645,70.607z"/>
		</g>
		<g>
			<path fill="#5B5B5B" d="M46.19,55.612c-0.787,4.264-1.228,8.548-1.313,12.883c-0.019,1.006,1.547,1.006,1.565,0
				c0.082-4.193,0.495-8.34,1.257-12.467C47.88,55.045,46.372,54.623,46.19,55.612L46.19,55.612z"/>
		</g>
		<g>
			<path fill="#5B5B5B" d="M51.928,56.385c-1.246,12.291,2.503,24.376,3.805,36.497c0.108,0.99,1.673,0.999,1.567,0
				c-1.302-12.121-5.052-24.211-3.804-36.497C53.596,55.385,52.029,55.392,51.928,56.385L51.928,56.385z"/>
		</g>
		<g>
			<path fill="#5B5B5B" d="M42.239,56.039c0.686,0.383,1.757,0.132,2.493,0.12c2.472-0.038,4.951,0.078,7.37,0.629
				c5.603,1.276,8.933,4.373,11.361,9.371c2.951,6.074,4.776,12.879,6.043,19.5c0.436-0.254,0.871-0.507,1.309-0.761
				c-3.021-3.4-9.794-1.751-13.362-0.772c-0.97,0.266-0.559,1.774,0.417,1.507c2.983-0.819,9.253-2.539,11.838,0.37
				c0.561,0.63,1.443-0.056,1.308-0.761c-1.357-7.086-3.332-14.423-6.687-20.839c-2.086-3.988-4.804-6.748-9.108-8.334
				c-2.517-0.927-5.221-1.334-7.892-1.451c-0.951-0.043-1.902-0.034-2.853-0.015c-0.371,0.008-1.652-0.027-1.447,0.085
				C42.148,54.199,41.357,55.549,42.239,56.039L42.239,56.039z"/>
		</g>
		<g>
			<path fill="#5B5B5B" d="M56.568,81.263c0.398,3.291,0.565,6.605,0.883,9.905c0.096,0.992,1.662,1.001,1.566,0
				c-0.318-3.3-0.486-6.614-0.884-9.905C58.016,80.277,56.448,80.265,56.568,81.263L56.568,81.263z"/>
		</g>
		<g>
			<path fill="#5B5B5B" d="M1.883,88.979c-0.138,7.912,4.999,16.737,13.793,16.007c9.836-0.818,18.317-7.462,25.357-13.839
				c0.748-0.676-0.361-1.779-1.107-1.104c-5.815,5.266-12.397,10.497-20.106,12.615c-4.357,1.198-8.63,1.415-11.995-2.038
				c-3.044-3.123-4.454-7.34-4.378-11.641C3.465,87.973,1.9,87.972,1.883,88.979L1.883,88.979z"/>
		</g>
		<g>
			<path fill="#5B5B5B" d="M14.548,87.068c0.576,1.276,1.622,4.835,3.082,5.379c0.993,0.369,2.331-0.493,3.25-0.821
				c4.11-1.457,8.292-2.716,12.363-4.278c0.364-0.14,0.525-0.379,0.575-0.754c0.183-1.393,0.433-2.856,0.881-4.189
				c0.134-0.403,0.913-2.864,1.812-2.311c0.286,0.177-0.147,1.895-0.222,2.29c-0.132,0.702,0.746,1.397,1.308,0.762
				c0.953-1.079,1.991-2.057,2.992-3.088c0.673-0.691,0.206-0.554,0.215-0.592c-0.13,0.522-0.41,1.036-0.637,1.522
				c-0.285,0.607-0.606,1.199-0.935,1.781c-0.421,0.746,0.635,1.645,1.229,0.947c0.417-0.491,0.855-0.967,1.328-1.408
				c0.9-0.837,2.008-2.151,0.867-0.337c-0.784,1.247-1.756,2.395-2.73,3.498c-0.664,0.751,0.437,1.86,1.107,1.105
				c0.444-0.499,2.22-2.765,2.834-2.663c0.317,0.052-2.735,2.847-3.209,3.149c-0.709,0.453-0.267,1.754,0.602,1.428
				c0.255-0.094,0.608-0.306,0.877-0.279c0.916,0.087,0.951-0.147,0.457,0.55c-0.368,0.517-1.771,0.868-2.323,1.081
				c-0.931,0.358-0.526,1.868,0.417,1.506c1.301-0.498,4.559-1.499,4.619-3.286c0.077-2.278-3.253-1.531-4.462-1.078
				c0.201,0.476,0.402,0.952,0.604,1.429c1.313-0.838,6.043-3.966,4.056-5.996c-1.64-1.675-4.654,2.013-5.578,3.054
				c0.369,0.368,0.738,0.736,1.107,1.105c1.063-1.203,4.555-4.493,3.789-6.319c-1.079-2.57-4.711,1.468-5.469,2.355
				c0.411,0.316,0.819,0.63,1.23,0.946c0.564-0.998,3.155-4.901,1.251-5.72c-1.668-0.717-4.461,3.201-5.343,4.202
				c0.435,0.253,0.873,0.507,1.308,0.76c0.269-1.428,0.917-4.466-1.271-4.728c-2.464-0.295-3.465,4.191-3.815,5.809
				c-0.127,0.593-0.088,1.572-0.376,2.096c-0.478,0.873,0.644-0.194-0.72,0.319C29.748,87,27.842,87.612,25.95,88.25
				c-1.956,0.66-3.916,1.306-5.859,2.002c-0.447,0.157-0.892,0.32-1.335,0.487c-0.579,0.441-0.886,0.24-0.921-0.599
				c-0.882-0.92-1.416-2.712-1.935-3.86C15.487,85.362,14.137,86.156,14.548,87.068L14.548,87.068z"/>
		</g>
		<g>
			<path fill="#5B5B5B" d="M59.17,84.88c0.361,4.199-2.255,8.141-6.134,9.751c-2.364,0.981-4.792,1.215-7.141,0.095
				c-0.75-0.357-0.854-0.943-1.826-0.938c-3.988,0.025-0.94,4.292,0.44,5.362c0.316-0.409,0.632-0.818,0.949-1.227
				c-1.368-0.597-5.557-2.77-6.738-0.942c-1.266,1.962,3.019,3.962,4.229,4.577c0.201-0.475,0.402-0.952,0.603-1.428
				c-1.262-0.172-5.214-1.127-5.593,0.792c-0.052,0.259-0.018,0.575,0.201,0.76c1.194,1,2.951,1.222,4.403,1.671
				c0.069-0.512,0.138-1.024,0.207-1.536c-1.306,0.175-4.86,0.44-4.809,2.349c0.057,2.174,4.1,1.67,5.382,1.501
				c-0.131-0.485-0.263-0.97-0.395-1.456c-0.931,0.686-2.378,2.311-1.304,3.514c1.005,1.124,2.555-0.127,3.42-0.791
				c0.315-0.241,2.221-1.576,1.182-1.265c0.454-0.136,1.223,0.049,1.7,0.056c2.495,0.037,5-0.095,7.473-0.436
				c5.399-0.744,10.63-2.527,13.088-7.753c1.714-3.643,2.244-8.083,1.962-12.084c-0.07-0.998-1.636-1.004-1.565,0
				c0.191,2.706-0.045,5.523-0.688,8.153c-1.313,5.357-4.618,8.304-9.913,9.574c-3.749,0.901-7.393,0.705-11.176,0.965
				c-0.629,0.044-0.91-0.084-1.474,0.189c-0.366,0.176-0.753,0.716-1.061,0.974c-0.611,0.515-2.205,1.246-0.854,0.252
				c0.537-0.396,0.469-1.571-0.395-1.457c-0.874,0.116-2.435,0.474-3.212,0.1c-0.938-0.451,0.573-0.407,1.21-0.56
				c0.47-0.114,0.95-0.199,1.429-0.262c0.832-0.112,1.115-1.255,0.208-1.535c-0.533-0.165-1.095-0.398-1.646-0.49
				c-0.298-0.051-1.723-0.11-0.777,0.064c0.831,0.153,1.734,0.102,2.579,0.218c0.795,0.108,1.474-0.987,0.603-1.429
				c-0.519-0.263-3.623-1.975-3.431-2.287c0.257-0.418,3.869,1.136,4.359,1.351c0.729,0.318,1.715-0.633,0.948-1.228
				c-0.613-0.474-1.587-0.985-1.108-1.734c0.441-0.687,0.94,0.297,1.715,0.582c2.124,0.779,5.431,0.042,7.432-0.795
				c4.415-1.847,7.493-6.433,7.08-11.218C60.649,83.886,59.083,83.877,59.17,84.88L59.17,84.88z"/>
		</g>
		<g>
			<path fill="#5B5B5B" d="M13.039,104.376c-0.646,2.351-1.011,4.738-1.105,7.174c-0.039,1.006,1.526,1.004,1.565,0
				c0.088-2.298,0.439-4.541,1.049-6.76C14.816,103.819,13.305,103.406,13.039,104.376L13.039,104.376z"/>
		</g>
		<g>
			<path fill="#5B5B5B" d="M10.526,99.818c0.391,0.467,0.878,0.854,1.416,1.139c0.891,0.469,1.683-0.879,0.791-1.35
				c-0.436-0.229-0.783-0.516-1.1-0.894c-0.271-0.323-0.827-0.28-1.108,0C10.205,99.034,10.255,99.493,10.526,99.818L10.526,99.818z
				"/>
		</g>
		<g>
			<path fill="#5B5B5B" d="M58.271,104.341c0.503,3.34,0.78,6.837,1.632,10.107c0.254,0.973,1.764,0.561,1.51-0.416
				c-0.853-3.27-1.129-6.766-1.632-10.107C59.631,102.934,58.122,103.356,58.271,104.341L58.271,104.341z"/>
		</g>
		<g>
			<path fill="#5B5B5B" d="M23.682,113.328c0.626-3.218,1.176-6.449,1.651-9.693c-0.251,0.191-0.503,0.383-0.755,0.573
				c3.209-0.164,6.413-0.45,9.603-0.828c0.989-0.118,1-1.681,0-1.564c-3.19,0.379-6.394,0.664-9.603,0.83
				c-0.308,0.016-0.704,0.229-0.754,0.573c-0.476,3.245-1.025,6.475-1.652,9.693C21.981,113.894,23.49,114.316,23.682,113.328
				L23.682,113.328z"/>
		</g>
		<g>
			<path fill="#5B5B5B" d="M47.065,105.178c0.661,2.838,0.133,5.774,0.744,8.626c0.21,0.984,1.72,0.567,1.511-0.415
				c-0.61-2.849-0.081-5.778-0.745-8.626C48.346,103.784,46.837,104.198,47.065,105.178L47.065,105.178z"/>
		</g>
		<g>
			<path fill="#5B5B5B" d="M32.04,97.915c0.742,1.668,1.484,3.338,2.226,5.006c0.558,1.253,1.019,2.547,1.979,3.553
				c0.227,0.238,0.668,0.308,0.949,0.122c0.661-0.437,1.313-0.788,2.059-1.067c0.934-0.351,0.529-1.862-0.416-1.507
				c-0.865,0.324-1.66,0.714-2.433,1.225c0.316,0.041,0.632,0.081,0.949,0.122c-0.98-1.03-1.43-2.552-1.996-3.826
				c-0.654-1.473-1.309-2.945-1.964-4.418C32.983,96.209,31.635,97.003,32.04,97.915L32.04,97.915z"/>
		</g>
		<g>
			<path fill="#5B5B5B" d="M27.731,79.459c0.615,2.549,1.406,5.034,2.378,7.468c0.368,0.923,1.883,0.521,1.51-0.416
				c-0.971-2.434-1.763-4.919-2.378-7.467C29.004,78.067,27.495,78.481,27.731,79.459L27.731,79.459z"/>
		</g>
		<g>
			<path fill="#5B5B5B" d="M34.13,96.126c1.008,3.078,2.185,6.087,3.522,9.038c0.414,0.915,1.764,0.121,1.351-0.789
				c-1.28-2.829-2.396-5.715-3.364-8.664C35.328,94.76,33.816,95.167,34.13,96.126L34.13,96.126z"/>
		</g>
		<g>
			<path fill="#5B5B5B" d="M15.314,31.187c-2.422-0.559-4.326,1.064-4.247,3.541c0.079,2.456,2.083,3.831,4.424,3.466
				c0.992-0.155,0.57-1.662-0.417-1.507c0.312-0.049-0.17,0.01-0.273,0.008c-0.246-0.006-0.486-0.012-0.728-0.067
				c-0.965-0.219-1.401-0.93-1.44-1.899c-0.059-1.501,0.927-2.344,2.265-2.034C15.878,32.92,16.298,31.414,15.314,31.187
				L15.314,31.187z"/>
		</g>
		<g>
			<path fill="#5B5B5B" d="M14.396,31.94c-0.357-2.877-0.534-5.795-0.537-8.691c-0.005-2.28,0.044-4.643,0.577-6.866
				c0.445-1.851,2.759-6.534,4.874-4.111c0.361,0.414,1.22,0.228,1.308-0.346c0.35-2.299,1.47-4.606,2.977-6.363
				c4.406-5.129,11.876-4.456,17.755-2.696c5.801,1.736,10.928,5.657,12.328,11.776c1.301,5.68,0.494,12.466-0.461,18.181
				c-0.163,0.984,1.344,1.406,1.51,0.416c1.05-6.285,2.066-13.838,0.198-20.024C53.07,7.076,47.723,3.142,41.766,1.359
				c-5.961-1.784-13.355-2.444-18.282,2.079c-2.226,2.043-3.917,5.065-4.376,8.074c0.436-0.116,0.873-0.231,1.308-0.346
				c-3.565-4.087-7.173,2.911-7.686,5.814c-0.86,4.867-0.507,10.077,0.1,14.96C12.953,32.925,14.52,32.937,14.396,31.94
				L14.396,31.94z"/>
		</g>
		<g>
			<path fill="#5B5B5B" d="M15.105,29.541c1.872-1.408,2.033-4.285,2.105-6.391c-0.512,0.07-1.026,0.14-1.538,0.208
				c0.267,1.426,1.736,8.818,4.11,5.368c1.212-1.761,1.463-4.74,1.912-6.77c0.44-2.001,0.845-4.012,1.215-6.027
				c-0.504,0-1.007,0-1.51,0c1.024,2.689,3.045,8.72,6.453,9.139c3.817,0.47,3.853-5.828,3.675-8.204
				c-0.487,0.131-0.972,0.262-1.459,0.394c1.585,2.799,3.544,7.281,6.365,9.033c3.298,2.049,3.306-3.51,3.112-5.426
				c-0.486,0.132-0.972,0.263-1.459,0.394c0.954,1.574,2.88,5.702,4.921,6.039c2.341,0.386,1.867-3.406,1.693-4.719
				c-0.513,0.07-1.025,0.14-1.538,0.209c0.72,1.942,1.937,6.098,4.205,6.752c2.545,0.734,3.033-2.971,3.059-4.673
				c-0.522,0-1.043,0-1.565,0c0.075,2.097,0.458,4.219,1.58,6.019c0.531,0.852,1.886,0.068,1.353-0.789
				c-0.974-1.563-1.302-3.41-1.367-5.231c-0.036-1.003-1.55-1.01-1.565,0c-0.032,2.021-0.92,3.92-2.414,1.393
				c-0.721-1.221-1.284-2.561-1.776-3.887c-0.279-0.756-1.662-0.73-1.538,0.207c0.174,1.311,0.661,3.648-0.933,1.967
				c-1.091-1.151-1.941-2.721-2.762-4.075c-0.374-0.617-1.541-0.416-1.458,0.393c0.083,0.823,0.423,2.874-0.057,3.603
				c-0.75,1.133-0.597,0.346-1.373-0.238c-0.624-0.468-1.121-1.412-1.573-2.054c-1.285-1.833-2.454-3.759-3.556-5.706
				c-0.366-0.647-1.518-0.395-1.458,0.394c0.142,1.91-0.257,8.927-3.344,5.561c-1.714-1.869-2.818-4.572-3.709-6.912
				c-0.245-0.644-1.357-0.834-1.51,0c-0.551,3.004-1.151,6.009-1.905,8.969c-0.213,0.838-0.436,1.675-0.705,2.499
				c-0.407,1.243-0.116,1.267-0.455,0.323c-0.511-1.419-0.876-2.878-1.154-4.361c-0.166-0.895-1.507-0.64-1.538,0.207
				c-0.045,1.332-0.038,4.072-1.33,5.042C13.519,28.789,14.298,30.147,15.105,29.541L15.105,29.541z"/>
		</g>
		<path fill="#5B5B5B" d="M25.018,32.296c0,0.947-0.77,1.714-1.718,1.714c-0.95,0-1.72-0.767-1.72-1.714
			c0-0.947,0.77-1.715,1.72-1.715C24.248,30.58,25.018,31.349,25.018,32.296z"/>
		<path fill="#5B5B5B" d="M44.775,33.152c0,0.947-0.77,1.715-1.717,1.715c-0.95,0-1.72-0.768-1.72-1.715
			c0-0.946,0.77-1.714,1.72-1.714C44.006,31.438,44.775,32.206,44.775,33.152z"/>
		<g>
			<path fill="#5B5B5B" d="M21.702,30.131c0.787-0.754,1.946-0.896,2.896-0.361c0.88,0.494,1.669-0.856,0.79-1.349
				c-1.565-0.882-3.498-0.633-4.795,0.606C19.867,29.723,20.974,30.827,21.702,30.131L21.702,30.131z"/>
		</g>
		<g>
			<path fill="#5B5B5B" d="M41.947,30.449c0.899-0.61,2.528-0.994,2.971,0.372c0.31,0.953,1.822,0.545,1.511-0.416
				c-0.755-2.33-3.457-2.536-5.271-1.306C40.33,29.662,41.111,31.016,41.947,30.449L41.947,30.449z"/>
		</g>
		<g>
			<path fill="#5B5B5B" d="M29.175,35.267c-0.267,2.718,0.191,6.631,3.78,6.619c3.122-0.01,4.448-2.719,4.903-5.389
				c0.166-0.984-1.342-1.407-1.51-0.416c-0.301,1.771-0.779,3.737-2.812,4.181c-3.043,0.663-2.983-3.083-2.797-4.995
				C30.837,34.266,29.271,34.272,29.175,35.267L29.175,35.267z"/>
		</g>
		<g>
			<path fill="#5B5B5B" d="M48.062,10.238c0.7,0.489,1.187,1.194,1.424,2.01c0.195,0.671,1.246,0.386,1.051-0.288
				c-0.32-1.1-0.987-2.005-1.925-2.66C48.037,8.899,47.492,9.84,48.062,10.238L48.062,10.238z"/>
		</g>
		<g>
			<path fill="#5B5B5B" d="M50.364,15.387c0.199,0.76,0.398,1.521,0.596,2.281c0.178,0.676,1.228,0.389,1.05-0.289
				c-0.197-0.76-0.397-1.52-0.595-2.281C51.238,14.421,50.187,14.709,50.364,15.387L50.364,15.387z"/>
		</g>
		<g>
			<path fill="#5B5B5B" d="M46.964,13.335c0.358,0.647,0.683,1.309,0.977,1.988c0.117,0.272,0.511,0.327,0.744,0.195
				c0.282-0.159,0.311-0.476,0.197-0.743c-0.294-0.679-0.619-1.341-0.977-1.989C47.565,12.173,46.625,12.722,46.964,13.335
				L46.964,13.335z"/>
		</g>
	</g>
	<g>
		<g>
			<path fill="#5B5B5B" d="M90.674,29.038c-1.549,3.46-2.783,7.959-1.569,11.684c0.783,2.401,2.488,3.655,4.778,4.509
				c1.97,0.732,4.197,1.243,6.025,2.313c2.421,1.414,1.458,3.176,0.138,5.152c-0.562,0.84,0.795,1.623,1.352,0.79
				c1.085-1.625,2.437-3.775,1.229-5.697c-1.359-2.161-5.11-2.934-7.287-3.698c-4.451-1.566-5.644-4.491-4.887-8.99
				c0.303-1.791,0.828-3.612,1.572-5.275C92.433,28.915,91.085,28.121,90.674,29.038L90.674,29.038z"/>
		</g>
		<g>
			<path fill="#5B5B5B" d="M123.673,29.64c0.303,1.993,0.402,4.067,0.287,6.079c-0.095,1.687-0.278,3.769-1.25,5.233
				c-1.154,1.738-3.471,2.486-5.298,3.308c-2.078,0.937-4.118,1.893-4.241,4.429c-0.094,1.91,0.88,4.12,2.593,5.076
				c0.88,0.492,1.67-0.857,0.79-1.348c-1.707-0.955-2.093-3.205-1.174-4.734c0.995-1.656,2.862-2.028,4.539-2.832
				c2.176-1.042,3.89-2.131,4.77-4.436c1.313-3.443,1.039-7.612,0.493-11.191C125.031,28.234,123.524,28.654,123.673,29.64
				L123.673,29.64z"/>
		</g>
		<g>
			<path fill="#5B5B5B" d="M89.43,32.911c-2.289-1.056-5.17,0.999-5.804,3.28c-0.837,3.016,2.424,4.444,4.876,4.389
				c1.005-0.022,1.009-1.585,0-1.563c-1.412,0.032-3.948-0.49-3.331-2.481c0.357-1.158,2.185-2.868,3.47-2.278
				C89.549,34.68,90.345,33.333,89.43,32.911L89.43,32.911z"/>
		</g>
		<g>
			<path fill="#5B5B5B" d="M125.488,34.414c1.448-0.565,2.85,0.587,2.576,2.136c-0.275,1.561-1.762,2.239-3.218,2.181
				c-1.008-0.04-1.006,1.523,0,1.563c2.437,0.098,4.829-1.533,4.823-4.141c-0.006-2.344-2.353-4.122-4.598-3.245
				C124.143,33.27,124.547,34.781,125.488,34.414L125.488,34.414z"/>
		</g>
		<g>
			<path fill="#5B5B5B" d="M89.934,30.384c11.926-1.494,23.919-1.716,35.893-0.668c1.003,0.087,0.998-1.475,0-1.562
				c-11.973-1.049-23.966-0.827-35.893,0.668C88.949,28.946,88.936,30.51,89.934,30.384L89.934,30.384z"/>
		</g>
		<g>
			<path fill="#5B5B5B" d="M101.825,50.109c-3.821-0.232-7.651-0.253-11.477-0.339c-1.362-0.029-4.375,0.453-5.575-0.186
				c-0.29-0.154,0.091,0.389-0.353-0.35c-1.109-1.845-0.761-5.909-0.822-7.943c-0.265-8.691,0.838-18.534,6.182-25.715
				c6.733-9.047,20.87-10.37,30.179-4.552c8.51,5.321,11,16.065,11.317,25.436c0.126,3.732-0.057,7.49-0.547,11.194
				c-0.052,0.396-0.029,1.908-0.341,2.207c0.738-0.71-2.821-0.678-1.871-0.53c-1.586-0.247-3.467,0.035-5.073,0.072
				c-2.981,0.068-5.96,0.186-8.939,0.326c-1.003,0.048-1.009,1.611,0,1.562c5.541-0.261,11.082-0.404,16.631-0.403
				c0.32,0,0.69-0.24,0.754-0.572c2.741-14.283,1.416-35.345-13.876-42.072c-9.752-4.29-22.555-2.593-29.257,6.107
				c-5.705,7.407-6.977,17.638-6.732,26.712c0.067,2.533-0.226,6.737,1.015,9.08c0.783,1.477,2.279,1.038,3.909,1.098
				c4.958,0.179,9.922,0.13,14.875,0.431C102.832,51.732,102.827,50.169,101.825,50.109L101.825,50.109z"/>
		</g>
		<g>
			<path fill="#5B5B5B" d="M90.736,19.548c-0.644,2.084-1.183,4.194-1.568,6.342c-0.285,1.596-0.578,3.066,0.115,4.583
				c0.418,0.914,1.767,0.122,1.353-0.788c-0.711-1.554,0.118-3.925,0.473-5.515c0.317-1.418,0.707-2.817,1.137-4.206
				C92.544,19.001,91.032,18.588,90.736,19.548L90.736,19.548z"/>
		</g>
		<g>
			<path fill="#5B5B5B" d="M97.448,19.405c-0.456,2.152-0.889,4.322-1.175,6.504c-0.163,1.249-0.222,2.41,0.542,3.475
				c0.582,0.81,1.941,0.031,1.353-0.789c-0.9-1.255-0.279-3.047-0.043-4.449c0.244-1.448,0.528-2.89,0.832-4.326
				C99.165,18.84,97.655,18.42,97.448,19.405L97.448,19.405z"/>
		</g>
		<g>
			<path fill="#5B5B5B" d="M103.393,20.163c0.316,2.503,0.413,5.005,0.29,7.526c-0.048,1.005,1.517,1.001,1.567,0
				c0.121-2.521,0.024-5.023-0.291-7.526C104.834,19.179,103.268,19.165,103.393,20.163L103.393,20.163z"/>
		</g>
		<g>
			<path fill="#5B5B5B" d="M110.32,19.069c0.391,2.994,0.782,5.986,1.173,8.978c0.129,0.983,1.696,0.996,1.565,0
				c-0.39-2.992-0.781-5.984-1.172-8.978C111.759,18.087,110.191,18.073,110.32,19.069L110.32,19.069z"/>
		</g>
		<g>
			<path fill="#5B5B5B" d="M117.848,19.286c0.552,2.841,0.877,5.698,0.986,8.59c0.039,1.003,1.605,1.008,1.566,0
				c-0.114-3.032-0.463-6.028-1.042-9.007C119.166,17.883,117.658,18.301,117.848,19.286L117.848,19.286z"/>
		</g>
		<g>
			<path fill="#5B5B5B" d="M122.757,19.683c1.284,3.104,2.136,6.312,2.512,9.651c0.111,0.989,1.678,0.999,1.565,0
				c-0.392-3.486-1.224-6.822-2.568-10.067C123.887,18.35,122.372,18.751,122.757,19.683L122.757,19.683z"/>
		</g>
		<g>
			<path fill="#5B5B5B" d="M93.568,15.693c1.479-1.503,3.238-2.561,5.264-3.153c0.965-0.283,0.555-1.79-0.417-1.507
				c-2.275,0.665-4.293,1.865-5.955,3.554C91.753,15.306,92.86,16.411,93.568,15.693L93.568,15.693z"/>
		</g>
		<g>
			<path fill="#5B5B5B" d="M102.468,11.048c0.122,0,0.245,0,0.368,0c1.007,0,1.008-1.564,0-1.564c-0.123,0-0.246,0-0.368,0
				C101.461,9.484,101.459,11.048,102.468,11.048L102.468,11.048z"/>
		</g>
		<ellipse fill="#5B5B5B" cx="96.83" cy="35.805" rx="2.054" ry="2.049"/>
		<path fill="#5B5B5B" d="M119.192,36.281c0,1.131-0.921,2.05-2.054,2.05c-1.135,0-2.055-0.919-2.055-2.05
			c0-1.133,0.92-2.051,2.055-2.051C118.271,34.231,119.192,35.149,119.192,36.281z"/>
		<g>
			<path fill="#5B5B5B" d="M104.217,38.499c-1.155,2.256,0.221,4.93,2.764,5.247c2.716,0.341,4.657-1.978,4.716-4.523
				c0.024-1.006-1.542-1.005-1.565,0c-0.035,1.484-0.974,2.955-2.591,3c-1.551,0.043-2.708-1.502-1.972-2.936
				C106.028,38.394,104.677,37.602,104.217,38.499L104.217,38.499z"/>
		</g>
		<g>
			<path fill="#5B5B5B" d="M94.398,33.022c1.64-1.602,3.927-1.97,6.023-1.093c0.928,0.389,1.333-1.124,0.417-1.506
				c-2.595-1.086-5.549-0.455-7.548,1.496C92.569,32.623,93.677,33.727,94.398,33.022L94.398,33.022z"/>
		</g>
		<g>
			<path fill="#5B5B5B" d="M115.341,32.469c1.162-1.005,3.141-0.851,4.087,0.388c0.602,0.789,1.963,0.012,1.352-0.789
				c-1.581-2.069-4.557-2.425-6.545-0.704C113.472,32.023,114.582,33.124,115.341,32.469L115.341,32.469z"/>
		</g>
		<g>
			<path fill="#5B5B5B" d="M99.498,53.887c2.673,1.686,5.556,3.238,8.806,3.22c3.132-0.018,5.025-1.819,7.616-3.253
				c0.883-0.488,0.093-1.838-0.789-1.349c-2.341,1.296-3.874,2.981-6.826,3.039c-2.948,0.059-5.611-1.489-8.016-3.005
				C99.433,51.998,98.648,53.351,99.498,53.887L99.498,53.887z"/>
		</g>
		<g>
			<path fill="#5B5B5B" d="M99.643,51.72c-3.032,1.916-6.532,7.202-2.57,9.965c3.858,2.69,8.818-0.948,11.051-4.061
				c0.588-0.82-0.769-1.601-1.352-0.79c-1.521,2.12-4.371,4.558-7.192,4.099c-2.484-0.403-3.076-2.663-1.982-4.716
				c0.685-1.288,1.595-2.365,2.834-3.148C101.283,52.532,100.498,51.179,99.643,51.72L99.643,51.72z"/>
		</g>
		<g>
			<path fill="#5B5B5B" d="M107.113,57.096c1.187,4.169,6.143,5.571,9.854,3.714c3.633-1.819,3.771-6.636,0.171-8.563
				c-0.887-0.475-1.679,0.873-0.789,1.349c3.251,1.742,1.885,5.407-1.234,6.228c-2.694,0.71-5.689-0.324-6.493-3.143
				C108.348,55.715,106.837,56.126,107.113,57.096L107.113,57.096z"/>
		</g>
		<g>
			<path fill="#5B5B5B" d="M106.516,56.964c-0.913,1.472-6.146,9.018-2.309,9.815c1.372,0.285,2.617-0.897,3.278-1.95
				c1.218-1.94,1.161-4.305,1.052-6.504c-0.05-1-1.615-1.007-1.566,0c0.068,1.36,0.167,2.786-0.174,4.119
				c-0.164,0.641-1.615,3.859-2.38,2.11c-0.231-0.529,1.318-3.011,1.628-3.612c0.561-1.089,1.176-2.148,1.822-3.189
				C108.399,56.895,107.045,56.109,106.516,56.964L106.516,56.964z"/>
		</g>
		<g>
			<path fill="#5B5B5B" d="M106.93,58.096c-0.287,1.784-0.906,9.441,2.561,8.893c1.396-0.221,2.057-1.85,2.157-3.083
				c0.155-1.903-0.798-3.58-1.825-5.103c-0.56-0.831-1.916-0.049-1.352,0.788c0.501,0.743,1.033,1.512,1.335,2.364
				c0.215,0.606,0.573,3.841-0.63,3.073c-0.782-0.5-0.822-2.237-0.891-3.072c-0.092-1.157-0.03-2.3,0.155-3.444
				C108.599,57.528,107.09,57.105,106.93,58.096L106.93,58.096z"/>
		</g>
		<g>
			<path fill="#5B5B5B" d="M97.669,52.844c-12.98,6.682-18.308,22.572-20.882,36.008c-1.428,7.447-1.526,18.727,8.565,19.034
				c1.007,0.031,1.006-1.532,0-1.562c-9.498-0.29-8.216-12.171-6.715-18.669c2.911-12.612,7.492-27.116,19.823-33.463
				C99.356,53.732,98.563,52.384,97.669,52.844L97.669,52.844z"/>
		</g>
		<g>
			<path fill="#5B5B5B" d="M117.905,54.613c11.56,4.681,15.97,18.043,18.843,29.195c1.746,6.774,4.775,21.043-5.789,21.839
				c-0.999,0.075-1.006,1.638,0,1.562c11.152-0.839,9.561-14.098,7.763-21.919c-2.831-12.309-7.738-27.056-20.4-32.183
				C117.388,52.728,116.982,54.239,117.905,54.613L117.905,54.613z"/>
		</g>
		<g>
			<path fill="#5B5B5B" d="M98.592,62.145c-0.395,2.628-1.151,5.882-0.389,8.471c0.075,0.255,0.28,0.484,0.546,0.547
				c2.269,0.53,5.113,0.033,7.442-0.032c3.119-0.087,6.238-0.176,9.356-0.264c0.422-0.012,0.784-0.349,0.784-0.781
				c-0.008-3.026,0.146-6.016,0.464-9.025c0.106-0.999-1.461-0.992-1.566,0c-0.318,3.009-0.473,5.999-0.464,9.025
				c0.261-0.261,0.521-0.522,0.782-0.781c-3.563,0.099-7.128,0.201-10.692,0.3c-1.598,0.047-4.365,0.82-5.279-1.001
				c-0.568-1.133,0.366-4.974,0.527-6.043C100.25,61.577,98.742,61.152,98.592,62.145L98.592,62.145z"/>
		</g>
		<g>
			<path fill="#5B5B5B" d="M91.437,58.03c0.895,3.028,1.451,6.175,1.243,9.34c-0.125,1.914-0.528,3.87-1.435,5.578
				c-0.65,1.225-2.063,2.168-2.565,3.378c-0.898,2.16-0.707,5.309-0.949,7.59c-1.025,9.646-1.532,19.644-3.817,29.096
				c-0.236,0.978,1.274,1.394,1.51,0.416c2.342-9.689,2.854-19.946,3.907-29.83c0.192-1.802,0.264-3.678,0.613-5.458
				c0.346-1.759,1.526-2.402,2.448-4.012c2.842-4.956,2.104-11.273,0.554-16.515C92.662,56.652,91.151,57.062,91.437,58.03
				L91.437,58.03z"/>
		</g>
		<g>
			<path fill="#5B5B5B" d="M124.931,58.94c-1.877,4.419-1.971,9.79-0.905,14.436c0.34,1.481,1.132,2.714,1.52,4.122
				c0.5,1.8,0.575,3.84,0.861,5.688c1.549,9.976,3.158,19.943,4.819,29.902c0.165,0.991,1.674,0.57,1.509-0.414
				c-1.516-9.102-2.985-18.214-4.416-27.33c-0.466-2.969-0.495-6.577-1.572-9.363c-1.959-5.076-2.692-11.014-0.464-16.253
				C126.671,58.813,125.324,58.016,124.931,58.94L124.931,58.94z"/>
		</g>
		<g>
			<path fill="#5B5B5B" d="M79.344,105.67c-0.466,2.575-0.093,5.063,1.138,7.377c0.474,0.888,1.825,0.099,1.352-0.789
				c-1.022-1.921-1.367-4.029-0.981-6.174C81.03,105.102,79.523,104.68,79.344,105.67L79.344,105.67z"/>
		</g>
		<g>
			<path fill="#5B5B5B" d="M135.052,105.397c0.391,1.694,0.316,3.353-0.193,5.013c-0.294,0.964,1.215,1.376,1.51,0.416
				c0.59-1.924,0.643-3.884,0.193-5.844C136.336,104.002,134.826,104.417,135.052,105.397L135.052,105.397z"/>
		</g>
		<g>
			<path fill="#5B5B5B" d="M93.091,59.804c0.975-0.839,1.95-1.678,2.926-2.517c0.466-0.4-0.21-1.07-0.674-0.673
				c-0.976,0.839-1.951,1.679-2.927,2.519C91.951,59.532,92.627,60.203,93.091,59.804L93.091,59.804z"/>
		</g>
		<g>
			<path fill="#5B5B5B" d="M93.717,62.444c1.114-0.752,2.106-1.645,2.953-2.69c0.382-0.472-0.287-1.149-0.674-0.673
				c-0.795,0.981-1.712,1.834-2.76,2.541C92.731,61.963,93.207,62.787,93.717,62.444L93.717,62.444z"/>
		</g>
		<g>
			<path fill="#5B5B5B" d="M94.139,65.381c1.075-1.192,2.152-2.384,3.228-3.576c0.41-0.454-0.262-1.129-0.674-0.673
				c-1.075,1.192-2.153,2.384-3.229,3.575C93.055,65.162,93.726,65.837,94.139,65.381L94.139,65.381z"/>
		</g>
		<g>
			<path fill="#5B5B5B" d="M93.979,68.613c1.802-1.975,3.603-3.951,5.405-5.926c0.413-0.453-0.26-1.126-0.674-0.672
				c-1.8,1.975-3.603,3.951-5.404,5.925C92.893,68.392,93.565,69.067,93.979,68.613L93.979,68.613z"/>
		</g>
	</g>
</g>
</svg>
