<?xml version="1.0" encoding="utf-8"?>
<!-- Generator: Adobe Illustrator 22.0.1, SVG Export Plug-In . SVG Version: 6.00 Build 0)  -->
<svg version="1.1" id="排版" xmlns="http://www.w3.org/2000/svg" xmlns:xlink="http://www.w3.org/1999/xlink" x="0px" y="0px"
	 viewBox="0 0 189.993 170.079" enable-background="new 0 0 189.993 170.079" xml:space="preserve">
<g>
	<path fill="#FFEBC2" d="M71.064,5.346c28.651-10.435,64.984-5.064,85.708,12.11c24.36,20.185,35.941,45.022,32.691,78.089
		c-1.443,14.691-9.417,32.264-20.493,43.333c-12.447,12.441-21.383,18.95-37.134,24.22c-14.354,4.802-17.659,4.757-32.707,6.275
		c-18.565,1.871-41.55-0.168-56.345-7.596C21.735,151.209,5.968,120.101,1.478,96.071C-2.229,76.241,0.417,51.695,16.554,35.62
		C30.477,21.749,47.072,14.152,67.179,6.667C67.179,6.667,68.043,6.447,71.064,5.346z"/>
	<path fill="#FFC789" d="M74.492,16.754c24.548-8.94,55.679-4.338,73.436,10.376c20.873,17.296,30.795,38.578,28.012,66.909
		c-1.237,12.587-8.07,27.646-17.561,37.13c-10.662,10.659-18.32,16.238-31.816,20.752c-12.301,4.115-15.131,4.077-28.024,5.377
		c-15.908,1.604-35.604-0.145-48.279-6.509c-18.035-9.055-31.545-35.709-35.393-56.298c-3.176-16.992-0.91-38.024,12.918-51.798
		c11.931-11.885,26.15-18.394,43.378-24.807C71.162,17.886,71.902,17.698,74.492,16.754z"/>
	<path fill="#FCB465" d="M76.259,22.636c22.433-8.17,50.882-3.965,67.109,9.482c19.075,15.805,28.142,35.253,25.598,61.144
		c-1.13,11.504-7.373,25.264-16.048,33.931c-9.745,9.741-16.742,14.839-29.074,18.966c-11.24,3.76-13.828,3.724-25.611,4.912
		c-14.538,1.466-32.537-0.132-44.12-5.948c-16.482-8.275-28.828-32.632-32.344-51.448c-2.902-15.528-0.829-34.748,11.805-47.334
		C44.479,35.479,57.472,29.53,73.215,23.67C73.215,23.67,73.891,23.498,76.259,22.636z"/>
</g>
</svg>
