<?xml version="1.0" encoding="utf-8"?>
<!-- Generator: Adobe Illustrator 22.0.1, SVG Export Plug-In . SVG Version: 6.00 Build 0)  -->
<svg version="1.1" id="排版" xmlns="http://www.w3.org/2000/svg" xmlns:xlink="http://www.w3.org/1999/xlink" x="0px" y="0px"
	 viewBox="0 0 1920 3953.044" enable-background="new 0 0 1920 3953.044" xml:space="preserve">
<g>
	<path fill="#FFFFDC" d="M1544.484,3853.47c0,0-21.535-3.942-41.477,11.826c-19.94,15.768-5.582,42.236,12.761,46.74
		c-14.355,12.389-1.594,32.662,28.716,35.479c30.309,2.814,37.487-11.264,37.487-11.264s7.977,18.584,44.668,16.895
		c36.689-1.689,33.499-18.584,33.499-18.584s15.155,6.195,36.689-4.505c21.536-10.7,7.18-31.536,7.18-31.536
		s26.924-16.895,4.688-38.294c-22.236-21.399-52.546-10.136-52.546-10.136s-19.143-23.089-63.012-20.273
		C1549.27,3832.634,1544.484,3853.47,1544.484,3853.47z"/>
</g>
<g>
	<path fill="#FFFFDC" d="M203.015,2813.313c0,0-25.763-4.324-49.619,12.974c-23.854,17.299-6.678,46.334,15.267,51.275
		c-17.174,13.592-1.907,35.832,34.352,38.921c36.26,3.089,44.848-12.355,44.848-12.355s9.542,20.387,53.437,18.534
		c43.893-1.854,40.076-20.388,40.076-20.388s18.13,6.795,43.893-4.942c25.764-11.738,8.589-34.596,8.589-34.596
		s32.209-18.534,5.608-42.01c-26.602-23.476-62.861-11.119-62.861-11.119s-22.901-25.329-75.383-22.24
		C208.739,2790.455,203.015,2813.313,203.015,2813.313z"/>
</g>
<g>
	<path fill="#FFFFDC" d="M1456.015,2305.194c0,0-25.763-4.324-49.619,12.973c-23.854,17.299-6.678,46.334,15.267,51.275
		c-17.174,13.592-1.907,35.832,34.353,38.921c36.26,3.089,44.848-12.355,44.848-12.355s9.542,20.387,53.437,18.534
		c43.893-1.854,40.076-20.388,40.076-20.388s18.13,6.795,43.893-4.942c25.764-11.738,8.589-34.596,8.589-34.596
		s32.209-18.534,5.608-42.01c-26.602-23.476-62.861-11.119-62.861-11.119s-22.901-25.329-75.383-22.24
		C1461.739,2282.336,1456.015,2305.194,1456.015,2305.194z"/>
</g>
<g>
	<path fill="#FFFFDC" d="M316.015,1553.193c0,0-25.763-4.324-49.619,12.974c-23.855,17.299-6.678,46.334,15.267,51.275
		c-17.174,13.592-1.907,35.832,34.353,38.921c36.26,3.089,44.848-12.355,44.848-12.355s9.542,20.387,53.436,18.534
		c43.893-1.854,40.076-20.388,40.076-20.388s18.13,6.795,43.893-4.942c25.764-11.738,8.589-34.596,8.589-34.596
		s32.209-18.534,5.608-42.01c-26.602-23.476-62.861-11.119-62.861-11.119s-22.901-25.329-75.383-22.24
		C321.739,1530.336,316.015,1553.193,316.015,1553.193z"/>
</g>
<g>
	<path fill="#FFFFDC" d="M340.015,705.193c0,0-25.763-4.324-49.619,12.974c-23.855,17.299-6.678,46.334,15.267,51.275
		c-17.174,13.592-1.907,35.832,34.353,38.921c36.26,3.089,44.848-12.356,44.848-12.356s9.542,20.387,53.436,18.534
		c43.893-1.854,40.076-20.388,40.076-20.388s18.13,6.795,43.893-4.942c25.764-11.738,8.589-34.596,8.589-34.596
		s32.209-18.534,5.608-42.01c-26.602-23.476-62.861-11.119-62.861-11.119s-22.901-25.329-75.383-22.24
		C345.739,682.336,340.015,705.193,340.015,705.193z"/>
</g>
<g>
	<path fill="#FFFFDC" d="M1403.515,865.318c0,0-25.763-4.324-49.619,12.974c-23.854,17.299-6.678,46.334,15.267,51.275
		c-17.174,13.592-1.907,35.832,34.353,38.921c36.26,3.089,44.848-12.356,44.848-12.356s9.542,20.387,53.437,18.534
		c43.893-1.854,40.076-20.388,40.076-20.388s18.13,6.795,43.893-4.942c25.764-11.738,8.589-34.596,8.589-34.596
		s32.209-18.534,5.608-42.01c-26.602-23.476-62.861-11.119-62.861-11.119s-22.901-25.329-75.383-22.24
		C1409.239,842.461,1403.515,865.318,1403.515,865.318z"/>
</g>
</svg>
