<?xml version="1.0" encoding="utf-8"?>
<!-- Generator: Adobe Illustrator 22.0.1, SVG Export Plug-In . SVG Version: 6.00 Build 0)  -->
<svg version="1.1" id="排版" xmlns="http://www.w3.org/2000/svg" xmlns:xlink="http://www.w3.org/1999/xlink" x="0px" y="0px"
	 viewBox="0 0 360.084 97.61" enable-background="new 0 0 360.084 97.61" xml:space="preserve">
<path fill="#DCF4D3" d="M308.396,85.568c-33.523,0-68.352-2.913-100.395,4.502c-36.124,8.359-74.945,10.826-111.392,2
	c-14.803-3.584-47.763-9.803-46.35-32.456c1.596-25.571,52.503-30.265,70.677-33.989c26.608-5.452,53.375-11.816,81.007-12.057
	c24.759-0.216,71.47-10.151,90.94,5.903c8.338,6.876,17.811,24.946,25.408,34.097c19.657,23.674,2.336,13.42-7.896,32"/>
<text transform="matrix(1.0107 0 0 1 165.759 62.3666)" fill="#686868" font-family="'MicrosoftJhengHeiRegular'" font-size="30px" letter-spacing="1.979">幼兒日常</text>
<polyline fill="none" stroke="#000000" stroke-width="2" stroke-miterlimit="10" points="21.11,13.556 0.996,13.556 0.996,83.975 
	21.11,83.975 "/>
<polyline fill="none" stroke="#000000" stroke-width="2" stroke-miterlimit="10" points="338.97,83.975 359.084,83.975 
	359.084,13.556 338.97,13.556 "/>
<g>
	<g>
		<path fill="#3E3A39" d="M108.57,13.081c0.019,1.396-1.097,2.542-2.492,2.562c-1.396,0.019-2.542-1.097-2.562-2.492
			c-0.019-1.396,1.097-2.543,2.492-2.562C107.404,10.569,108.551,11.685,108.57,13.081z"/>
	</g>
	<g>
		<path fill="#3E3A39" d="M121.715,13.157c0.019,1.396-1.096,2.542-2.492,2.561c-1.395,0.02-2.542-1.097-2.562-2.492
			c-0.019-1.394,1.097-2.542,2.492-2.561C120.549,10.646,121.696,11.761,121.715,13.157z"/>
	</g>
	<g>
		<g>
			<path fill="#3E3A39" d="M110.562,17.67c1.389,0.787,3.05,0.784,4.429-0.023c1.171-0.686,0.111-2.51-1.064-1.821
				c-0.732,0.428-1.561,0.442-2.3,0.023C110.445,15.177,109.381,17,110.562,17.67L110.562,17.67z"/>
		</g>
	</g>
	<g>
		<g>
			<path fill="#3E3A39" d="M111.936,17.482c-0.153,1.31-0.501,2.609-1.025,3.82c-0.534,1.232,1.283,2.309,1.821,1.064
				c0.685-1.58,1.114-3.174,1.314-4.885C114.203,16.136,112.093,16.147,111.936,17.482L111.936,17.482z"/>
		</g>
	</g>
	<g>
		<g>
			<path fill="#3E3A39" d="M111.949,17.245c0.066,1.573,0.518,3.069,1.38,4.392c0.739,1.133,2.565,0.076,1.821-1.065
				c-0.663-1.016-1.041-2.111-1.092-3.327C114.001,15.892,111.891,15.885,111.949,17.245L111.949,17.245z"/>
		</g>
	</g>
	<g>
		<path fill="#3E3A39" d="M107.108,45.382c0,0-1.811-9.782,7.971-10.145c9.782-0.362,7.97,10.145,7.97,10.145H107.108z"/>
	</g>
	<g>
		<g>
			<path fill="#3E3A39" d="M31.238,63.572c-0.169-1.099,0.302-2.145,1.102-2.874c1.004-0.918-0.491-2.406-1.492-1.491
				c-1.394,1.274-1.928,3.086-1.644,4.926c0.088,0.566,0.793,0.869,1.298,0.736C31.104,64.71,31.325,64.131,31.238,63.572
				L31.238,63.572z"/>
		</g>
	</g>
	<g>
		<g>
			<path fill="#3E3A39" d="M36.791,59.029c0-0.081,0-0.162,0-0.242c0-1.356-2.109-1.359-2.109,0c0,0.08,0,0.161,0,0.242
				C34.681,60.385,36.791,60.388,36.791,59.029L36.791,59.029z"/>
		</g>
	</g>
	<g>
		<g>
			<path fill="#3E3A39" d="M80.902,53.889c21.737,0.049,43.476,0.098,65.213,0.147c1.358,0.002,1.359-2.107,0-2.109
				c-21.737-0.049-43.476-0.099-65.213-0.148C79.545,51.777,79.543,53.885,80.902,53.889L80.902,53.889z"/>
		</g>
	</g>
	<g>
		<g>
			<path fill="#3E3A39" d="M79.932,61.15c21.869-0.239,43.706-0.24,65.58-0.222c1.357,0.001,1.359-2.108,0-2.108
				c-21.874-0.02-43.711-0.019-65.58,0.221C78.575,59.056,78.573,61.166,79.932,61.15L79.932,61.15z"/>
		</g>
	</g>
	<g>
		<g>
			<path fill="#3E3A39" d="M45.118,48.437c0.257,1.09,0.756,2.025,1.442,2.902c0.352,0.449,1.123,0.369,1.492,0
				c0.442-0.443,0.352-1.041,0-1.49c-0.457-0.583-0.732-1.26-0.9-1.973C46.841,46.556,44.806,47.115,45.118,48.437L45.118,48.437z"
				/>
		</g>
	</g>
	<g>
		<g>
			<path fill="#3E3A39" d="M48.544,48.242c0.414,0.636,0.828,1.272,1.243,1.908c0.738,1.134,2.565,0.078,1.821-1.064
				c-0.414-0.637-0.828-1.272-1.243-1.909C49.627,46.043,47.801,47.099,48.544,48.242L48.544,48.242z"/>
		</g>
	</g>
	<g>
		<g>
			<path fill="#3E3A39" d="M39.548,80.806c0.519,1.274,1.394,2.149,2.674,2.658c0.53,0.21,1.158-0.23,1.297-0.737
				c0.165-0.6-0.205-1.086-0.736-1.297c-0.52-0.206-0.99-0.666-1.202-1.185c-0.214-0.527-0.701-0.901-1.297-0.737
				C39.785,79.646,39.331,80.275,39.548,80.806L39.548,80.806z"/>
		</g>
	</g>
	<g>
		<g>
			<path fill="#3E3A39" d="M101.312,72.949c-5.282-0.082-10.564-0.166-15.847-0.248c-1.338-0.021-5.081,0.599-6.28-0.099
				c-1.076-0.625,0.158,2.296,0.666-0.959c0.202-1.285,0.188-2.701,0.279-4.011c0.279-4.012,0.557-8.022,0.836-12.033
				c0.116-1.671,0.232-3.343,0.348-5.014c0.026-0.375,0.189-4.705-0.684-3.958c0.123-0.106,0.591,0.063,0.739,0.014
				c1.082-0.37,3.122,0.06,4.252,0.081c5.781,0.109,11.562,0.22,17.343,0.329c12.585,0.238,25.169,0.477,37.754,0.716
				c1.412,0.027,3.547,0.472,4.911,0.094c0.352-0.098,0.778,0.089,1.138,0.021c-0.444,0.085-0.215-1.253-0.897-0.312
				c-0.688,0.949-0.237,4.746-0.294,5.873c-0.182,3.654-0.365,7.31-0.548,10.965c-0.148,2.981-0.743,6.285-0.462,9.26
				c0.063,0.666-0.048,1.426-0.106,2.099c0.232-2.755,1.581-0.604,0.615-1.009c-0.418-0.175-1.349-0.008-1.791-0.011
				c-5.966-0.036-11.933-0.073-17.899-0.109c-1.357-0.008-1.358,2.101,0,2.108c6.709,0.042,13.419,0.082,20.128,0.124
				c0.591,0.003,1.026-0.487,1.055-1.056c0.483-9.661,0.966-19.322,1.449-28.982c0.028-0.578-0.507-1.045-1.054-1.055
				c-22.118-0.42-44.237-0.84-66.354-1.259c-0.599-0.012-1.016,0.493-1.055,1.054c-0.65,9.359-1.3,18.719-1.95,28.077
				c-0.04,0.575,0.516,1.046,1.054,1.054c7.552,0.118,15.104,0.236,22.655,0.355C102.669,75.079,102.67,72.97,101.312,72.949
				L101.312,72.949z"/>
		</g>
	</g>
	<g>
		<g>
			<path fill="#3E3A39" d="M34.831,73.121c-1.212-0.041-5.803,0.501-6.445,0.233c-0.798-0.332-0.063,0.71-0.482-0.792
				c-0.517-1.852-0.003-4.801,0.045-6.728c0.051-2.013-0.184-4.485,0.472-6.405c1.278-3.741,5.8-3.514,9.127-3.573
				c0.572-0.01,1.052-0.475,1.054-1.054c0.017-3.174,0.258-6.443,0.994-9.531c1.202-5.041,3.322-5.979,8.067-6.316
				c7.847-0.56,15.8-0.224,23.652,0.095c0.548,0.021,2.3-0.189,2.754,0.12c0.851,0.58-0.752,0.028-0.567,0.791
				c0.41,1.697,0.091,3.856,0.119,5.627c0.118,7.74,0.075,15.482-0.059,23.223c0.007-0.44,0.21,5.611,0.852,4.501
				c-0.058,0.101-1.138-0.019-1.205,0c-1.445,0.38-3.63,0-5.123,0c-2.812,0-5.625,0-8.437,0c-1.357,0-1.36,2.109,0,2.109
				c4.951,0,9.903,0,14.854,0c0.58,0,1.042-0.483,1.055-1.055c0.271-12.075,0.357-24.155,0-36.229
				c-0.018-0.592-0.47-1.025-1.055-1.055c-6.737-0.341-13.495-0.537-20.24-0.461c-5.681,0.064-13.176-1.009-15.808,5.142
				c-1.582,3.698-1.199,7.553-1.916,11.378c-0.047,0.256,0.139,1.427-0.044,1.571c0.831-0.657-3.265-0.727-3.486-0.692
				c-1.434,0.222-2.996,0.501-4.214,1.351c-4.864,3.397-3.057,13.505-2.985,18.537c0.009,0.584,0.477,1.035,1.054,1.055
				c2.657,0.089,5.312,0.178,7.968,0.268C36.188,75.275,36.187,73.166,34.831,73.121L34.831,73.121z"/>
		</g>
	</g>
	<g>
		<g>
			<path fill="#3E3A39" d="M49.141,63.167c-7.442-0.676-14.159,3.886-14.589,11.719c-0.431,7.837,5.775,13.838,13.517,13.423
				c6.53-0.352,11.566-4.169,12.318-10.775c0.848-7.456-3.604-13.167-10.966-14.328c-1.328-0.21-1.899,1.822-0.56,2.033
				c5.909,0.933,9.782,4.963,9.514,11.076c-0.243,5.541-3.686,8.953-9.147,9.752c-6.613,0.965-12.522-3.401-12.588-10.338
				c-0.069-7.069,5.903-11.052,12.501-10.452C50.492,65.399,50.484,63.289,49.141,63.167z"/>
		</g>
	</g>
	<g>
		<g>
			<path fill="#3E3A39" d="M48.083,70.636c-2.981-0.271-5.613,1.691-5.776,4.774c-0.163,3.097,2.34,5.522,5.402,5.368
				c2.618-0.132,4.662-1.711,4.971-4.354c0.341-2.907-1.413-5.293-4.316-5.751c-1.328-0.21-1.899,1.821-0.561,2.033
				c1.763,0.278,2.909,1.351,2.814,3.201c-0.081,1.594-1.019,2.494-2.595,2.728c-1.907,0.281-3.587-0.925-3.613-2.932
				c-0.027-2.113,1.752-3.134,3.674-2.959C49.434,72.869,49.426,70.758,48.083,70.636z"/>
		</g>
	</g>
	<g>
		<g>
			<path fill="#3E3A39" d="M115.079,61.717c-7.441-0.676-14.159,3.886-14.589,11.719c-0.43,7.837,5.776,13.839,13.517,13.423
				c6.53-0.351,11.567-4.17,12.319-10.775c0.848-7.456-3.604-13.167-10.966-14.328c-1.328-0.21-1.9,1.822-0.561,2.033
				c5.909,0.933,9.783,4.963,9.514,11.076c-0.243,5.541-3.685,8.954-9.146,9.751c-6.614,0.966-12.522-3.4-12.589-10.337
				c-0.069-7.069,5.903-11.052,12.501-10.452C116.43,63.95,116.422,61.839,115.079,61.717z"/>
		</g>
	</g>
	<g>
		<g>
			<path fill="#3E3A39" d="M114.02,69.187c-2.981-0.271-5.613,1.691-5.775,4.775c-0.164,3.097,2.34,5.522,5.401,5.368
				c2.618-0.132,4.661-1.71,4.971-4.354c0.34-2.907-1.413-5.293-4.317-5.752c-1.328-0.209-1.9,1.823-0.561,2.034
				c1.764,0.278,2.909,1.35,2.814,3.202c-0.081,1.593-1.019,2.493-2.594,2.727c-1.907,0.281-3.588-0.925-3.613-2.932
				c-0.027-2.113,1.752-3.134,3.674-2.959C115.371,71.42,115.363,69.309,114.02,69.187z"/>
		</g>
	</g>
	<g>
		<g>
			<path fill="#3E3A39" d="M27.766,68.892c3.625,0.063,7.246-0.009,10.866-0.215c1.35-0.076,1.358-2.187,0-2.109
				c-3.62,0.206-7.241,0.278-10.866,0.216C26.408,66.76,26.408,68.869,27.766,68.892L27.766,68.892z"/>
		</g>
	</g>
	<g>
		<g>
			<path fill="#3E3A39" d="M56.566,68.805c5.857,0.127,11.714,0.255,17.571,0.383c1.357,0.029,1.357-2.08,0-2.109
				c-5.857-0.128-11.715-0.255-17.571-0.383C55.209,66.666,55.209,68.776,56.566,68.805L56.566,68.805z"/>
		</g>
	</g>
	<g>
		<g>
			<path fill="#3E3A39" d="M27.449,57.993c-5.25-2.669-7.669,10.365-0.967,9.734c1.339-0.126,1.353-2.236,0-2.109
				c-1.695,0.159-2.082-1.643-1.938-3.004c0.063-0.601,0.644-3.409,1.841-2.8C27.593,60.427,28.661,58.609,27.449,57.993
				L27.449,57.993z"/>
		</g>
	</g>
	<g>
		<g>
			<path fill="#3E3A39" d="M53.104,43.209c-0.094,3.438-0.174,6.878-0.268,10.316c0.352-0.352,0.704-0.703,1.055-1.055
				c-3.256,0.021-6.922-0.431-10.132,0.064c-1.106,0.172-0.877,0.59-0.992-0.666c-0.068-0.757,0.126-1.614,0.206-2.363
				c0.209-1.957,0.534-3.885,0.928-5.812c-0.339,0.259-0.678,0.517-1.018,0.774c3.759-0.069,7.517-0.137,11.275-0.205
				c1.355-0.025,1.36-2.134,0-2.109c-3.758,0.068-7.517,0.137-11.275,0.205c-0.438,0.008-0.924,0.318-1.017,0.774
				c-0.461,2.264-0.827,4.543-1.053,6.843c-0.11,1.128-0.748,3.349,0.3,4.277c1.102,0.976,3.738,0.384,5.058,0.375
				c2.573-0.017,5.146-0.033,7.72-0.049c0.582-0.004,1.039-0.48,1.054-1.055c0.094-3.438,0.175-6.878,0.268-10.316
				C55.25,41.851,53.141,41.851,53.104,43.209z"/>
		</g>
	</g>
	<g>
		<g>
			<path fill="#3E3A39" d="M66.201,43.209c-0.085,3.301,0.057,6.603-0.027,9.903c0.352-0.35,0.702-0.703,1.054-1.054
				c-2.576,0.032-5.143,0.155-7.71,0.367c0.352,0.352,0.703,0.703,1.055,1.055c-0.136-3.316-0.015-6.612,0.363-9.91
				c-0.352,0.353-0.703,0.703-1.055,1.055c2.458-0.12,4.916-0.241,7.374-0.361c1.351-0.066,1.359-2.176,0-2.109
				c-2.458,0.12-4.916,0.241-7.374,0.362c-0.619,0.03-0.987,0.462-1.055,1.054c-0.377,3.298-0.498,6.595-0.363,9.91
				c0.022,0.534,0.467,1.104,1.055,1.055c2.566-0.213,5.134-0.335,7.71-0.368c0.581-0.008,1.04-0.478,1.055-1.055
				c0.085-3.301-0.058-6.602,0.027-9.903C68.345,41.851,66.236,41.851,66.201,43.209z"/>
		</g>
	</g>
	<g>
		<g>
			<path fill="#3E3A39" d="M79.754,67.874c7.91,0.151,15.822,0.149,23.731,0.301c1.358,0.026,1.358-2.083,0-2.109
				c-7.91-0.151-15.821-0.149-23.731-0.301C78.396,65.738,78.396,67.847,79.754,67.874L79.754,67.874z"/>
		</g>
	</g>
	<g>
		<g>
			<path fill="#3E3A39" d="M124.497,69.618c6.961-0.464,14.043-0.081,21.014,0.006c1.357,0.017,1.358-2.093,0-2.109
				c-6.971-0.087-14.054-0.47-21.014-0.006C123.151,67.598,123.14,69.709,124.497,69.618L124.497,69.618z"/>
		</g>
	</g>
	<g>
		<g>
			<path fill="#3E3A39" d="M100.83,26.032c-6.367,2.553-7.92,13.501-7.815,19.405c0.024,1.356,2.133,1.36,2.109,0
				c-0.056-3.125,0.282-6.214,1.243-9.198c0.836-2.592,2.295-7.079,5.023-8.174C102.635,27.566,102.092,25.525,100.83,26.032
				L100.83,26.032z"/>
		</g>
	</g>
	<g>
		<g>
			<path fill="#3E3A39" d="M123.35,26.809c7.245,3.831,9.62,11.467,9.274,19.22c-0.06,1.358,2.048,1.354,2.109,0
				c0.378-8.461-2.48-16.895-10.318-21.041C123.216,24.353,122.149,26.173,123.35,26.809L123.35,26.809z"/>
		</g>
	</g>
	<g>
		<g>
			<path fill="#3E3A39" d="M103.369,26.598c-2.656-1.498-5.464-2.585-6.51-5.711c-1.067-3.191-0.946-6.77,0.693-9.725
				c0.659-1.188-1.162-2.252-1.821-1.064c-1.914,3.449-2.129,7.602-0.905,11.35c1.233,3.78,4.211,5.129,7.478,6.973
				C103.487,29.087,104.552,27.266,103.369,26.598L103.369,26.598z"/>
		</g>
	</g>
	<g>
		<g>
			<path fill="#3E3A39" d="M100.302,7.091c4.907-4.967,16.854-7.192,21.796-0.991c0.846,1.061,2.329-0.44,1.491-1.491
				c-5.656-7.095-19.099-4.758-24.78,0.992C97.855,6.567,99.346,8.059,100.302,7.091L100.302,7.091z"/>
		</g>
	</g>
	<g>
		<g>
			<path fill="#3E3A39" d="M125.138,9.765c4.425,5.047,2.304,13.255-3.372,16.35c-1.191,0.65-0.128,2.473,1.065,1.822
				c6.962-3.798,9.108-13.605,3.798-19.664C125.734,7.251,124.247,8.748,125.138,9.765L125.138,9.765z"/>
		</g>
	</g>
	<g>
		<g>
			<path fill="#3E3A39" d="M122.703,3.998c0.635-2.084,3.207-2.517,4.634-0.943c1.505,1.661,0.805,4.124-0.841,5.389
				c-1.062,0.815-0.012,2.649,1.064,1.821c2.85-2.191,3.85-6.369,0.948-9.015c-2.639-2.404-6.813-1.186-7.84,2.188
				C120.273,4.739,122.308,5.295,122.703,3.998L122.703,3.998z"/>
		</g>
	</g>
	<g>
		<g>
			<path fill="#3E3A39" d="M101.647,4.878c-1.089-3.478-5.47-3.966-7.79-1.386c-2.446,2.721-2.147,7.215,0.718,9.504
				c1.05,0.84,2.553-0.644,1.491-1.491c-1.599-1.277-2.198-3.363-1.435-5.292c0.769-1.939,4.08-3.653,4.98-0.774
				C100.017,6.729,102.053,6.178,101.647,4.878L101.647,4.878z"/>
		</g>
	</g>
	<g>
		<g>
			<path fill="#3E3A39" d="M101.637,38.785c-0.627,2.09-0.703,4.205-0.288,6.341c0.258,1.332,2.291,0.769,2.034-0.561
				c-0.343-1.765-0.228-3.5,0.288-5.219C104.062,38.044,102.027,37.487,101.637,38.785L101.637,38.785z"/>
		</g>
	</g>
	<g>
		<g>
			<path fill="#3E3A39" d="M124.88,40.604c0.422,1.572,0.649,3.149,0.684,4.776c0.028,1.355,2.138,1.36,2.109,0
				c-0.038-1.808-0.29-3.591-0.758-5.337C126.563,38.734,124.527,39.29,124.88,40.604L124.88,40.604z"/>
		</g>
	</g>
	<g>
		<g>
			<path fill="#3E3A39" d="M84.564,44.923c-0.778-2.347-1.558-4.693-2.337-7.041c-0.559-1.685-2.76-5.69-1.273-7.309
				c1.117-1.214,4.616-1.704,6.173-2.19c2.553-0.795,5.135-1.443,7.747-2.011c-0.433-0.246-0.865-0.491-1.297-0.737
				c0.535,2.513,1.069,5.024,1.604,7.537c0.282,1.326,2.315,0.765,2.034-0.562c-0.535-2.512-1.069-5.024-1.604-7.536
				c-0.123-0.578-0.768-0.851-1.297-0.736c-3.323,0.723-6.604,1.588-9.825,2.684c-1.505,0.514-5.68,1.227-6.489,2.823
				c-0.762,1.505,0.551,3.649,1.024,5.076c1.168,3.521,2.336,7.042,3.505,10.562C82.956,46.766,84.993,46.217,84.564,44.923
				L84.564,44.923z"/>
		</g>
	</g>
	<g>
		<g>
			<path fill="#3E3A39" d="M85.921,28.244c1.485,5.914,3.165,11.77,5.039,17.572c0.416,1.286,2.454,0.736,2.034-0.561
				c-1.874-5.804-3.553-11.658-5.038-17.573C87.625,26.367,85.59,26.923,85.921,28.244L85.921,28.244z"/>
		</g>
	</g>
	<g>
		<g>
			<path fill="#3E3A39" d="M124.816,28.621c0.296-0.842,0.593-1.682,0.889-2.522c0.217-0.615,0.35-1.496,0.711-2.019
				c0.589-0.849-0.571,0.533,0.076-0.063c0.706-0.653,2.085-1.043,2.945-1.473c0.481-0.241,2.947-1.232,1.767-1.108
				c3.656-0.381,8.576,1.513,12.207,2.154c-0.245-0.433-0.491-0.865-0.736-1.298c-1.449,7.971-2.898,15.941-4.348,23.912
				c-0.241,1.327,1.792,1.896,2.034,0.561c1.45-7.971,2.898-15.94,4.348-23.912c0.094-0.519-0.137-1.19-0.737-1.297
				c-3.857-0.681-9.308-2.829-13.13-2.067c-5.296,1.056-6.493,4.126-8.06,8.571C122.33,29.341,124.367,29.894,124.816,28.621
				L124.816,28.621z"/>
		</g>
	</g>
	<g>
		<g>
			<path fill="#3E3A39" d="M133.997,20.287c-1.114,4.28-2.184,8.571-3.209,12.874c-0.314,1.319,1.719,1.882,2.034,0.561
				c1.025-4.303,2.095-8.593,3.209-12.874C136.373,19.533,134.339,18.972,133.997,20.287L133.997,20.287z"/>
		</g>
	</g>
</g>
</svg>
