<svg xmlns="http://www.w3.org/2000/svg" viewBox="0 0 2275 356.85"><defs><style>.cls-1{fill:#81e044;}</style></defs><title>grass-05資產 2</title><g id="圖層_2" data-name="圖層 2"><g id="排版"><path class="cls-1" d="M2259,124.36c-42.6,5.65-122.87,18.15-168,11.54-41.47-6.07-76.35-32.3-111.11-54.53-34.16-21.84-56.76-27.63-101.1-18.78-31.35,6.26-62.89,24.75-92.68,35.79-90.06,33.36-131.89,50.82-211.21-4.79-64.37-45.13-116.53-68.8-194.12-37.55-94.67,38.13-144.19,72-245.76,33.59C1074.77,66.84,997.56,7,927.09,16.52c-104.1,14.06-175,99.2-284,100.14-110.55,1-170.42-69.43-271.22-100.89C261-18.84,18-3.87,0,135.9v221H2275Z"/></g></g></svg>