<?xml version="1.0" encoding="utf-8"?>
<!-- Generator: Adobe Illustrator 22.0.1, SVG Export Plug-In . SVG Version: 6.00 Build 0)  -->
<svg version="1.1" id="排版" xmlns="http://www.w3.org/2000/svg" xmlns:xlink="http://www.w3.org/1999/xlink" x="0px" y="0px"
	 viewBox="0 0 1920 324.395" enable-background="new 0 0 1920 324.395" xml:space="preserve">
<g>
	<defs>
		<rect id="SVGID_1_" width="1920" height="325.062"/>
	</defs>
	<clipPath id="SVGID_2_">
		<use xlink:href="#SVGID_1_"  overflow="visible"/>
	</clipPath>
	<g clip-path="url(#SVGID_2_)">
		<path fill="#E4E3E4" d="M-57,100.787c39.59,67.88,163.303,98.716,235.794,115.9c102.506,24.299,219.801,15.798,322-4.79
			c121.873-24.551,241.327-61.864,366.982-71.316c136.305-10.254,260.427,30.353,386.32,75.316
			c141.418,50.509,298.848,88.397,450.891,105.083c80.407,8.824,172.665,3.873,249.295-20.065
			c57.03-17.815,124.741-33.687,176.719-64.128v-304H-65L-57,100.787z"/>
		<path fill="#62E8E2" d="M-38,75.787c39.59,67.88,163.303,98.716,235.793,115.9c102.506,24.299,219.801,15.798,322-4.79
			c121.873-24.551,241.327-61.864,366.982-71.316c136.305-10.254,260.427,30.353,386.32,75.316
			c141.418,50.509,298.848,88.397,450.891,105.083c80.407,8.824,172.665,3.873,249.295-20.065
			c57.03-17.815,124.741-33.687,176.719-64.128v-304H-46L-38,75.787z"/>
		<path fill="#5CE0DE" d="M-20,35.787c39.59,67.88,163.303,98.716,235.793,115.9c102.506,24.299,219.801,15.798,322-4.79
			c121.873-24.551,241.327-61.864,366.982-71.316c136.305-10.254,260.427,30.353,386.32,75.316
			c141.418,50.509,298.848,88.397,450.891,105.083c80.407,8.824,172.665,3.873,249.295-20.065
			c57.03-17.815,124.741-33.686,176.719-64.128v-304H-28L-20,35.787z"/>
	</g>
</g>
</svg>
