<?xml version="1.0" encoding="utf-8"?>
<!-- Generator: Adobe Illustrator 22.0.1, SVG Export Plug-In . SVG Version: 6.00 Build 0)  -->
<svg version="1.1" id="排版" xmlns="http://www.w3.org/2000/svg" xmlns:xlink="http://www.w3.org/1999/xlink" x="0px" y="0px"
	 viewBox="0 0 424.953 154.993" enable-background="new 0 0 424.953 154.993" xml:space="preserve">
<g>
	<path fill="#49C0C4" d="M1.816,39.771c40.695-72.922,189.03-25.889,251.736-12.298c37.639,8.16,68.311-9.866,105.465-13.975
		c28.852-3.191,60.428,24.936,65.436,53.437c4.077,23.201-16.19,59.988-34.762,74.791c-30.064,23.964-77.922,9.452-112.25,2.84
		c-29.043-5.595-57.331-18.304-89.441-15.117c-37.566,3.729-69.683,13.616-108.433,3.316C39.673,122.161-16.97,101.94,4.812,48.755"
		/>
	<g>
		<path fill="none" stroke="#FFFCD2" stroke-width="1.8511" stroke-miterlimit="10" d="M295.927,59.5l3.771,9.723l10.148,2.409
			c2.391,0.564,3.088,3.624,1.186,5.171l-8.081,6.595l0.843,10.394c0.199,2.445-2.492,4.061-4.552,2.729l-8.767-5.65l-9.626,4.018
			c-2.263,0.945-4.629-1.116-4.004-3.49l2.669-10.082l-6.795-7.914c-1.599-1.861-0.369-4.748,2.079-4.883l10.416-0.58l5.424-8.91
			C291.915,56.936,295.038,57.211,295.927,59.5z"/>
		
			<text transform="matrix(1 0 0 1 117.9271 72.4906)" fill="#FFFCD2" font-family="'MicrosoftJhengHeiRegular'" font-size="32px" letter-spacing="4">預約參觀</text>
		<g>
			
				<text transform="matrix(1 0 0 1 128.6859 104.6088)" fill="#FFFCD2" font-family="'ArialMT'" font-size="21px" letter-spacing="1">book a visit</text>
		</g>
	</g>
</g>
</svg>
