<?xml version="1.0" encoding="utf-8"?>
<!-- Generator: Adobe Illustrator 22.0.1, SVG Export Plug-In . SVG Version: 6.00 Build 0)  -->
<svg version="1.1" id="排版" xmlns="http://www.w3.org/2000/svg" xmlns:xlink="http://www.w3.org/1999/xlink" x="0px" y="0px"
	 viewBox="0 0 1920.6 324.2" style="enable-background:new 0 0 1920.6 324.2;" xml:space="preserve">
<style type="text/css">
	.st0{fill:#D2F9F6;}
	.st1{fill:#FFF3DE;}
	.st2{fill:none;}
	.st3{fill:#FFEBC2;}
	.st4{fill:#FFC789;}
	.st5{fill:#FCB465;}
	.st6{fill:#FFD8D8;}
	.st7{fill:#FFFFFF;}
	.st8{fill:#C8E3E4;}
	.st9{fill:#A3DBDC;}
	.st10{fill:#49C0C4;}
	.st11{fill:#D6FFB4;}
	.st12{fill:#C7FF8F;}
	.st13{fill:#80AF44;}
	.st14{fill:#FFAFAF;}
	.st15{fill:#FF8686;}
	.st16{fill:#AFFF64;}
	.st17{fill:#80B797;}
	.st18{fill:none;stroke:#FFFFFF;stroke-miterlimit:10;}
	.st19{fill:#5B5B5B;}
	.st20{fill:none;stroke:#686868;stroke-miterlimit:10;}
	.st21{fill:none;stroke:#5B5B5B;stroke-width:1.0299;stroke-miterlimit:10;}
	.st22{fill:#3E3A39;}
	.st23{fill:#BAFFFF;}
	.st24{fill:#8DB12B;}
	.st25{clip-path:url(#SVGID_2_);fill:#27883B;}
	.st26{fill:#268BBF;}
	.st27{clip-path:url(#SVGID_4_);fill:#2079B1;}
	.st28{opacity:0.4;fill:#FFFDF0;}
	.st29{opacity:0.2;fill:#FFFDF0;}
	.st30{fill:#FFFFDC;}
	.st31{fill:none;stroke:#000000;stroke-width:2;stroke-miterlimit:10;}
	.st32{fill:none;stroke:#3E3A39;stroke-miterlimit:10;}
	.st33{fill:none;stroke:#3E3A39;stroke-width:0.9901;stroke-miterlimit:10;}
	.st34{fill:#F7EED2;}
	.st35{fill:#231815;}
	.st36{fill:#DCF4D3;}
	.st37{fill:none;stroke:#3E3A39;stroke-width:0.9647;stroke-miterlimit:10;}
	.st38{fill:none;stroke:#FFFCD2;stroke-width:1.8511;stroke-miterlimit:10;}
	.st39{fill:#5CE0DE;}
	.st40{fill:none;stroke:#FFFFFF;stroke-width:1.4151;stroke-miterlimit:10;}
	.st41{clip-path:url(#SVGID_40_);fill:#27883B;}
	.st42{clip-path:url(#SVGID_42_);fill:#2079B1;}
	.st43{fill:#686869;}
	.st44{fill:#686868;}
	.st45{clip-path:url(#SVGID_44_);fill:#27883B;}
	.st46{clip-path:url(#SVGID_46_);fill:#2079B1;}
	.st47{fill:#FFEAD9;}
	.st48{fill:#D7FFFC;}
	.st49{fill:#E1FFF0;}
	.st50{fill:#FFE3E8;}
	.st51{fill:#E1EDFF;}
	.st52{fill:#99D603;}
	.st53{fill:#49AAD6;}
	.st54{fill:#68C100;}
	.st55{fill:#22B71A;}
	.st56{fill:#FFAC92;}
	.st57{opacity:0.6;fill:url(#SVGID_47_);}
	.st58{fill:#1D8BBC;}
	.st59{opacity:0.6;fill:url(#SVGID_48_);}
	.st60{clip-path:url(#SVGID_50_);fill:#27883B;}
	.st61{clip-path:url(#SVGID_52_);fill:#2079B1;}
	.st62{opacity:0.6;fill:url(#SVGID_53_);}
	.st63{opacity:0.6;fill:url(#SVGID_54_);}
	.st64{clip-path:url(#SVGID_56_);fill:#27883B;}
	.st65{clip-path:url(#SVGID_58_);fill:#2079B1;}
	.st66{opacity:0.6;fill:url(#SVGID_59_);}
	.st67{opacity:0.6;fill:url(#SVGID_60_);}
	.st68{clip-path:url(#SVGID_62_);fill:#27883B;}
	.st69{clip-path:url(#SVGID_64_);fill:#2079B1;}
	.st70{fill:none;stroke:#5B5B5B;stroke-width:1.2999;stroke-miterlimit:10;}
	.st71{opacity:0.6;fill:#FFFFFF;}
	.st72{clip-path:url(#SVGID_72_);fill:#27883B;}
	.st73{clip-path:url(#SVGID_74_);fill:#2079B1;}
	.st74{fill:#E4E3E4;}
	.st75{fill:#62E8E2;}
	.st76{fill:#FFEBD9;}
	.st77{fill:#FCD7A2;}
	.st78{fill:#FFC364;}
	.st79{clip-path:url(#SVGID_76_);fill:#27883B;}
	.st80{clip-path:url(#SVGID_78_);fill:#2079B1;}
	.st81{clip-path:url(#SVGID_80_);fill:#27883B;}
	.st82{clip-path:url(#SVGID_82_);fill:#2079B1;}
	.st83{clip-path:url(#SVGID_84_);}
	.st84{clip-path:url(#SVGID_86_);fill:#27883B;}
	.st85{clip-path:url(#SVGID_88_);fill:#2079B1;}
	.st86{clip-path:url(#SVGID_90_);fill:#27883B;}
	.st87{clip-path:url(#SVGID_92_);fill:#2079B1;}
	.st88{clip-path:url(#SVGID_94_);fill:#27883B;}
	.st89{clip-path:url(#SVGID_96_);fill:#2079B1;}
</style>
<g>
	<path class="st6" d="M1920.6,0H0.5v154.1c54.3,32.6,128.8,50.9,178.8,62.8c102.5,24.3,219.8,15.8,322-4.8
		c121.9-24.6,241.3-61.9,367-71.3c136.3-10.3,260.4,30.4,386.3,75.3c141.4,50.5,298.8,88.4,450.9,105.1c68.8,7.5,146.2,5,215.1-10.9
		V0z"/>
	<path class="st14" d="M1920.6,0H0.5v116.5c54.7,40.6,141.6,62.1,197.8,75.4c102.5,24.3,219.8,15.8,322-4.8
		c121.9-24.6,241.3-61.9,367-71.3c136.3-10.3,260.4,30.4,386.3,75.3c141.4,50.5,298.8,88.4,450.9,105.1
		c62.5,6.9,132.2,5.4,196.1-6.9V0z"/>
	<path class="st15" d="M1920.6,0H0.5v61.2c51.7,50.6,153,75.8,215.8,90.7c102.5,24.3,219.8,15.8,322-4.8
		c121.9-24.6,241.3-61.9,367-71.3c136.3-10.3,260.4,30.4,386.3,75.3c141.4,50.5,298.8,88.4,450.9,105.1
		c56.7,6.2,119.3,5.6,178.1-3.7V0z"/>
</g>
</svg>
